<svg height="302" viewBox="0 0 1440 302" width="1440" xmlns="http://www.w3.org/2000/svg" xmlns:xlink="http://www.w3.org/1999/xlink"><defs><path id="a" d="m0 0h1440v302h-1440z"/><linearGradient id="b"><stop offset="0" stop-color="#16073d"/><stop offset="1" stop-color="#1c0c48"/></linearGradient><linearGradient id="c" x1="33.089%" x2="78.793%" xlink:href="#b" y1="38.865%" y2="57.055%"/><filter id="d" height="119.5%" width="111.3%" x="-5.7%" y="-9.8%"><feGaussianBlur in="SourceGraphic" stdDeviation="10"/></filter><linearGradient id="e"><stop offset="0" stop-color="#7745cc"/><stop offset="1" stop-color="#42219c"/></linearGradient><linearGradient id="f" x1="33.089%" x2="79.165%" xlink:href="#e" y1="38.942%" y2="57.154%"/><linearGradient id="g"><stop offset="0" stop-color="#46269e"/><stop offset="1" stop-color="#371c80" stop-opacity=".169"/></linearGradient><linearGradient id="h" x1="65.59%" x2="36.919%" xlink:href="#g" y1="38.522%" y2="78.443%"/><linearGradient id="i"><stop offset="0" stop-color="#271262" stop-opacity=".268"/><stop offset="1" stop-color="#271262"/></linearGradient><linearGradient id="j" x1="68.798%" x2="50%" xlink:href="#i" y1="93.645%" y2="32.194%"/><linearGradient id="k" x1="33.089%" x2="78.793%" xlink:href="#b" y1="38.86%" y2="57.059%"/><filter id="l" height="125.2%" width="114.6%" x="-7.3%" y="-12.6%"><feGaussianBlur in="SourceGraphic" stdDeviation="10"/></filter><linearGradient id="m" x1="33.089%" x2="79.165%" xlink:href="#e" y1="38.935%" y2="57.159%"/><linearGradient id="n" x1="65.58%" x2="36.928%" xlink:href="#g" y1="38.522%" y2="78.443%"/><linearGradient id="o" x1="68.786%" x2="50%" xlink:href="#i" y1="93.645%" y2="32.194%"/><linearGradient id="p" x1="25.862%" x2="54.63%" y1="29.762%" y2="58.197%"><stop offset="0" stop-color="#965eed"/><stop offset="1" stop-color="#5d31d6" stop-opacity=".197"/></linearGradient><linearGradient id="q"><stop offset="0" stop-color="#965eed"/><stop offset="1" stop-color="#5d31d6"/></linearGradient><linearGradient id="r" x1="27.415%" x2="77.535%" xlink:href="#q" y1="5.287%" y2="82.358%"/><linearGradient id="s" x1="33.089%" x2="78.793%" xlink:href="#b" y1="38.943%" y2="57.006%"/><filter id="t" height="199.6%" width="157.6%" x="-28.8%" y="-49.8%"><feGaussianBlur in="SourceGraphic" stdDeviation="12"/></filter><linearGradient id="u" x1="33.089%" x2="78.793%" xlink:href="#b" y1="39.045%" y2="56.941%"/><filter id="v" height="152.6%" width="130.3%" x="-15.1%" y="-26.3%"><feGaussianBlur in="SourceGraphic" stdDeviation="12"/></filter><linearGradient id="w" x1="33.089%" x2="79.165%" xlink:href="#e" y1="39.038%" y2="57.092%"/><linearGradient id="x" x1="65.727%" x2="36.804%" xlink:href="#g" y1="38.522%" y2="78.443%"/><linearGradient id="y" x1="68.963%" x2="50%" xlink:href="#i" y1="93.645%" y2="32.194%"/><linearGradient id="z" x1="33.089%" x2="78.793%" xlink:href="#b" y1="38.912%" y2="57.026%"/><filter id="A" height="134.9%" width="120.2%" x="-10.1%" y="-17.4%"><feGaussianBlur in="SourceGraphic" stdDeviation="10"/></filter><linearGradient id="B" x1="33.089%" x2="79.165%" xlink:href="#e" y1="38.951%" y2="57.148%"/><linearGradient id="C" x1="65.602%" x2="36.909%" xlink:href="#g" y1="38.522%" y2="78.443%"/><linearGradient id="D" x1="68.813%" x2="50%" xlink:href="#i" y1="93.645%" y2="32.194%"/><path id="E" d="m91.9292312 49.754907-84.85781984-48.90790475c-3.90542906-2.25074987-7.07141136.1387174-7.07141136 5.33701146v122.35980829l23.5715318-17.788542 68.3576994 39.397585c3.9052684 2.25091 7.0707688-.138317 7.0707688-5.336611v-81.5736863c0-5.1982941-3.1655004-11.2369109-7.0707688-13.4876607z"/><filter id="F" height="156.3%" width="185.9%" x="-22.7%" y="-38.1%"><feMorphology in="SourceAlpha" operator="dilate" radius="2.5" result="shadowSpreadOuter1"/><feOffset dx="20" dy="-15" in="shadowSpreadOuter1" result="shadowOffsetOuter1"/><feGaussianBlur in="shadowOffsetOuter1" result="shadowBlurOuter1" stdDeviation="10"/><feComposite in="shadowBlurOuter1" in2="SourceAlpha" operator="out" result="shadowBlurOuter1"/><feColorMatrix in="shadowBlurOuter1" values="0 0 0 0 0.0862745098   0 0 0 0 0.0274509804   0 0 0 0 0.239215686  0 0 0 0.532725087 0"/></filter><path id="G" d="m7.07141136 49.754907 84.85781984-48.90790475c3.9052684-2.25074987 7.0707688.1387174 7.0707688 5.33701146v122.35980829l-23.5712106-17.788542-68.35737804 39.397585c-3.90542906 2.25091-7.07141136-.138317-7.07141136-5.336611v-81.5736863c0-5.1982941 3.1659823-11.2369109 7.07141136-13.4876607z"/><filter id="H" height="156.3%" width="185.9%" x="-63.1%" y="-38.1%"><feMorphology in="SourceAlpha" operator="dilate" radius="2.5" result="shadowSpreadOuter1"/><feOffset dx="-20" dy="-15" in="shadowSpreadOuter1" result="shadowOffsetOuter1"/><feGaussianBlur in="shadowOffsetOuter1" result="shadowBlurOuter1" stdDeviation="10"/><feComposite in="shadowBlurOuter1" in2="SourceAlpha" operator="out" result="shadowBlurOuter1"/><feColorMatrix in="shadowBlurOuter1" values="0 0 0 0 0.0862745098   0 0 0 0 0.0274509804   0 0 0 0 0.239215686  0 0 0 0.532725087 0"/></filter><linearGradient id="I" x1="27.415%" x2="77.535%" xlink:href="#q" y1="36.071%" y2="60.08%"/><linearGradient id="J" x1="33.089%" x2="78.793%" xlink:href="#b" y1="38.998%" y2="56.972%"/><filter id="K" height="192%" width="153.1%" x="-26.5%" y="-46%"><feGaussianBlur in="SourceGraphic" stdDeviation="10"/></filter><linearGradient id="L" x1="33.089%" x2="78.793%" xlink:href="#b" y1="38.934%" y2="57.012%"/><filter id="M" height="192.4%" width="153.5%" x="-26.7%" y="-46.2%"><feGaussianBlur in="SourceGraphic" stdDeviation="10"/></filter><filter id="N" height="192%" width="153.1%" x="-26.5%" y="-46%"><feGaussianBlur in="SourceGraphic" stdDeviation="10"/></filter><linearGradient id="O" x1="33.089%" x2="79.165%" xlink:href="#e" y1="39.004%" y2="57.114%"/><linearGradient id="P" x1="65.678%" x2="36.846%" xlink:href="#g" y1="38.522%" y2="78.443%"/><linearGradient id="Q" x1="68.904%" x2="50%" xlink:href="#i" y1="93.645%" y2="32.194%"/><linearGradient id="R" x1="33.089%" x2="78.793%" xlink:href="#b" y1="39.219%" y2="56.831%"/><filter id="S" height="207.2%" width="161.2%" x="-30.6%" y="-53.6%"><feGaussianBlur in="SourceGraphic" stdDeviation="10"/></filter><linearGradient id="T" x1="33.089%" x2="78.793%" xlink:href="#b" y1="39.119%" y2="56.895%"/><filter id="U" height="207.4%" width="161.6%" x="-30.8%" y="-53.7%"><feGaussianBlur in="SourceGraphic" stdDeviation="10"/></filter><path id="V" d="m62.2142158.57532263-57.42848598 33.20202677c-2.6431075 1.5279628-4.78572982 5.6273883-4.78572982 9.1563455v83.0663051l15.9523602-30.5218048 46.2618556-26.7460438c2.6429444-1.5279628 4.7857842-5.6273884 4.7857842-9.1563455v-55.37789964c0-3.52895712-2.1428398-5.15109074-4.7857842-3.62258363z"/><filter id="W" height="173.6%" width="226.9%" x="-93.3%" y="-45.6%"><feMorphology in="SourceAlpha" operator="dilate" radius="2.5" result="shadowSpreadOuter1"/><feOffset dx="-20" dy="-15" in="shadowSpreadOuter1" result="shadowOffsetOuter1"/><feGaussianBlur in="shadowOffsetOuter1" result="shadowBlurOuter1" stdDeviation="10"/><feComposite in="shadowBlurOuter1" in2="SourceAlpha" operator="out" result="shadowBlurOuter1"/><feColorMatrix in="shadowBlurOuter1" values="0 0 0 0 0.0862745098   0 0 0 0 0.0274509804   0 0 0 0 0.239215686  0 0 0 0.532725087 0"/></filter><filter id="X" height="119.5%" width="111.3%" x="-5.7%" y="-9.8%"><feGaussianBlur in="SourceGraphic" stdDeviation="10"/></filter><mask id="Y" fill="#fff"><use fill="#fff" fill-rule="evenodd" xlink:href="#a"/></mask></defs><g fill="none" fill-rule="evenodd"><g fill="#200f4e"><use xlink:href="#a"/><use xlink:href="#a"/></g><g mask="url(#Y)" opacity=".177"><g transform="translate(-50 -60)"><path d="m263.577 341-263.577 152.965 265.423 154.035 263.577-152.963z" fill="url(#c)" filter="url(#d)" opacity=".642"/><g opacity=".465"><path d="m263.094.334-263.094 152.158 264.937 153.223 263.094-152.156z" fill="url(#f)"/><path d="m264.985 305.745-264.874-153.188v276.895l264.874 153.188z" fill="url(#h)"/><path d="m265.002 305.713 263.071-152.143v276.902l-263.071 152.144z" fill="url(#j)"/></g></g></g><g mask="url(#Y)" opacity=".346"><g transform="translate(555 -109)"><path d="m204.284 264-204.284 118.585 205.716 119.415 204.284-118.583z" fill="url(#k)" filter="url(#l)" opacity=".642"/><g opacity=".465"><path d="m203.91.259-203.91 117.968 205.339 118.794 203.91-117.967z" fill="url(#m)"/><path d="m205.376 237.044-205.29-118.767v214.677l205.29 118.767z" fill="url(#n)"/><path d="m205.389 237.019 203.892-117.956v214.682l-203.892 117.957z" fill="url(#o)"/></g></g></g><g stroke-width="3"><path d="m753.631997-53-157.09896 93.6136959c-3.795507 2.2617046-5.038899 7.1720447-2.777195 10.9675516.680587 1.1421353 1.635098 2.0966402 2.777238 2.7772202l467.61222 278.6415323 60.8547-36.262222" style="stroke-dasharray:1;stroke-linecap:round;stroke-linejoin:round;opacity:.139;stroke:url(#p);mask:url(#Y)" transform="matrix(-1 0 0 1 1710 0)"/><path d="m1080 325-137.977871-79.544203c-3.82775-2.206697-5.141873-7.098582-2.935177-10.926332.7031-1.219601 1.715575-2.232077 2.935176-2.935176l98.168792-56.594289" style="stroke-dasharray:1 8;stroke-linecap:round;stroke-linejoin:round;opacity:.567;stroke:url(#r);mask:url(#Y)"/><circle cx="962.5" cy="257.5" fill="#3d208b" mask="url(#Y)" r="4" stroke="#d300d8"/></g><g mask="url(#Y)"><g transform="translate(1269)"><g transform="translate(56 133.333)"><path d="m62.282 50.238-62.282 36.019 62.718 36.271 62.282-36.018z" fill="url(#s)" filter="url(#t)" opacity=".931"/><g transform="matrix(-1 0 0 1 125 0)"><g fill="#200f4e" stroke="#3d208b" stroke-linejoin="bevel" stroke-width="4.86"><path d="m62.282 0-62.282 36.157 62.718 36.409 62.282-36.156z"/><path d="m62.5 72.035-62.5-36.31v22.859l62.5 36.31z"/><path d="m62.5 71.874 62.5-36.149v23.019l-62.5 36.15z"/></g><path d="m55.8035714 77.7730831c0-.5417464-.3346576-1.1720492-.74684-1.4066086l-24.1759628-13.7596462c-.4121824-.2346168-.74684.0147786-.74684.556525v1.9631911c0 .5417464.3346576 1.1720492.74684 1.4066086l24.1759628 13.7596462c.4121824.2346168.74684-.0147786.74684-.556525z" fill="#d300d8"/><path d="m101.220165 50.4608968c1.043039.5923459 1.889809 2.1837879 1.889809 3.5516664 0 1.3679358-.84677 1.9975614-1.889809 1.4052729-1.043038-.5923459-1.8898079-2.1837879-1.8898079-3.5516664s.8467699-1.9975614 1.8898079-1.4052729zm7.038764 3.9971875c1.04298.5923459 1.889808 2.1837879 1.889808 3.5516664 0 1.3679358-.846828 1.9976188-1.889808 1.4052729-1.043039-.5922885-1.889867-2.1837879-1.889867-3.5516664 0-1.3678784.846828-1.9975614 1.889867-1.4052729zm7.038704 3.9971876c1.043039.5923459 1.889867 2.1837879 1.889867 3.5516664 0 1.3679358-.846828 1.9976187-1.889867 1.4052729-1.04298-.5922886-1.889808-2.1837306-1.889808-3.5516664 0-1.3678785.846828-1.9975614 1.889808-1.4052729z" fill="#d300d8" transform="matrix(-1 0 0 1 216.518 0)"/></g></g><g transform="translate(56 86.444)"><g fill="#200f4e" stroke="#3d208b" stroke-linejoin="bevel" stroke-width="4.86"><path d="m62.282 0-62.282 36.157 62.718 36.409 62.282-36.156z"/><path d="m62.5 72.035-62.5-36.31v22.859l62.5 36.31z"/><path d="m62.5 71.874 62.5-36.149v23.019l-62.5 36.15z"/></g><path d="m55.8035714 77.7730831c0-.5417464-.3346576-1.1720492-.74684-1.4066086l-24.1759628-13.7596462c-.4121824-.2346168-.74684.0147786-.74684.556525v1.9631911c0 .5417464.3346576 1.1720492.74684 1.4066086l24.1759628 13.7596462c.4121824.2346168.74684-.0147786.74684-.556525z" fill="#d300d8"/><path d="m101.220165 50.4608968c1.043039.5923459 1.889809 2.1837879 1.889809 3.5516664 0 1.3679358-.84677 1.9975614-1.889809 1.4052729-1.043038-.5923459-1.8898079-2.1837879-1.8898079-3.5516664s.8467699-1.9975614 1.8898079-1.4052729zm7.038764 3.9971875c1.04298.5923459 1.889808 2.1837879 1.889808 3.5516664 0 1.3679358-.846828 1.9976188-1.889808 1.4052729-1.043039-.5922885-1.889867-2.1837879-1.889867-3.5516664 0-1.3678784.846828-1.9975614 1.889867-1.4052729zm7.038704 3.9971876c1.043039.5923459 1.889867 2.1837879 1.889867 3.5516664 0 1.3679358-.846828 1.9976187-1.889867 1.4052729-1.04298-.5922886-1.889808-2.1837306-1.889808-3.5516664 0-1.3678785.846828-1.9975614 1.889808-1.4052729z" fill="#d300d8" transform="matrix(-1 0 0 1 216.518 0)"/></g><g transform="matrix(-1 0 0 1 181 63)"><g fill="#200f4e" stroke="#3d208b" stroke-linejoin="bevel" stroke-width="4.86"><path d="m62.282 0-62.282 36.157 62.718 36.409 62.282-36.156z"/><path d="m62.5 72.035-62.5-36.31v22.859l62.5 36.31z"/><path d="m62.5 71.874 62.5-36.149v23.019l-62.5 36.15z"/></g><path d="m55.8035714 77.7730831c0-.5417464-.3346576-1.1720492-.74684-1.4066086l-24.1759628-13.7596462c-.4121824-.2346168-.74684.0147786-.74684.556525v1.9631911c0 .5417464.3346576 1.1720492.74684 1.4066086l24.1759628 13.7596462c.4121824.2346168.74684-.0147786.74684-.556525z" fill="#d300d8"/><path d="m101.220165 50.4608968c1.043039.5923459 1.889809 2.1837879 1.889809 3.5516664 0 1.3679358-.84677 1.9975614-1.889809 1.4052729-1.043038-.5923459-1.8898079-2.1837879-1.8898079-3.5516664s.8467699-1.9975614 1.8898079-1.4052729zm7.038764 3.9971875c1.04298.5923459 1.889808 2.1837879 1.889808 3.5516664 0 1.3679358-.846828 1.9976188-1.889808 1.4052729-1.043039-.5922885-1.889867-2.1837879-1.889867-3.5516664 0-1.3678784.846828-1.9975614 1.889867-1.4052729zm7.038704 3.9971876c1.043039.5923459 1.889867 2.1837879 1.889867 3.5516664 0 1.3679358-.846828 1.9976187-1.889867 1.4052729-1.04298-.5922886-1.889808-2.1837306-1.889808-3.5516664 0-1.3678785.846828-1.9975614 1.889808-1.4052729z" fill="#d300d8" transform="matrix(-1 0 0 1 216.518 0)"/></g><path d="m118.585 153-118.585 68.261 119.415 68.739 118.585-68.26z" fill="url(#u)" filter="url(#v)" opacity=".642"/><g opacity=".465"><path d="m118.367 0-118.367 68.158 119.197 68.635 118.367-68.157z" fill="url(#w)"/><path d="m119.218 136.806-119.168-68.619v124.033l119.168 68.619z" fill="url(#x)"/><path d="m119.226 136.792 118.357-68.151v124.035l-118.357 68.152z" fill="url(#y)"/></g></g></g><g mask="url(#Y)" opacity=".585"><g transform="translate(-72 49)"><path d="m147.982 231-147.982 85.7 149.018 86.3 147.982-85.699z" fill="url(#z)" filter="url(#A)" opacity=".642"/><g opacity=".465"><g fill="url(#B)"><path d="m147.711 40-147.711 85.393 148.746 85.991 147.71-85.392z"/><path d="m147.711 20-147.711 85.393 148.746 85.991 147.71-85.392z" opacity=".175"/><path d="m147.711 0-147.711 85.393 148.746 85.991 147.71-85.392z" opacity=".262"/></g><path d="m148.773 211.401-148.711-85.972v155.398l148.711 85.971z" fill="url(#C)"/><path d="m148.782 211.383 147.697-85.385v155.401l-147.697 85.385z" fill="url(#D)"/></g></g></g><g mask="url(#Y)" stroke-linecap="round" stroke-linejoin="round"><g transform="translate(946 41)"><use fill="#000" filter="url(#F)" xlink:href="#E"/><g stroke-width="5"><use fill="#200f4e" stroke="#3d208b" xlink:href="#E"/><path d="m0 29 50-29m-50 54 50-29" opacity=".383" stroke="#d300d8" transform="matrix(-1 0 0 1 75 46)"/></g></g></g><g mask="url(#Y)" stroke-linecap="round" stroke-linejoin="round"><g transform="translate(1030 92)"><use fill="#000" filter="url(#H)" xlink:href="#G"/><g stroke-width="5"><use fill="#200f4e" stroke="#3d208b" xlink:href="#G"/><path d="m1 29 50-29m-50 54 50-29m-51 54 28-16" stroke="#d300d8" transform="translate(25 38)"/></g></g></g><circle cx="1109" cy="183" fill="#d300d8" mask="url(#Y)" r="5"/><path d="m1109 183.425413 34.08726 19.656744c3.82749 2.207156 8.71953.893619 10.92669-2.933866.70081-1.2153 1.06972-2.593522 1.06972-3.996409v-44.303736c0-4.418278 3.58172-8 8-8 1.40289 0 2.78112.368914 3.99642 1.069732l70.91991 40.896803" style="stroke-dasharray:1 9;stroke-linecap:round;stroke-linejoin:round;stroke-width:3;stroke:url(#I);mask:url(#Y)"/><g mask="url(#Y)"><g transform="translate(1194 233)"><path d="m56.303 40.343-56.303 32.48 56.697 32.708 56.303-32.48z" fill="url(#J)" filter="url(#K)" opacity=".706"/><g fill="#200f4e" stroke="#3d208b" stroke-linejoin="bevel" stroke-width="4.05"><path d="m56.303 0-56.303 32.617 56.697 32.846 56.303-32.617z"/><path d="m56.819 65.42-56.819-32.689v20.58l56.819 32.689z"/><path d="m56.819 65.276 56.181-32.545v20.724l-56.181 32.545z"/></g><path d="m91.8828658 46.3047512c.9244781.5358302 1.6749963 1.9754328 1.6749963 3.2128021 0 1.2374212-.7505182 1.8069742-1.6749963 1.2711959-.924478-.5358302-1.6749962-1.9754328-1.6749962-3.2128021s.7505182-1.8069742 1.6749962-1.2711959zm6.2386762 3.6158161c.9244264.5358302 1.6749963 1.9754329 1.6749963 3.2128022 0 1.2374211-.7505699 1.8070261-1.6749963 1.2711959-.924478-.5357783-1.6750479-1.9754329-1.6750479-3.2128022 0-1.2373692.7505699-1.8069742 1.6750479-1.2711959zm6.238625 3.6158162c.924478.5358302 1.675047 1.9754328 1.675047 3.2128021 0 1.2374212-.750569 1.8070261-1.675047 1.2711959-.924427-.5357783-1.674997-1.9753809-1.674997-3.2128021 0-1.2373693.75057-1.8069742 1.674997-1.2711959z" fill="#d300d8" transform="matrix(-1 0 0 1 196.243 0)"/></g><g transform="translate(1194 201)"><path d="m56.688 34.615-55.919 32.352 56.311 32.579 55.92-32.352z" fill="url(#L)" filter="url(#M)" opacity=".642"/><path d="m56.425.554-55.92 32.195 56.312 32.421 55.919-32.195z" fill="#42219c"/><path d="m56.621 64.889-56.116-32.796v16.434l56.116 32.797z" fill="#371c80"/><path d="m27.4098332 55.231188c0-.4665966-.2806079-1.0094653-.6262199-1.2114871l-20.27136964-11.85094c-.34561197-.2020714-.62621994.0127285-.62621994.4793251v1.6908618c0 .4665966.28060797 1.0094652.62621994 1.211487l20.27136964 11.8509401c.345612.2020713.6262199-.0127285.6262199-.4793251z" fill="#d300d8"/><path d="m56.621 65.069 56.115-32.207v16.254l-56.115 32.208z" fill="#271262"/><path d="m35.1051763 57.6692232c.8531065.510177 1.5456832 1.8808579 1.5456832 3.0589875 0 1.1781789-.6925767 1.7204643-1.5456832 1.2103367-.8531065-.5101771-1.5456832-1.8808579-1.5456832-3.0589875s.6925767-1.7204643 1.5456832-1.2103367zm5.7570379 3.442707c.8530588.510177 1.5456832 1.8808579 1.5456832 3.0589874 0 1.178179-.6926244 1.7205138-1.5456832 1.2103367-.8531065-.5101276-1.5457309-1.8808579-1.5457309-3.0589874 0-1.1781296.6926244-1.7204644 1.5457309-1.2103367zm5.7569902 3.4427069c.8531065.5101771 1.5457309 1.8808579 1.5457309 3.0589875 0 1.178179-.6926244 1.7205137-1.5457309 1.2103367-.8530588-.5101276-1.5456832-1.8808085-1.5456832-3.0589875 0-1.1781295.6926244-1.7204643 1.5456832-1.2103367z" fill="#d300d8"/></g><g transform="matrix(-1 0 0 1 1307 158)"><path d="m56.303 40.343-56.303 32.48 56.697 32.708 56.303-32.48z" fill="url(#J)" filter="url(#N)" opacity=".706"/><g fill="#200f4e" stroke="#3d208b" stroke-linejoin="bevel" stroke-width="4.05"><path d="m56.303 0-56.303 32.617 56.697 32.846 56.303-32.617z"/><path d="m56.819 65.42-56.819-32.689v20.58l56.819 32.689z"/><path d="m56.819 65.276 56.181-32.545v20.724l-56.181 32.545z"/></g><path d="m50.1945088 70.8822969c0-.4887738-.2964966-1.0574449-.6616778-1.2690687l-21.4191758-12.4142122c-.3651812-.2116758-.6616778.0133334-.6616778.5021073v1.771228c0 .4887738.2964966 1.0574449.6616778 1.2690688l21.4191758 12.4142122c.3651812.2116757.6616778-.0133335.6616778-.5021074z" fill="#d300d8"/></g></g><g mask="url(#Y)" opacity=".499"><g opacity=".246915" transform="translate(736 190)"><path d="m91.014 0-91.014 52.489 91.651 52.857 91.014-52.489z" fill="url(#O)"/><path d="m91.668 105.356-91.63-52.844v95.519l91.63 52.845z" fill="url(#P)"/><path d="m91.673 105.345 91.006-52.484v95.522l-91.006 52.484z" fill="url(#Q)"/></g><g transform="translate(778 158)"><g transform="translate(0 30)"><path d="m48.829 34.634-48.829 27.884 49.171 28.079 48.829-27.883z" fill="url(#R)" filter="url(#S)" opacity=".706"/><g fill="#200f4e" stroke="#3d208b" stroke-linejoin="bevel" stroke-width="4.05"><path d="m48.829 0-48.829 28.002 49.171 28.197 48.829-28.001z"/><path d="m49.277 56.163-49.277-28.063v17.667l49.277 28.063z"/><path d="m49.277 56.039 48.723-27.939v17.791l-48.723 27.939z"/></g><path d="m79.6860252 39.7521921c.8017597.4600051 1.4526516 1.6958904 1.4526516 2.7581603 0 1.0623144-.6508919 1.5512703-1.4526516 1.0913097-.8017597-.4600052-1.4526516-1.6958905-1.4526516-2.7581604 0-1.0622698.6508919-1.5512703 1.4526516-1.0913096zm5.4105334 3.104144c.8017148.4600052 1.4526516 1.6958905 1.4526516 2.7581603 0 1.0623144-.6509368 1.5513149-1.4526516 1.0913097-.8017597-.4599606-1.4526965-1.6958904-1.4526965-2.7581603s.6509368-1.5512703 1.4526965-1.0913097zm5.4104885 3.1041441c.8017597.4600051 1.4526964 1.6958904 1.4526964 2.7581603 0 1.0623144-.6509367 1.5513148-1.4526964 1.0913097-.8017149-.4599606-1.4526516-1.6958459-1.4526516-2.7581603 0-1.0622699.6509367-1.5512703 1.4526516-1.0913097z" fill="#d300d8" transform="matrix(-1 0 0 1 170.193 0)"/></g><path d="m49.163 29.769-48.496 27.823 48.836 28.017 48.497-27.822z" fill="url(#T)" filter="url(#U)" opacity=".642"/><path d="m48.935.477-48.497 27.687 48.837 27.882 48.496-27.688z" fill="#42219c"/><path d="m49.105 55.805-48.667-28.205v14.133l48.667 28.205z" fill="#371c80"/><path d="m23.7713598 47.4988217c0-.4012731-.2433591-.8681402-.5430934-1.0418789l-17.58047987-10.1918085c-.29973427-.1737813-.54309339.0109466-.54309339.4122197v1.4541411c0 .4012731.24335912.8681401.54309339 1.0418789l17.58047987 10.1918084c.2997343.1737814.5430934-.0109465.5430934-.4122196z" fill="#d300d8"/><path d="m49.105 55.96 48.666-27.699v13.979l-48.666 27.698z" fill="#271262"/><path d="m30.4451971 49.5955319c.7398623.4387523 1.340504 1.6175378 1.340504 2.6307293 0 1.0132339-.6006417 1.4795993-1.340504 1.0408895-.7398622-.4387522-1.340504-1.6175378-1.340504-2.6307292s.6006418-1.4795993 1.340504-1.0408896zm4.9928294 2.960728c.7398209.4387523 1.340504 1.6175378 1.340504 2.6307293 0 1.0132339-.6006831 1.4796418-1.340504 1.0408895-.7398623-.4387097-1.3405454-1.6175378-1.3405454-2.6307292s.6006831-1.4795993 1.3405454-1.0408896zm4.992788 2.960728c.7398622.4387523 1.3405453 1.6175378 1.3405453 2.6307293 0 1.0132339-.6006831 1.4796418-1.3405453 1.0408895-.7398209-.4387097-1.340504-1.6174953-1.340504-2.6307292 0-1.0131914.6006831-1.4795993 1.340504-1.0408896z" fill="#d300d8"/></g></g><g mask="url(#Y)" stroke-linecap="round" stroke-linejoin="round"><g transform="translate(1156 -10)"><use fill="#000" filter="url(#W)" xlink:href="#V"/><g stroke-width="5"><use fill="#200f4e" stroke="#3d208b" xlink:href="#V"/><path d="m0 18 31-18m-29 36 18-10" stroke="#d300d8" transform="translate(19 32)"/></g></g></g><g mask="url(#Y)" opacity=".177"><g transform="translate(-72 -64)"><path d="m263.577 341-263.577 152.965 265.423 154.035 263.577-152.963z" fill="url(#c)" filter="url(#X)" opacity=".642"/><g opacity=".465"><path d="m263.094.334-263.094 152.158 264.937 153.223 263.094-152.156z" fill="url(#f)"/><path d="m264.985 305.745-264.874-153.188v276.895l264.874 153.188z" fill="url(#h)"/><path d="m265.002 305.713 263.071-152.143v276.902l-263.071 152.144z" fill="url(#j)"/></g></g></g></g></svg>