<svg xmlns="http://www.w3.org/2000/svg" xmlns:xlink="http://www.w3.org/1999/xlink" width="1440" height="302" viewBox="0 0 1440 302">
  <defs>
    <linearGradient id="community-header-b" x1="100%" x2="0%" y1="52.199%" y2="47.801%">
      <stop offset="0%" stop-color="#0A183F" stop-opacity=".981"/>
      <stop offset="100%" stop-color="#14052A"/>
    </linearGradient>
    <rect id="community-header-a" width="1440" height="302" x="0" y="0"/>
    <radialGradient id="community-header-d" cx="57.988%" cy="48.204%" r="53.363%" fx="57.988%" fy="48.204%" gradientTransform="matrix(0 1 -.82804 0 .979 -.098)">
      <stop offset="0%" stop-color="#24A1C1"/>
      <stop offset="100%" stop-color="#24A1C1" stop-opacity="0"/>
    </radialGradient>
    <radialGradient id="community-header-e" cx="57.892%" cy="61.429%" r="53.363%" fx="57.892%" fy="61.429%" gradientTransform="matrix(0 1 -1.67258 0 1.606 .035)">
      <stop offset="0%" stop-color="#24A1C1"/>
      <stop offset="100%" stop-color="#24A1C1" stop-opacity="0"/>
    </radialGradient>
    <radialGradient id="community-header-f" cx="28.516%" cy="16.104%" r="85.359%" fx="28.516%" fy="16.104%" gradientTransform="matrix(.46617 .512 -.4939 1.5269 .232 -.23)">
      <stop offset="0%" stop-color="#24A1C1"/>
      <stop offset="100%" stop-color="#24A1C1" stop-opacity="0"/>
    </radialGradient>
    <radialGradient id="community-header-g" cx="37.504%" cy="33.589%" r="53.363%" fx="37.504%" fy="33.589%" gradientTransform="matrix(0 1 -.96468 0 .7 -.04)">
      <stop offset="0%" stop-color="#24A1C1"/>
      <stop offset="100%" stop-color="#24A1C1" stop-opacity="0"/>
    </radialGradient>
    <radialGradient id="community-header-h" cx="59.538%" cy="50%" r="83.755%" fx="59.538%" fy="50%" gradientTransform="matrix(0 .63713 -1.77756 0 1.484 .12)">
      <stop offset="0%" stop-color="#24A1C1"/>
      <stop offset="100%" stop-color="#24A1C1" stop-opacity="0"/>
    </radialGradient>
    <ellipse id="community-header-j" cx="667.988" cy="580.554" rx="2" ry="1"/>
    <filter id="community-header-i" width="699.9%" height="1300.6%" x="-299.9%" y="-600.3%" filterUnits="objectBoundingBox">
      <feOffset in="SourceAlpha" result="shadowOffsetOuter1"/>
      <feGaussianBlur in="shadowOffsetOuter1" result="shadowBlurOuter1" stdDeviation="4"/>
      <feColorMatrix in="shadowBlurOuter1" values="0 0 0 0 0.141176471   0 0 0 0 0.631372549   0 0 0 0 0.756862745  0 0 0 1 0"/>
    </filter>
    <ellipse id="community-header-l" cx="1181.33" cy="502.396" rx="2" ry="1"/>
    <filter id="community-header-k" width="699.9%" height="1300.6%" x="-299.9%" y="-600.3%" filterUnits="objectBoundingBox">
      <feOffset in="SourceAlpha" result="shadowOffsetOuter1"/>
      <feGaussianBlur in="shadowOffsetOuter1" result="shadowBlurOuter1" stdDeviation="4"/>
      <feColorMatrix in="shadowBlurOuter1" values="0 0 0 0 0.141176471   0 0 0 0 0.631372549   0 0 0 0 0.756862745  0 0 0 1 0"/>
    </filter>
    <ellipse id="community-header-n" cx="510.988" cy="307.276" rx="2" ry="1"/>
    <filter id="community-header-m" width="699.9%" height="1300.6%" x="-299.9%" y="-600.3%" filterUnits="objectBoundingBox">
      <feOffset in="SourceAlpha" result="shadowOffsetOuter1"/>
      <feGaussianBlur in="shadowOffsetOuter1" result="shadowBlurOuter1" stdDeviation="4"/>
      <feColorMatrix in="shadowBlurOuter1" values="0 0 0 0 0.141176471   0 0 0 0 0.631372549   0 0 0 0 0.756862745  0 0 0 1 0"/>
    </filter>
    <ellipse id="community-header-p" cx="394.835" cy="369.652" rx="2" ry="1"/>
    <filter id="community-header-o" width="699.9%" height="1300.6%" x="-299.9%" y="-600.3%" filterUnits="objectBoundingBox">
      <feOffset in="SourceAlpha" result="shadowOffsetOuter1"/>
      <feGaussianBlur in="shadowOffsetOuter1" result="shadowBlurOuter1" stdDeviation="4"/>
      <feColorMatrix in="shadowBlurOuter1" values="0 0 0 0 0.141176471   0 0 0 0 0.631372549   0 0 0 0 0.756862745  0 0 0 1 0"/>
    </filter>
    <ellipse id="community-header-r" cx="391.39" cy="512.976" rx="2" ry="1"/>
    <filter id="community-header-q" width="699.9%" height="1300.6%" x="-299.9%" y="-600.3%" filterUnits="objectBoundingBox">
      <feOffset in="SourceAlpha" result="shadowOffsetOuter1"/>
      <feGaussianBlur in="shadowOffsetOuter1" result="shadowBlurOuter1" stdDeviation="4"/>
      <feColorMatrix in="shadowBlurOuter1" values="0 0 0 0 0.141176471   0 0 0 0 0.631372549   0 0 0 0 0.756862745  0 0 0 1 0"/>
    </filter>
    <ellipse id="community-header-t" cx="923.265" cy="574.271" rx="2" ry="1"/>
    <filter id="community-header-s" width="699.9%" height="1300.6%" x="-299.9%" y="-600.3%" filterUnits="objectBoundingBox">
      <feOffset in="SourceAlpha" result="shadowOffsetOuter1"/>
      <feGaussianBlur in="shadowOffsetOuter1" result="shadowBlurOuter1" stdDeviation="4"/>
      <feColorMatrix in="shadowBlurOuter1" values="0 0 0 0 0.141176471   0 0 0 0 0.631372549   0 0 0 0 0.756862745  0 0 0 1 0"/>
    </filter>
    <linearGradient id="community-header-u" x1="33.192%" x2="66.808%" y1="19.969%" y2="83.989%">
      <stop offset="0%" stop-color="#8CD9ED"/>
      <stop offset="100%" stop-color="#6CBACE"/>
    </linearGradient>
    <linearGradient id="community-header-v" x1="74.368%" x2="39.561%" y1="67.667%" y2="34.637%">
      <stop offset="0%" stop-color="#004557"/>
      <stop offset="100%" stop-color="#097692"/>
    </linearGradient>
    <linearGradient id="community-header-w" x1="88.697%" x2="10.887%" y1="58.516%" y2="36.724%">
      <stop offset="0%" stop-color="#24A1C1"/>
      <stop offset="100%" stop-color="#7BC6D9"/>
    </linearGradient>
    <linearGradient id="community-header-x" x1="59.764%" x2="59.764%" y1="79.959%" y2="24.103%">
      <stop offset="0%" stop-color="#759EFF" stop-opacity="0"/>
      <stop offset="100%" stop-color="#1E54D5"/>
    </linearGradient>
    <linearGradient id="community-header-y" x1="55.152%" x2="51.673%" y1="78.651%" y2="45.517%">
      <stop offset="0%" stop-color="#00A697" stop-opacity="0"/>
      <stop offset="100%" stop-color="#24A1C1"/>
    </linearGradient>
    <linearGradient id="community-header-z" x1="33.217%" x2="66.783%" y1="19.969%" y2="83.989%">
      <stop offset="0%" stop-color="#8CD9ED"/>
      <stop offset="100%" stop-color="#6CBACE"/>
    </linearGradient>
    <linearGradient id="community-header-A" x1="74.331%" x2="39.577%" y1="67.667%" y2="34.637%">
      <stop offset="0%" stop-color="#004557"/>
      <stop offset="100%" stop-color="#097692"/>
    </linearGradient>
    <linearGradient id="community-header-B" x1="88.697%" x2="10.887%" y1="58.529%" y2="36.704%">
      <stop offset="0%" stop-color="#24A1C1"/>
      <stop offset="100%" stop-color="#7BC6D9"/>
    </linearGradient>
    <linearGradient id="community-header-C" x1="59.764%" x2="59.764%" y1="79.959%" y2="24.103%">
      <stop offset="0%" stop-color="#759EFF" stop-opacity="0"/>
      <stop offset="100%" stop-color="#1E54D5"/>
    </linearGradient>
    <linearGradient id="community-header-D" x1="55.144%" x2="51.67%" y1="78.651%" y2="45.517%">
      <stop offset="0%" stop-color="#00A697" stop-opacity="0"/>
      <stop offset="100%" stop-color="#24A1C1"/>
    </linearGradient>
    <linearGradient id="community-header-E" x1="33.304%" x2="66.696%" y1="19.969%" y2="83.989%">
      <stop offset="0%" stop-color="#8CD9ED"/>
      <stop offset="100%" stop-color="#6CBACE"/>
    </linearGradient>
    <linearGradient id="community-header-F" x1="74.205%" x2="39.631%" y1="67.667%" y2="34.637%">
      <stop offset="0%" stop-color="#004557"/>
      <stop offset="100%" stop-color="#097692"/>
    </linearGradient>
    <linearGradient id="community-header-G" x1="88.697%" x2="10.887%" y1="58.573%" y2="36.635%">
      <stop offset="0%" stop-color="#24A1C1"/>
      <stop offset="100%" stop-color="#7BC6D9"/>
    </linearGradient>
    <linearGradient id="community-header-H" x1="59.764%" x2="59.764%" y1="79.959%" y2="24.103%">
      <stop offset="0%" stop-color="#759EFF" stop-opacity="0"/>
      <stop offset="100%" stop-color="#1E54D5"/>
    </linearGradient>
    <linearGradient id="community-header-I" x1="55.118%" x2="51.661%" y1="78.651%" y2="45.517%">
      <stop offset="0%" stop-color="#00A697" stop-opacity="0"/>
      <stop offset="100%" stop-color="#24A1C1"/>
    </linearGradient>
    <linearGradient id="community-header-J" x1="33.232%" x2="66.768%" y1="19.969%" y2="83.989%">
      <stop offset="0%" stop-color="#8CD9ED"/>
      <stop offset="100%" stop-color="#6CBACE"/>
    </linearGradient>
    <linearGradient id="community-header-K" x1="74.31%" x2="39.586%" y1="67.667%" y2="34.637%">
      <stop offset="0%" stop-color="#004557"/>
      <stop offset="100%" stop-color="#097692"/>
    </linearGradient>
    <linearGradient id="community-header-L" x1="59.764%" x2="59.764%" y1="79.959%" y2="24.103%">
      <stop offset="0%" stop-color="#759EFF" stop-opacity="0"/>
      <stop offset="100%" stop-color="#1E54D5"/>
    </linearGradient>
    <linearGradient id="community-header-M" x1="55.14%" x2="51.669%" y1="78.651%" y2="45.517%">
      <stop offset="0%" stop-color="#00A697" stop-opacity="0"/>
      <stop offset="100%" stop-color="#24A1C1"/>
    </linearGradient>
    <linearGradient id="community-header-N" x1="88.697%" x2="10.887%" y1="58.536%" y2="36.692%">
      <stop offset="0%" stop-color="#24A1C1"/>
      <stop offset="100%" stop-color="#7BC6D9"/>
    </linearGradient>
  </defs>
  <g fill="none" fill-rule="evenodd">
    <mask id="community-header-c" fill="#fff">
      <use xlink:href="#community-header-a"/>
    </mask>
    <use fill="url(#community-header-b)" xlink:href="#community-header-a"/>
    <g mask="url(#community-header-c)">
      <g transform="translate(-272 -293)">
        <path stroke="url(#community-header-d)" d="M377,699.925889 L468.466638,647.16511 C470.940491,645.738115 473.987444,645.738125 476.461288,647.165138 L723.689848,789.776565 L723.689848,789.776565 L813.147325,738.174138 C815.060921,737.070305 815.717362,734.624196 814.613529,732.7106 C814.262171,732.10149 813.756449,731.595766 813.14734,731.244406 L609.798587,613.944059 L609.798587,613.944059 L703.262591,560.030409 C704.499523,559.316898 706.023012,559.316901 707.259942,560.030414 L912.617959,678.489651 C913.854895,679.203168 915.378392,679.203167 916.615326,678.489647 L1004.07415,628.039465 C1005.98774,626.935621 1006.64416,624.489508 1005.54032,622.575919 C1005.18896,621.966811 1004.68324,621.461091 1004.07413,621.109734 L887.471112,553.848801 C886.514315,553.296885 886.186093,552.07383 886.73801,551.117033 C886.913686,550.812481 887.166542,550.559622 887.471091,550.383942 L973.923957,500.513291 C975.837539,499.409434 976.493951,496.963317 975.390094,495.049735 C975.038734,494.440637 974.533016,493.934926 973.923914,493.583573 L857.320917,426.32265 C856.364119,425.770734 856.035898,424.547679 856.587814,423.590881 C856.763496,423.28632 857.016363,423.033454 857.320926,422.857773 L945.784356,371.829413 C948.258203,370.402424 951.305144,370.402432 953.778984,371.829434 L1200.00822,513.863568 C1200.62668,514.220321 1201.38842,514.22032 1202.00689,513.863567 L1296.47023,459.373456 L1296.47023,459.373456 L1212.72923,411.067996 L1308.19191,356"/>
        <path stroke="url(#community-header-e)" d="M588.478787,169.417571 L618.137526,152.306491 C620.611644,150.879092 623.65911,150.879101 626.13322,152.306514 L715.62104,203.935619 C717.534551,205.0396 718.190804,207.48576 717.086823,209.39927 C716.73552,210.008178 716.229948,210.51375 715.62104,210.865053 L593.005357,281.606941 C591.091846,282.710922 590.435593,285.157081 591.539573,287.070592 C591.890879,287.679504 592.396455,288.185078 593.005368,288.536382 L682.492109,340.164465 C684.966216,341.591865 688.01367,341.591869 690.48778,340.164475 L753.803129,303.635815 L753.803129,303.635815 L853.294122,361.036151 L724.673143,435.24173 C722.759626,436.345699 722.103358,438.791855 723.207328,440.705372 C723.558631,441.314289 724.064208,441.819868 724.673123,442.171176 L814.160875,493.800242 C816.634999,495.227663 819.682485,495.227663 822.15661,493.800242 L948.787248,420.741967 C951.261373,419.314545 954.308859,419.314545 956.782983,420.741967 L1049.27342,474.103403 C1050.23018,474.655394 1050.5583,475.878473 1050.00631,476.835229 C1049.83066,477.139686 1049.57787,477.392474 1049.27341,477.568126 L1021.6222,493.521001 C1020.66544,494.072986 1020.3373,495.296064 1020.88929,496.252822 C1021.06494,496.557278 1021.31773,496.810066 1021.62218,496.985719 L1106.09887,545.724219 C1109.92588,547.932198 1111.23837,552.824523 1109.03039,556.651534 C1108.32778,557.869339 1107.31664,558.880473 1106.09883,559.583073 L949.826491,649.742586 L949.826491,649.742586 L850.336549,592.342565" opacity=".483"/>
        <path stroke="url(#community-header-f)" d="M0,666.24845 L78.0898929,621.211133 C80.5634895,619.784518 83.6099499,619.784524 86.0835412,621.211147 L277.825313,731.796643 L277.825313,731.796643 L359.912035,684.453909 L91.8855614,529.871159 C89.971889,528.767459 89.3152765,526.321396 90.4189762,524.407724 C90.7703867,523.798423 91.2762498,523.292558 91.8855489,522.941146 L163.966081,481.36876 C166.439689,479.942109 169.486183,479.942102 171.959798,481.368741 L361.704588,590.802671 C362.941396,591.515991 364.464643,591.515987 365.701447,590.802662 L439.780428,548.077673 C441.694096,546.973966 442.3507,544.5279 441.246993,542.614232 C440.895582,542.004937 440.389722,541.499076 439.780426,541.147666 L295.206147,457.764661 C293.292478,456.660955 292.635873,454.21489 293.739579,452.301221 C294.090994,451.691916 294.596865,451.186049 295.206172,450.834638 L365.277054,410.422053 C367.190731,409.318361 367.847354,406.872301 366.743662,404.958624 C366.392248,404.34931 365.886374,403.843435 365.277061,403.492019 L338.144331,387.843446 C336.230656,386.739751 335.574039,384.293689 336.677734,382.380014 C337.029153,381.770697 337.535032,381.264821 338.14435,380.913406 L412.287448,338.152552 C413.524244,337.439249 415.04747,337.439253 416.284263,338.152562 L727.467306,517.624588 L727.467306,517.624588"/>
        <path stroke="url(#community-header-g)" d="M125,329.24845 L203.089893,284.211133 C205.56349,282.784518 208.60995,282.784524 211.083541,284.211147 L402.825313,394.796643 L402.825313,394.796643 L484.912035,347.453909 L216.885561,192.871159 C214.971889,191.767459 214.315276,189.321396 215.418976,187.407724 C215.770387,186.798423 216.27625,186.292558 216.885549,185.941146 L288.966081,144.36876 C291.439689,142.942109 294.486183,142.942102 296.959798,144.368741 L488.70302,254.955252 L488.70302,254.955252 L564.780428,211.077673 C566.694096,209.973966 567.3507,207.5279 566.246993,205.614232 C565.895582,205.004937 565.389722,204.499076 564.780426,204.147666 L420.206147,120.764661 C418.292478,119.660955 417.635873,117.21489 418.739579,115.301221 C419.090994,114.691916 419.596865,114.186049 420.206172,113.834638 L490.277054,73.4220529 C492.190731,72.3183614 492.847354,69.8723008 491.743662,67.9586237 C491.392248,67.3493101 490.886374,66.8434355 490.277061,66.4920195 L463.144331,50.8434463 C461.230656,49.7397506 460.574039,47.2936886 461.677734,45.3800139 C462.029153,44.770697 462.535032,44.264821 463.14435,43.9134061 L537.287448,1.15255155 C538.524244,0.439248796 540.04747,0.439252735 541.284263,1.15256189 L852.467306,180.624588 L852.467306,180.624588" transform="rotate(180 488.734 197.398)"/>
        <path stroke="url(#community-header-h)" d="M1250.1789,610.340095 L1128.81019,540.179329 C1126.89763,539.073713 1126.24346,536.626994 1127.34908,534.714427 C1127.69974,534.107839 1128.20357,533.603997 1128.81016,533.253335 L1256.34554,459.525953 L1256.34554,459.525953 L1071.29662,352.552123 C1069.38406,351.446501 1068.7299,348.999779 1069.83552,347.087217 C1070.18618,346.48063 1070.69002,345.976791 1071.29661,345.62613 L1132.06847,310.494543 L1132.06847,310.494543"/>
        <use fill="#000" filter="url(#community-header-i)" xlink:href="#community-header-j"/>
        <use fill="#24A1C1" xlink:href="#community-header-j"/>
        <use fill="#000" filter="url(#community-header-k)" xlink:href="#community-header-l"/>
        <use fill="#24A1C1" xlink:href="#community-header-l"/>
        <use fill="#000" filter="url(#community-header-m)" xlink:href="#community-header-n"/>
        <use fill="#24A1C1" xlink:href="#community-header-n"/>
        <use fill="#000" filter="url(#community-header-o)" xlink:href="#community-header-p"/>
        <use fill="#24A1C1" xlink:href="#community-header-p"/>
        <use fill="#000" filter="url(#community-header-q)" xlink:href="#community-header-r"/>
        <use fill="#24A1C1" xlink:href="#community-header-r"/>
        <use fill="#000" filter="url(#community-header-s)" xlink:href="#community-header-t"/>
        <use fill="#24A1C1" xlink:href="#community-header-t"/>
        <polygon fill="url(#community-header-u)" points="1359.31 561.691 1271.587 511.632 1271.587 613.299 1359.31 662.931" opacity=".451"/>
        <polygon fill="url(#community-header-v)" points="1446.688 511.809 1359.31 561.698 1359.31 662.931 1446.688 613.586" opacity=".432"/>
        <polygon fill="url(#community-header-w)" points="1358.986 460.576 1271.587 511.632 1359.289 562.865 1446.688 511.809" opacity=".321"/>
        <polygon fill="url(#community-header-x)" points="1359.31 561.691 1271.587 511.632 1271.587 709.096 1359.31 758.728" opacity=".187"/>
        <polygon fill="url(#community-header-y)" points="1446.688 511.809 1359.31 561.698 1359.31 743.99 1446.688 694.644" opacity=".231"/>
        <polygon fill="url(#community-header-u)" points="1447.18 611.8 1359.457 561.741 1359.457 663.408 1447.18 713.04" opacity=".451"/>
        <polygon fill="url(#community-header-v)" points="1534.559 561.918 1447.18 611.807 1447.18 713.04 1534.559 663.695" opacity=".432"/>
        <polygon fill="url(#community-header-w)" points="1446.856 510.685 1359.457 561.741 1447.16 612.974 1534.559 561.918" opacity=".321"/>
        <polygon fill="url(#community-header-x)" points="1447.18 611.8 1359.457 561.741 1359.457 759.204 1447.18 808.837" opacity=".187"/>
        <polygon fill="url(#community-header-y)" points="1534.559 561.918 1447.18 611.807 1447.18 794.099 1534.559 744.753" opacity=".231"/>
        <polygon fill="url(#community-header-w)" points="1534.727 560.794 1447.328 611.85 1535.03 663.082 1622.429 612.027" opacity=".321"/>
        <polygon fill="url(#community-header-z)" points="1447.273 510.725 1359.587 460.649 1359.587 562.351 1447.273 612" opacity=".451"/>
        <polygon fill="url(#community-header-A)" points="1534.615 460.827 1447.273 510.732 1447.273 612 1534.615 562.638" opacity=".432"/>
        <polygon fill="url(#community-header-B)" points="1446.949 409.577 1359.587 460.649 1447.252 511.899 1534.615 460.827" opacity=".321"/>
        <polygon fill="url(#community-header-C)" points="1447.273 510.725 1359.587 460.649 1359.587 658.18 1447.273 707.828" opacity=".187"/>
        <polygon fill="url(#community-header-D)" points="1534.615 460.827 1447.273 510.732 1447.273 693.086 1534.615 643.724" opacity=".231"/>
        <polygon fill="url(#community-header-z)" points="1621.94 610.977 1534.254 560.901 1534.254 662.602 1621.94 712.251" opacity=".451"/>
        <polygon fill="url(#community-header-A)" points="1709.282 561.078 1621.94 610.984 1621.94 712.251 1709.282 662.889" opacity=".432"/>
        <polygon fill="url(#community-header-B)" points="1621.616 509.828 1534.254 560.901 1621.919 612.151 1709.282 561.078" opacity=".321"/>
        <polygon fill="url(#community-header-C)" points="1622.94 610.977 1535.254 560.901 1535.254 758.431 1622.94 808.08" opacity=".187"/>
        <polygon fill="url(#community-header-D)" points="1709.282 561.078 1621.94 610.984 1621.94 793.337 1709.282 743.975" opacity=".231"/>
        <polygon fill="url(#community-header-E)" points="1272.167 309.867 1184.586 259.721 1184.586 361.564 1272.167 411.283" opacity=".451"/>
        <polygon fill="url(#community-header-F)" points="1359.405 259.899 1272.167 309.874 1272.167 411.283 1359.405 361.852" opacity=".432"/>
        <polygon fill="url(#community-header-G)" points="1271.844 208.577 1184.586 259.721 1272.147 311.043 1359.405 259.899" opacity=".321"/>
        <polygon fill="url(#community-header-H)" points="1272.167 309.867 1184.586 259.721 1184.586 457.527 1272.167 507.245" opacity=".187"/>
        <polygon fill="url(#community-header-I)" points="1359.405 259.899 1272.167 309.874 1272.167 492.482 1359.405 443.051" opacity=".231"/>
        <polygon fill="url(#community-header-E)" points="1359.896 360.062 1272.315 309.917 1272.315 411.76 1359.896 461.478" opacity=".451"/>
        <polygon fill="url(#community-header-F)" points="1447.133 310.094 1359.896 360.07 1359.896 461.478 1447.133 412.047" opacity=".432"/>
        <polygon fill="url(#community-header-G)" points="1359.573 258.773 1272.315 309.917 1359.875 361.238 1447.133 310.094" opacity=".321"/>
        <polygon fill="url(#community-header-H)" points="1359.896 360.062 1272.315 309.917 1272.315 507.723 1359.896 557.441" opacity=".187"/>
        <polygon fill="url(#community-header-I)" points="1447.133 310.094 1359.896 360.07 1359.896 542.677 1447.133 493.246" opacity=".231"/>
        <polygon fill="url(#community-header-E)" points="1447.624 410.258 1360.043 360.112 1360.043 461.956 1447.624 511.674" opacity=".451"/>
        <polygon fill="url(#community-header-F)" points="1534.862 360.29 1447.624 410.265 1447.624 511.674 1534.862 462.243" opacity=".432"/>
        <polygon fill="url(#community-header-G)" points="1447.301 308.968 1360.043 360.112 1447.604 411.434 1534.862 360.29" opacity=".321"/>
        <polygon fill="url(#community-header-H)" points="1447.624 410.258 1360.043 360.112 1360.043 557.918 1447.624 607.636" opacity=".187"/>
        <polygon fill="url(#community-header-I)" points="1534.862 360.29 1447.624 410.265 1447.624 592.873 1534.862 543.442" opacity=".231"/>
        <polygon fill="url(#community-header-E)" points="1622.082 510.65 1534.5 460.504 1534.5 562.347 1622.082 612.065" opacity=".451"/>
        <polygon fill="url(#community-header-F)" points="1709.319 460.681 1622.082 510.657 1622.082 612.065 1709.319 562.635" opacity=".432"/>
        <polygon fill="url(#community-header-G)" points="1621.758 409.36 1534.5 460.504 1622.061 511.825 1709.319 460.681" opacity=".321"/>
        <polygon fill="url(#community-header-H)" points="1621.082 510.65 1533.5 460.504 1533.5 658.31 1621.082 708.028" opacity=".187"/>
        <polygon fill="url(#community-header-I)" points="1709.319 460.681 1622.082 510.657 1622.082 693.264 1709.319 643.834" opacity=".231"/>
        <polygon fill="url(#community-header-J)" points="1273.204 208.691 1185.586 158.632 1185.586 260.299 1273.204 309.931" opacity=".451"/>
        <polygon fill="url(#community-header-K)" points="1360.479 158.809 1273.204 208.698 1273.204 309.931 1360.479 260.586" opacity=".432"/>
        <polygon fill="url(#community-header-L)" points="1273.204 208.691 1185.586 158.632 1185.586 356.096 1273.204 405.728" opacity=".187"/>
        <polygon fill="url(#community-header-M)" points="1360.479 158.809 1273.204 208.698 1273.204 390.99 1360.479 341.644" opacity=".231"/>
        <polygon fill="url(#community-header-J)" points="1447.331 308.909 1359.713 258.85 1359.713 360.517 1447.331 410.149" opacity=".451"/>
        <polygon fill="url(#community-header-K)" points="1534.605 259.027 1447.331 308.916 1447.331 410.149 1534.605 360.804" opacity=".432"/>
        <polygon fill="url(#community-header-N)" points="1447.008 207.794 1359.713 258.85 1447.31 310.082 1534.605 259.027" opacity=".321"/>
        <polygon fill="url(#community-header-L)" points="1447.331 308.909 1359.713 258.85 1359.713 456.313 1447.331 505.945" opacity=".187"/>
        <polygon fill="url(#community-header-M)" points="1534.605 259.027 1447.331 308.916 1447.331 491.207 1534.605 441.862" opacity=".231"/>
        <polygon fill="url(#community-header-J)" points="1535.097 359.018 1447.478 308.958 1447.478 410.626 1535.097 460.258" opacity=".451"/>
        <polygon fill="url(#community-header-K)" points="1622.371 309.136 1535.097 359.025 1535.097 460.258 1622.371 410.913" opacity=".432"/>
        <polygon fill="url(#community-header-N)" points="1534.773 257.903 1447.478 308.958 1535.076 360.191 1622.371 309.136" opacity=".321"/>
        <polygon fill="url(#community-header-L)" points="1535.097 359.018 1447.478 308.958 1447.478 506.422 1535.097 556.054" opacity=".187"/>
        <polygon fill="url(#community-header-M)" points="1622.371 309.136 1535.097 359.025 1535.097 541.316 1622.371 491.971" opacity=".231"/>
      </g>
    </g>
  </g>
</svg>
