<svg xmlns="http://www.w3.org/2000/svg" width="391" height="108" viewBox="0 0 391 108">
  <g fill="none">
    <path fill="#1F0323" d="M83.227895,30.8571429 C99.8121341,30.8571429 108.104129,40.7039832 108.104129,60.3979592 L108.104129,101.877551 C108.104129,103.816336 107.541093,105.321423 106.415002,106.392857 C105.288912,107.464291 103.804542,108 101.961849,108 C100.119156,108 98.6091939,107.464291 97.4319176,106.392857 C96.2546414,105.321423 95.6660121,103.816336 95.6660121,101.877551 L95.6660121,60.7040816 C95.6660121,53.8673128 94.4375684,48.9183827 91.9806441,45.8571429 C89.5237198,42.7959031 85.6848331,41.2653061 80.4638689,41.2653061 C74.2191863,41.2653061 69.3054114,43.3571219 65.7223968,47.5408163 C62.1393821,51.7245107 60.3479017,57.3877194 60.3479017,64.5306122 L60.3479017,101.877551 C60.3479017,103.816336 59.7592724,105.321423 58.5819962,106.392857 C57.40472,107.464291 55.8947579,108 54.0520646,108 C52.2093714,108 50.7250019,107.464291 49.5989116,106.392857 C48.4728213,105.321423 47.9097846,103.816336 47.9097846,101.877551 L47.9097846,60.7040816 C47.9097846,53.8673128 46.6813408,48.9183827 44.2244165,45.8571429 C41.7674922,42.7959031 37.8774204,41.2653061 32.5540844,41.2653061 C26.4117736,41.2653061 21.5235913,43.3571219 17.8893907,47.5408163 C14.2551902,51.7245107 12.4381171,57.3877194 12.4381171,64.5306122 L12.4381171,101.877551 C12.4381171,103.816336 11.8750804,105.321423 10.7489901,106.392857 C9.62289982,107.464291 8.13853031,108 6.29583707,108 C4.45314384,108 2.94318175,107.464291 1.76590552,106.392857 C0.588629287,105.321423 0,103.816336 0,101.877551 L0,37.2857143 C0,35.4489704 0.588629287,33.9693934 1.76590552,32.8469388 C2.94318175,31.7244842 4.45314384,31.1632653 6.29583707,31.1632653 C8.03615846,31.1632653 9.46934281,31.6989742 10.5954331,32.7704082 C11.7215234,33.8418421 12.2845601,35.2959092 12.2845601,37.1326531 L12.2845601,44.4795918 C14.5367408,40.0918148 17.6590352,36.7245015 21.6515373,34.377551 C25.6440393,32.0306005 30.2507032,30.8571429 35.4716674,30.8571429 C47.1420579,30.8571429 54.7686461,35.7550531 58.3516607,45.5510204 C60.5014695,41.061202 63.7773194,37.4898092 68.1793088,34.8367347 C72.5812982,32.1836602 77.5974434,30.8571429 83.227895,30.8571429 Z M284.376004,108 C279.703404,108 275.259421,107.440999 271.043923,106.322981 C266.828425,105.204963 263.09548,103.629598 259.844975,101.596838 C258.016566,100.377182 256.721459,99.2337716 255.959626,98.1665726 C255.197789,97.0993735 254.816876,95.8035085 254.816876,94.2789385 C254.816876,92.9576444 255.197789,91.8650523 255.959626,91.0011293 C256.721459,90.1372063 257.711836,89.7052513 258.930775,89.7052513 C260.149715,89.7052513 261.927308,90.4675248 264.263608,91.9920949 C267.310956,93.8215789 270.332864,95.2698987 273.329423,96.3370977 C276.325981,97.4042967 280.058927,97.9378882 284.52837,97.9378882 C290.013597,97.9378882 294.27982,96.9723417 297.327168,95.0412196 C300.374516,93.1100976 301.898167,90.3150945 301.898167,86.6561265 C301.898167,84.4200905 301.339495,82.616043 300.222134,81.24393 C299.104773,79.871817 297.174815,78.6521792 294.432202,77.5849802 C291.689589,76.5177812 287.677307,75.4251891 282.395237,74.3071711 C273.45635,72.3760491 267.057015,69.7843189 263.197041,66.5319029 C259.337067,63.2794868 257.407109,58.8583001 257.407109,53.2682101 C257.407109,48.897776 258.626042,45.0355899 261.063908,41.6815359 C263.501787,38.3274818 266.879213,35.6849334 271.19629,33.7538114 C275.513366,31.8226894 280.414444,30.8571429 285.89967,30.8571429 C289.861223,30.8571429 293.695745,31.3907344 297.403351,32.4579334 C301.110958,33.5251324 304.386808,35.0242704 307.230999,36.9553924 C310.68466,39.3947045 312.411465,41.9356164 312.411465,44.5782044 C312.411465,45.8994984 312.005158,47.0174997 311.192532,47.9322417 C310.379906,48.8469837 309.414927,49.3043478 308.297566,49.3043478 C307.078627,49.3043478 305.250245,48.4404378 302.812367,46.7125918 C299.968175,44.8831077 297.276392,43.4601971 294.736935,42.4438171 C292.197478,41.427437 289.048599,40.9192547 285.290204,40.9192547 C280.516025,40.9192547 276.681503,41.9864377 273.786522,44.1208357 C270.891542,46.2552337 269.444073,49.1010551 269.444073,52.6583851 C269.444073,54.8944211 269.977351,56.6984686 271.043923,58.0705816 C272.110495,59.4426877 273.888088,60.6623323 276.376755,61.7295313 C278.865423,62.7967304 282.446003,63.8385042 287.118603,64.8548842 C294.025925,66.3794543 299.384099,68.0564561 303.193284,69.8859401 C307.002468,71.7154242 309.719646,73.9514267 311.344899,76.5940147 C312.970151,79.2366027 313.782765,82.5906064 313.782765,86.6561265 C313.782765,93.0593206 311.090981,98.2173717 305.707333,102.130435 C300.323685,106.043498 293.213313,108 284.376004,108 Z M364.826366,31.8713287 C373.450671,31.8713287 379.968944,34.3132623 384.38138,39.1972028 C388.793815,44.0811433 391,51.356595 391,61.0237762 L391,101.958042 C391,103.871338 390.448454,105.356638 389.345345,106.413986 C388.242236,107.471334 386.78816,108 384.983073,108 C383.077703,108 381.573486,107.471334 380.470377,106.413986 C379.367268,105.356638 378.815722,103.871338 378.815722,101.958042 L378.815722,61.3258741 C378.815722,54.7803869 377.486997,49.9468688 374.829508,46.8251748 C372.172018,43.7034809 367.935141,42.1426573 362.118748,42.1426573 C355.399813,42.1426573 350.034773,44.2069724 346.023468,48.3356643 C342.012163,52.4643563 340.00654,58.0531116 340.00654,65.1020979 L340.00654,101.958042 C340.00654,103.871338 339.480064,105.356638 338.427097,106.413986 C337.374129,107.471334 335.894983,108 333.989613,108 C332.084243,108 330.580026,107.471334 329.476917,106.413986 C328.373808,105.356638 327.822262,103.871338 327.822262,101.958042 L327.822262,5.89090909 C327.822262,4.17901242 328.398879,2.76923631 329.552129,1.66153846 C330.705379,0.553840615 332.184525,0 333.989613,0 C335.894983,0 337.374129,0.528666042 338.427097,1.58601399 C339.480064,2.64336193 340.00654,4.07831262 340.00654,5.89090909 L340.00654,45.4657343 C342.413323,41.0349429 345.772741,37.66155 350.084894,35.3454545 C354.397046,33.029359 359.310821,31.8713287 364.826366,31.8713287 Z"/>
    <path fill="#9D0FB0" d="M150.411161,107.964876 C141.493751,107.19823 134.679641,104.515864 129.723475,99.8211191 C124.680989,95.0444473 122.517329,88.8169628 123.371218,81.5376384 C124.353829,73.1608104 128.345666,67.2452778 135.344394,63.7942179 C140.738469,61.1343814 146.11962,60.1226121 154.883033,60.1205377 C161.109387,60.1179118 166.326701,60.6263567 174.284077,62.0069277 C176.251699,62.3483155 177.955216,62.6277855 178.069675,62.6280219 C178.236121,62.6280219 178.368126,62.0035403 178.729157,59.5067959 C179.382374,54.9894276 179.499451,53.4306658 179.321489,51.6211084 C179.114347,49.514724 178.844008,48.5114362 178.043783,46.8790192 C175.979128,42.6673532 171.077978,40.0904938 163.207594,39.0787245 C160.956733,38.7893813 155.761885,38.7488905 153.507072,39.0029948 C149.729368,39.4289089 147.621276,39.971595 142.919829,41.7282676 C140.169239,42.7560547 140.156669,42.759232 139.059488,42.6950035 C137.173321,42.5847962 135.885698,41.7332043 135.059823,40.0498718 C134.719699,39.3566716 134.659894,39.0705056 134.659881,38.1364617 C134.659881,36.7342799 135.026076,35.9899017 136.301183,34.8004406 C139.160584,32.1330154 143.972327,29.8614382 148.828808,28.8861159 C151.938456,28.2616343 153.469196,28.1303414 157.566155,28.1366172 C161.805459,28.1476458 164.516177,28.3818199 168.283514,29.0804031 C174.549724,30.2422139 179.307741,32.2900942 182.895563,35.3693589 C183.960129,36.2829999 185.565391,38.0812399 186.253237,39.130559 C186.463473,39.4513075 186.68005,39.713762 186.734504,39.713762 C186.788993,39.713762 187.136768,39.3283648 187.507397,38.8574435 C192.94014,31.9539844 202.090148,28.0464715 212.810108,28.0519538 C220.392316,28.0519538 227.440039,29.9686783 232.693589,33.4488327 C236.860528,36.2092133 240.245647,40.4615276 241.61314,44.6534208 C242.398329,47.0602559 242.517692,47.9496339 242.525141,51.445491 C242.529146,53.6206992 242.469215,55.0878972 242.347562,55.7677056 C241.118074,62.6385516 238.189523,67.3985229 233.106367,70.7879277 C229.017029,73.5146185 223.881183,75.110116 217.164134,75.7403219 C213.782833,76.0575518 207.598413,76.0275908 203.59203,75.6744391 C200.191849,75.3748025 196.016645,74.8475565 194.235505,74.4930132 C192.744621,74.1961862 187.639215,73.3461172 187.597178,73.3877371 C187.578667,73.4063807 187.335743,74.9289056 187.057415,76.7719427 C186.613022,79.7146628 186.550071,80.4489315 186.540747,82.7985753 C186.530846,85.1875021 186.56484,85.6066152 186.853872,86.7091342 C187.783305,90.2543837 189.831527,92.6258747 193.547522,94.4592486 C197.203053,96.2627929 201.035214,97.0432503 206.825546,97.1635671 C209.389072,97.2173447 210.7019,97.1798475 212.305695,97.0105584 C216.193621,96.5994541 217.965281,96.1484105 223.130672,94.2547731 C224.417194,93.783064 225.730153,93.3538675 226.048374,93.3009565 C226.730317,93.1875719 228.002146,93.4217197 228.743388,93.7972436 C230.08131,94.4748462 231.205391,96.2820141 231.198387,97.7439343 C231.19075,99.4518447 230.612977,100.486328 228.917362,101.83166 C224.863098,105.048388 219.686569,107.021064 213.507218,107.704286 C211.303741,107.947965 206.272854,107.983861 203.842812,107.773425 C196.999411,107.18069 192.248176,106.01347 187.906085,103.858559 C184.518064,102.177118 181.933107,100.091136 180.002458,97.4804819 C179.528071,96.8389849 179.125114,96.2981369 179.106993,96.2783642 C179.088824,96.2586703 178.773539,96.6292051 178.406233,97.1016494 C176.782655,99.1901517 174.299863,101.434971 171.873569,103.008175 C168.370849,105.279332 163.342329,107.011952 158.254138,107.700977 C156.736717,107.906372 151.702154,108.075845 150.411161,107.964876 L150.411161,107.964876 Z M159.148511,98.1882557 C163.302712,97.2701507 167.004717,95.2007646 169.6922,92.2945965 C172.143665,89.6437404 174.154374,85.6724717 175.260963,81.2961382 C175.884736,78.8291448 176.921595,71.9631041 176.691755,71.8215179 C176.60105,71.7655346 176.053086,71.6771745 175.474206,71.6249199 C174.895311,71.5722189 173.245227,71.3783781 171.807349,71.1929663 C163.26654,70.0914189 158.02686,69.6634303 155.08943,69.8276515 C149.504899,70.1396034 147.228281,70.625781 143.875352,72.2226177 C142.157645,73.0406249 140.972085,73.9283487 140.034033,75.0987198 C138.688233,76.7779822 137.875921,78.4467148 137.309707,80.6952632 C136.897666,82.3314877 136.855619,86.6158112 137.238047,87.9961984 C137.882262,90.3214481 138.647007,91.6375018 140.366649,93.3800998 C142.721382,95.7661906 145.825516,97.3579594 149.675893,98.1539094 C151.64474,98.5609437 151.586473,98.5569786 154.883033,98.5074812 C157.275025,98.4712706 158.169974,98.404285 159.148511,98.1882557 L159.148511,98.1882557 Z M213.567728,65.9947918 C217.042034,65.6890894 219.178311,65.1512087 221.803072,63.9215457 C223.986062,62.8987215 225.254863,61.8533675 226.455544,60.0883709 C228.223228,57.4897694 228.911569,55.030601 228.894232,51.3768774 C228.881261,48.7726828 228.659942,47.6893589 227.758418,45.8197481 C225.744109,41.6425334 221.012221,38.6504209 214.806116,37.6296449 C213.257486,37.3749892 209.100901,37.4202064 207.513524,37.7087095 C204.459739,38.264341 201.878392,39.2771081 199.601749,40.8126573 C195.395592,43.6496866 192.492767,47.9262375 190.876309,53.6672294 C190.241377,55.9222373 190.072121,56.7877989 189.506031,60.6748563 L188.983846,64.2605177 L189.683331,64.3373503 C191.795958,64.5709466 196.559874,65.146167 199.326558,65.5018132 C201.067147,65.7255363 203.203332,65.9642793 204.073629,66.0324466 C206.589576,66.2293859 211.100406,66.2110574 213.567728,65.9940303 L213.567728,65.9940303 L213.567728,65.9947918 Z"/>
  </g>
</svg>
