<svg xmlns="http://www.w3.org/2000/svg" width="127" height="49" viewBox="0 0 127 49">
    <defs>
        <filter id="0s4mn3vqba">
            <feColorMatrix in="SourceGraphic" values="0 0 0 0 0.000000 0 0 0 0 0.000000 0 0 0 0 0.000000 0 0 0 1.000000 0"/>
        </filter>
        <filter id="5j5q96osxb">
            <feColorMatrix in="SourceGraphic" values="0 0 0 0 0.858824 0 0 0 0 0.490196 0 0 0 0 0.066667 0 0 0 1.000000 0"/>
        </filter>
    </defs>
    <g fill="none" fill-rule="evenodd">
        <g>
            <g>
                <g filter="url(#0s4mn3vqba)" transform="translate(-108 -81) translate(108 81.5)">
                    <g>
                        <path fill="#000" fill-rule="nonzero" d="M7.904 31.7c1.009 0 1.899.249 2.67.745.773.496 1.371 1.193 1.797 2.091.425.898.638 1.946.638 3.143 0 1.182-.213 2.218-.638 3.108-.426.89-1.024 1.579-1.796 2.067-.772.489-1.662.733-2.67.733-.961 0-1.785-.213-2.47-.638-.685-.425-1.201-1.04-1.548-1.843v6.144l-.005.099c-.014.126-.055.227-.125.302-.086.095-.208.142-.366.142-.33 0-.496-.18-.496-.543V32.268l.005-.09c.014-.117.055-.213.125-.288.086-.095.208-.142.366-.142s.28.047.366.142c.087.094.13.22.13.378v1.867l.11-.231c.342-.676.821-1.201 1.438-1.577.685-.418 1.509-.626 2.47-.626zm22.686 0c1.008 0 1.898.245 2.67.733.772.489 1.37 1.182 1.796 2.08.426.898.638 1.937.638 3.119 0 1.197-.212 2.245-.638 3.143-.425.898-1.024 1.591-1.796 2.08-.772.488-1.662.732-2.67.732s-1.898-.244-2.67-.733c-.772-.488-1.37-1.181-1.796-2.08-.426-.897-.638-1.945-.638-3.142 0-1.182.212-2.221.638-3.12.425-.897 1.024-1.59 1.796-2.079.772-.488 1.662-.732 2.67-.732zm9.31-3.402c.142 0 .26.047.355.142.095.094.142.228.142.401v3.143h3.143l.08.008c.076.017.144.057.203.122.079.087.118.193.118.32 0 .11-.035.204-.106.283-.07.079-.17.118-.295.118h-3.143v6.64l.004.262c.032.935.24 1.612.622 2.03.417.457 1.067.725 1.95.804l.638.047.109.015c.274.053.41.206.41.458 0 .346-.228.496-.685.449l-.614-.048-.267-.023c-1.046-.112-1.824-.463-2.333-1.052-.551-.638-.827-1.626-.827-2.965v-6.617h-1.961l-.08-.007c-.077-.015-.145-.052-.204-.111-.078-.079-.118-.173-.118-.284 0-.126.04-.232.118-.319.08-.086.174-.13.284-.13h1.961v-3.143l.006-.099c.015-.126.06-.227.136-.302.095-.095.213-.142.355-.142zm-23.158 3.45c.158 0 .28.047.367.142.086.094.13.22.13.378v10.728l-.006.1c-.013.125-.055.226-.124.302-.087.094-.21.142-.367.142s-.28-.048-.366-.142c-.087-.095-.13-.229-.13-.402V32.268l.005-.09c.014-.117.056-.213.125-.288.087-.095.209-.142.366-.142zm5.01-5.104c.142 0 .26.05.355.153.094.103.141.233.141.39v15.81l-.005.09c-.015.118-.06.217-.136.3-.095.101-.213.153-.355.153-.157 0-.28-.048-.366-.142-.087-.095-.13-.229-.13-.402V27.187l.005-.099c.014-.126.056-.227.125-.303.086-.094.209-.141.366-.141zM7.904 32.67c-1.291 0-2.284.429-2.977 1.287-.693.859-1.04 2.084-1.04 3.675 0 1.591.347 2.82 1.04 3.686.693.867 1.678 1.3 2.954 1.3 1.276 0 2.268-.43 2.977-1.288.71-.858 1.064-2.075 1.064-3.65 0-1.576-.355-2.805-1.064-3.687-.709-.882-1.693-1.323-2.954-1.323zm22.686 0c-1.26 0-2.249.437-2.966 1.311-.716.874-1.075 2.091-1.075 3.651 0 1.607.35 2.84 1.052 3.698.7.859 1.69 1.288 2.965 1.288 1.308 0 2.312-.43 3.013-1.288.701-.858 1.052-2.091 1.052-3.698 0-1.56-.359-2.777-1.075-3.651-.717-.874-1.706-1.311-2.966-1.311zm-13.848-5.483c.252 0 .461.079.627.237.165.157.248.37.248.638 0 .252-.087.456-.26.614-.173.157-.378.236-.615.236-.236 0-.44-.079-.614-.236-.173-.158-.26-.362-.26-.614 0-.268.083-.481.248-.638.166-.158.374-.237.626-.237zM65.6 0c.392 0 .729.13 1.012.392.257.23.401.533.433.912l.007.167v12.918l7.426-6.698c.24-.204.496-.306.77-.306.348 0 .653.134.915.402.273.269.409.57.409.902 0 .257-.096.495-.288.714l-.105.107-5.937 5.233 6.494 6.73c.24.247.36.526.36.837 0 .344-.142.65-.426.918-.273.269-.589.403-.949.403-.334 0-.626-.115-.876-.345l-.105-.106-7.688-8.05v7.013c0 .458-.152.823-.457 1.096-.293.261-.642.392-1.044.392-.403 0-.745-.126-1.028-.376-.248-.229-.387-.541-.418-.937l-.007-.175V1.471c0-.458.147-.817.441-1.079C64.844.131 65.197 0 65.6 0zm-5.908 7.09c.392 0 .73.135 1.012.406.257.237.402.552.434.945l.007.174v13.473c0 .475-.153.853-.457 1.136-.294.271-.642.407-1.045.407-.402 0-.745-.13-1.028-.39-.247-.237-.387-.561-.418-.971l-.006-.182V8.615c0-.475.147-.848.44-1.119.305-.271.659-.407 1.061-.407zM55.724 0v.002l.069.004c.518.056.92.495.92 1.028 0 .521-.385.952-.887 1.023l-.118.01h-1.533c-.458 0-.814.044-1.07.13-.255.075-.484.28-.686.561-.192.27-.261.78-.336 1.298-.055.443-.087 1.026-.094 1.75l-.001.318v.965h2.658c.49 0 .886.397.886.886 0 .49-.396.887-.886.887l-2.658-.001v13.282c0 .4-.117.73-.35.989l-.107.107c-.294.261-.642.392-1.045.392-.402 0-.745-.126-1.028-.376-.247-.229-.387-.541-.418-.937l-.006-.175V8.861H46.67c-.49 0-.886-.396-.886-.886 0-.489.396-.886.886-.886h2.363V5.332c0-1.928.404-3.296 1.213-4.104.755-.764 1.78-1.172 3.072-1.223L53.6 0h2.124zM38.276 7.09c1.54 0 2.97.396 4.036 1.116.846.571 1.533 1.45 1.81 2.318.16.498.184.682.186 1.405 0 .45-.012.754-.036.895-.25 1.421-.844 2.406-1.876 3.107-.83.565-1.873.895-3.236 1.025-.686.066-1.941.06-2.755-.014-.69-.062-1.537-.17-1.899-.244-.302-.061-1.339-.237-1.347-.229-.004.004-.053.32-.11.7-.09.61-.103.761-.104 1.248v.275c.003.264.017.356.063.534.189.733.604 1.224 1.359 1.603.742.373 1.52.535 2.695.56.52.01.787.003 1.112-.032.79-.085 1.149-.178 2.197-.57.261-.098.528-.187.592-.198.139-.023.397.025.547.103.272.14.5.514.499.817-.002.353-.12.567-.463.846-.823.665-1.874 1.073-3.128 1.215-.447.05-1.468.057-1.962.014-1.389-.123-2.353-.364-3.234-.81-.688-.348-1.213-.78-1.605-1.32l-.181-.248c-.004-.005-.068.072-.143.17-.33.432-.833.896-1.325 1.222-.711.47-1.732.828-2.765.97-.308.043-1.33.078-1.592.056-1.81-.16-3.193-.714-4.199-1.685-1.023-.989-1.462-2.277-1.289-3.783.2-1.734 1.01-2.958 2.43-3.672 1.095-.55 2.187-.76 3.966-.76 1.264 0 2.323.105 3.938.39.222.04.427.075.57.099l.138.022.06.008c.034 0 .06-.13.134-.646.133-.934.156-1.257.12-1.631-.042-.436-.097-.644-.26-.981-.418-.872-1.413-1.405-3.01-1.614-.457-.06-1.512-.069-1.97-.016-.766.088-1.194.2-2.148.564-.558.213-.561.213-.784.2-.383-.023-.644-.2-.812-.547-.069-.144-.08-.203-.08-.396 0-.29.074-.444.332-.69.58-.552 1.557-1.022 2.543-1.224.631-.13.942-.157 1.774-.155.86.002 1.41.05 2.175.195 1.272.24 2.237.664 2.966 1.301.216.19.542.561.681.778.043.067.087.121.098.121.01 0 .081-.08.157-.177 1.102-1.428 2.96-2.237 5.135-2.236zm-18.494 0c.368 0 .655.132.863.396.218.265.327.574.327.926 0 .331-.097.618-.293.86-.196.232-.477.348-.845.348-1.553 0-2.613.386-3.475 1.158-.834.756-1.277 1.76-1.294 3.014v8.296c0 .475-.153.853-.457 1.136-.294.271-.642.407-1.045.407-.402 0-.745-.13-1.028-.39-.272-.26-.413-.626-.424-1.096V8.615c0-.475.147-.848.44-1.119.305-.271.659-.407 1.061-.407.392 0 .73.136 1.012.407.282.26.429.614.44 1.062v2.137c.288-1.025.863-1.88 1.726-2.564.874-.694 1.773-1.042 2.992-1.042zM4.556 2.362c.363 0 .676.117.94.352.275.245.412.572.412.983l-.001 3.391h3.25c.452 0 .824.338.88.775l.006.111c0 .452-.338.825-.775.88l-.111.007h-3.25v8.645l.002.318c.007.724.039 1.307.094 1.75.075.517.144 1.028.336 1.298.202.28.43.485.686.56.213.073.496.114.85.126l.22.004h1.533c.558.016 1.006.472 1.006 1.034 0 .492-.344.904-.804 1.008l-.117.02-.07.004v.002H7.52l-.28-.006c-1.294-.05-2.318-.458-3.073-1.222-.761-.76-1.164-2.017-1.209-3.77l-.004-.335-.001-9.437H.886c-.452 0-.824-.338-.88-.774L0 7.975c0-.451.338-.824.775-.879l.111-.007h2.128l.235-3.391c0-.43.128-.763.382-.998.255-.224.563-.337.925-.337zm22.199 13.525c-1.1.064-1.548.162-2.208.485-.339.165-.572.345-.757.581-.265.34-.425.678-.536 1.132-.081.331-.09 1.198-.014 1.477.126.47.277.736.616 1.089.463.482 1.075.804 1.833.965.388.083.376.082 1.025.072.471-.007.648-.021.84-.065.818-.185 1.547-.604 2.077-1.192.482-.536.878-1.339 1.096-2.224.123-.499.327-1.888.282-1.916-.018-.012-.126-.03-.24-.04-.114-.01-.439-.05-.722-.087-1.682-.223-2.714-.31-3.292-.277zm10.258-6.663c-.6.113-1.106.318-1.552.629-.825.574-1.394 1.44-1.711 2.602-.125.457-.158.632-.27 1.42l-.102.725.138.016c.414.047 1.348.163 1.891.235.341.046.76.094.931.108.423.034 1.133.036 1.632.008l.23-.016c.682-.062 1.1-.17 1.615-.42.428-.207.677-.418.913-.776.347-.526.482-1.024.478-1.763-.002-.528-.046-.747-.223-1.126-.395-.845-1.323-1.451-2.54-1.658-.304-.051-1.119-.042-1.43.016zM59.683 0c.525 0 .95.145 1.272.435.323.28.485.655.485 1.123 0 .458-.162.832-.485 1.123-.323.28-.752.42-1.287.42-.536 0-.965-.14-1.288-.42-.323-.29-.485-.665-.485-1.123 0-.459.162-.833.485-1.123.333-.29.768-.435 1.303-.435z" transform="translate(48.812)"/>
                    </g>
                </g>
                <g filter="url(#5j5q96osxb)" transform="translate(-108 -81) translate(108 81.5)">
                    <g>
                        <path fill="#DB7D11" fill-rule="nonzero" d="M1.685.356l.07-.002L36.11 0c1.358-.014 2.217 1.436 1.579 2.613l-.037.064-17.54 29.536c-.5.842-1.587 1.119-2.429.619-.821-.488-1.105-1.536-.653-2.368l.034-.06 14.859-25.02c.333-.562.148-1.287-.413-1.62-.186-.11-.4-.168-.616-.165l-29.103.299C.835 3.908.049 3.16.002 2.214L0 2.144C-.01 1.188.738.402 1.685.356zm5.609 9.725l.07-.002 11.42-.165c1.359-.02 2.224 1.431 1.586 2.612l-.036.064-5.878 9.927c-.5.842-1.586 1.12-2.428.622-.823-.487-1.108-1.534-.657-2.368l.035-.06 3.73-6.3c.166-.28.073-.643-.207-.81-.094-.055-.201-.083-.31-.082l-7.205.104c-.955.013-1.745-.731-1.795-1.677l-.002-.07c-.014-.955.73-1.745 1.677-1.795z" transform="translate(.37 8.861)"/>
                    </g>
                </g>
            </g>
        </g>
    </g>
</svg>
