<svg xmlns="http://www.w3.org/2000/svg" width="352" height="121" viewBox="0 0 352 121"><g fill="none" fill-rule="evenodd" transform="translate(.601 .328)"><path d="M0,0 L350,0 L350,119 L0,119 L0,0 Z" transform="matrix(-1 0 0 1 350 0)"/><path fill="#FFF" fill-rule="nonzero" d="M180.727935,63.0651683 C181.554633,62.3259165 181.968011,61.3353163 181.968011,60.093368 L181.968011,3.99197694 C181.968011,2.75007019 181.569398,1.77425487 180.772222,1.06452718 C180.004543,0.354886553 179.089245,0 178.026335,0 C176.933878,0 175.9743,0.354886553 175.147588,1.06452718 C174.350387,1.77425487 173.951799,2.75007019 173.951799,3.99197694 L173.951799,60.093368 C173.951799,61.3944567 174.335629,62.3998435 175.103302,63.1095283 C175.870955,63.7896398 176.801017,64.1296955 177.893475,64.1296955 C178.985907,64.1296955 179.930727,63.7748531 180.727935,63.0651683 Z M181.968011,41.0582604 L202.831052,62.9062103 C203.570841,63.7218671 204.45863,64.1296955 205.494418,64.1296955 C206.470951,64.1296955 207.329144,63.7655614 208.069009,63.0372933 C208.838382,62.3090314 209.223131,61.478814 209.223131,60.5466286 C209.223131,59.7018443 208.897568,58.9444487 208.246567,58.2744418 L190.62396,40.0095588 L206.737323,25.8083867 C207.447516,25.138424 207.802631,24.3955946 207.802669,23.579898 C207.802631,22.6768911 207.432718,21.8612349 206.692935,21.1329276 C205.982666,20.4047061 205.154063,20.0405298 204.207126,20.0405298 C203.467267,20.0405298 202.771834,20.3173143 202.120821,20.8707522 L181.968011,39.0482459 L181.968011,41.0582604 Z M164.695511,63.0257414 C165.522209,62.2591098 165.935587,61.2318208 165.935587,59.9438744 L165.935587,23.3787366 C165.935587,22.0908333 165.536974,21.0788767 164.739798,20.3428628 C163.972119,19.6069391 163.056821,19.2389086 161.993911,19.2389086 C160.901454,19.2389086 159.941876,19.6069391 159.115165,20.3428628 C158.317963,21.0788767 157.919375,22.0908333 157.919375,23.3787366 L157.919375,59.9438744 C157.919375,61.2931516 158.303205,62.3357749 159.070878,63.0717444 C159.838531,63.7770451 160.768593,64.1296955 161.861051,64.1296955 C162.953483,64.1296955 163.898303,63.7617108 164.695511,63.0257414 Z M161.927481,8.41702253 C163.379977,8.41702253 164.544728,8.03620892 165.421727,7.27444032 C166.298703,6.48737689 166.737208,5.47174934 166.737208,4.22755444 C166.737208,2.95807065 166.298703,1.94244311 165.421727,1.18066855 C164.544728,0.393611073 163.393681,0 161.968588,0 C160.516069,0 159.33762,0.393611073 158.433235,1.18066855 C157.556242,1.96783382 157.117754,2.98346137 157.117754,4.22755444 C157.117754,5.47174934 157.556242,6.48737689 158.433235,7.27444032 C159.310211,8.03620892 160.474962,8.41702253 161.927481,8.41702253 M151.224758,0 L151.224118,0.003 L151.276509,0.0051204002 C152.746451,0.0934500908 153.911269,1.31353316 153.911269,2.80567418 C153.911269,4.32969855 152.69614,5.56991435 151.181872,5.61033155 L151.181422,5.61134835 L147.021658,5.61134835 C145.779485,5.61140573 144.811763,5.72834537 144.118488,5.96216726 C143.425175,6.16686838 142.804101,6.72467015 142.255265,7.48472165 C141.735276,8.21564926 141.547508,9.60372094 141.345312,11.0069429 C141.183526,12.2894287 141.097251,14.0048048 141.086482,16.1530758 L141.08533,16.6200455 L141.085285,19.238 L148.299921,19.2389086 C149.62809,19.2389086 150.704784,20.3156027 150.704784,21.6437722 C150.704784,22.9719417 149.62809,24.0486358 148.299921,24.0486358 L141.085285,24.048 L141.08533,60.093368 C141.08533,61.2525198 140.725232,62.1927193 140.005083,62.9139666 L139.845254,63.0651683 C139.048046,63.7748531 138.103226,64.1296955 137.010794,64.1296955 C135.918336,64.1296955 134.988274,63.7896398 134.220621,63.1095283 C133.452948,62.3998435 133.069118,61.3944567 133.069118,60.093368 L133.069118,60.093368 L133.068285,24.048 L126.656149,24.0486358 C125.327979,24.0486358 124.251285,22.9719417 124.251285,21.6437722 C124.251285,20.3156027 125.327979,19.2389086 126.656149,19.2389086 L133.068285,19.238 L133.069118,14.47128 C133.069118,9.23828489 134.166821,5.52545519 136.362265,3.33277963 C138.47927,1.19033798 141.375251,0.0807731469 145.050212,0.00425122225 L145.461747,0 L151.224758,0 Z M103.875333,19.2389119 C108.051792,19.2389119 111.933845,20.3151516 114.827624,22.2692564 C117.122873,23.8192086 118.987476,26.2068806 119.740724,28.5606264 C120.173225,29.9120629 120.238972,30.4114482 120.243075,32.37437 C120.245282,33.5957482 120.21227,34.4195791 120.145261,34.8012911 C119.46803,38.6592673 117.854915,41.3319886 115.054992,43.2351375 C112.802488,44.7661729 109.973543,45.6620439 106.273634,46.0159041 C104.411133,46.1940285 101.004609,46.1772054 98.7977983,45.978911 C96.9248982,45.8106652 94.6250971,45.5146168 93.6440031,45.3155409 C92.822789,45.1488728 90.0106106,44.6715595 89.987456,44.694929 C89.9772596,44.7053974 89.843451,45.5602943 89.6901414,46.5951586 C89.4453596,48.2474943 89.4106844,48.6597858 89.4055485,49.9791095 C89.4000949,51.3204905 89.4188198,51.5558223 89.5780253,52.1748861 C90.0899791,54.1655417 91.2181879,55.4971326 93.2650457,56.5265711 C95.2785989,57.5392602 97.3894435,57.9774866 100.578895,58.0450444 C101.990946,58.0752405 102.714082,58.0541858 103.597491,57.9591301 C105.739052,57.7282953 106.714925,57.4750345 109.560144,56.4117582 L109.886197,56.2918905 C110.478348,56.0777427 111.018966,55.9013295 111.167283,55.8761907 C111.542913,55.8125253 112.243467,55.9439992 112.65176,56.1548556 C113.388719,56.5353291 114.00789,57.5500529 114.004032,58.3709202 C113.999825,59.329911 113.681574,59.9107726 112.74759,60.6661758 C110.514405,62.472367 107.663051,63.5800234 104.259318,63.9636521 C103.045591,64.1004781 100.274459,64.1206334 98.9359349,64.0024735 C95.1664277,63.6696532 92.5493353,63.0142598 90.1576093,61.8042789 C88.2914073,60.8601502 86.8675519,59.6888728 85.8041044,58.2229919 C85.5428008,57.8627917 85.3208429,57.5591058 85.3108611,57.5480035 C85.3008532,57.5369453 85.127187,57.7450004 84.9248662,58.0102777 C84.0305611,59.1829706 82.6629806,60.4434355 81.3265203,61.3267887 C79.3971394,62.6020421 76.6273118,63.5749071 73.8246162,63.9617944 C72.9887848,64.0771233 70.2156285,64.1722822 69.5045188,64.1099733 C64.5925988,63.6795023 60.839226,62.1733551 58.1092531,59.5372584 C55.3317325,56.8551598 54.1399372,53.3584307 54.6102799,49.2710941 C55.1515249,44.5675099 57.350323,41.2459416 61.2053878,39.3081733 C64.1765715,37.8146766 67.1406366,37.2465687 71.9677317,37.2454039 C75.3973545,37.2439295 78.2711744,37.529421 82.6542853,38.3046109 C83.7380981,38.4962999 84.6764352,38.6532222 84.7394821,38.6533549 C84.8265805,38.6533549 84.8965572,38.3368969 85.0738385,37.1032794 L85.1027401,36.9007883 C85.4625476,34.3642885 85.5270362,33.4890446 85.4290109,32.4729791 C85.3149121,31.2902454 85.1660031,30.7268999 84.7252201,29.8102986 C83.5879592,27.4454505 80.88829,25.9985454 76.5530966,25.4304375 C75.3132692,25.2679714 72.4518243,25.2452359 71.2098198,25.3879153 C69.1289714,25.6270659 67.9677844,25.9317838 65.3781165,26.9181545 C63.8630267,27.4952564 63.8561024,27.4970404 63.2517495,27.4609761 C62.212804,27.3990948 61.5035509,26.9209264 61.0486393,25.9757362 C60.8612913,25.5865046 60.8283493,25.4258226 60.828342,24.9013575 C60.828342,24.1140331 61.0300507,23.6960652 61.73241,23.0281834 C63.3074356,21.5304257 65.9578572,20.2549364 68.6329215,19.7072934 C70.3457893,19.3566474 71.188957,19.2829265 73.4456588,19.2864503 C75.7807676,19.2926429 77.2738951,19.4241315 79.3490332,19.8163856 C82.8006096,20.4687417 85.4214383,21.6186253 87.3976954,23.3476308 C87.9840833,23.8606397 88.8682993,24.8703505 89.2471813,25.4595425 C89.3629844,25.6396427 89.4822801,25.7870107 89.5122748,25.7870107 C89.5422884,25.7870107 89.7338513,25.5706104 89.9380025,25.3061883 C92.9304857,21.4298999 97.9705258,19.2358336 103.875333,19.2389119 Z M53.6846418,19.2389086 C54.6833995,19.2389086 55.4637083,19.5980542 56.0255549,20.3162113 C56.618557,21.0344565 56.9151047,21.8723579 56.9151047,22.8299175 C56.9151047,23.7277106 56.6497659,24.5057619 56.1191948,25.1640733 C55.5885572,25.7925407 54.8238562,26.1067492 53.8250918,26.1067109 C49.6114191,26.1067492 46.7349501,27.15413 44.3940571,29.2488469 C42.1314702,31.3008832 40.9288431,34.0277159 40.8826809,37.4293509 L40.8826809,59.9438744 C40.8826809,61.2318208 40.4693032,62.2591098 39.6426046,63.0257414 C38.845397,63.7617108 37.900577,64.1296955 36.8081446,64.1296955 C35.715687,64.1296955 34.7856251,63.7770451 34.0179715,63.0717444 C33.2798248,62.3640815 32.8965621,61.3728998 32.8681723,60.0981993 L32.8664689,59.9438744 L32.8664689,23.3787366 C32.8664689,22.0908333 33.265057,21.0788767 34.0622583,20.3428628 C34.8889695,19.6069391 35.8485476,19.2389086 36.9410052,19.2389086 C38.0039151,19.2389086 38.9192126,19.6069391 39.6868915,20.3428628 C40.4521806,21.0494361 40.8501541,22.0103183 40.8807675,23.2255127 L40.8826809,23.3787366 L40.8826809,29.0244104 C41.6629697,26.2414137 43.2235806,23.9222233 45.5645136,22.0668278 C47.9366222,20.1815928 50.3761201,19.2389086 53.6846418,19.2389086 Z M72.6081509,43.1184074 C69.6237028,43.2896253 68.4070471,43.5564686 66.615197,44.4329083 C65.6972315,44.8818797 65.063652,45.3691156 64.5623446,46.0114854 C63.8431307,46.9331652 63.4090204,47.8490657 63.106428,49.0832037 C62.8862277,49.9812618 62.8637574,52.3327551 63.0681322,53.0903943 C63.412409,54.3666307 63.8210994,55.0889598 64.7400992,56.045402 C65.9984998,57.3550315 67.657391,58.2286896 69.7150842,58.6655547 C70.7672624,58.8889594 70.7361236,58.8867832 72.4978495,58.859616 C73.7761622,58.8397415 74.2544349,58.8029758 74.7773782,58.6844059 C76.9974395,58.1804949 78.9758407,57.0446919 80.4120676,55.4496127 C81.7221635,53.9946641 82.7967134,51.8149939 83.3880893,49.4129999 C83.721442,48.0589661 84.2755535,44.2904717 84.1527238,44.2127607 C84.1042496,44.1820337 83.8114106,44.1335364 83.5020494,44.1048559 C83.1926799,44.0759305 82.310853,43.969539 81.5424318,43.8677739 C76.9781087,43.2631787 74.177953,43.0282729 72.6081509,43.1184074 Z M100.44585,25.0359047 C98.8204244,25.3411911 97.446462,25.8976462 96.2346834,26.741339 C93.9958902,28.3001175 92.4508162,30.6498272 91.5904312,33.80416 C91.2524785,35.0431524 91.1623893,35.5187269 90.8610789,37.6544332 L90.583138,39.6245404 L90.9554498,39.6667554 C92.0799284,39.7951026 94.6155975,40.1111519 96.0882083,40.3065583 C96.2307399,40.3254695 96.3782553,40.344576 96.5275342,40.3635064 L96.9774412,40.4193986 C97.6505769,40.5013309 98.2942144,40.5721801 98.6149116,40.5981097 C99.9540636,40.7063161 102.355024,40.6962457 103.668294,40.5770022 C105.517548,40.4094554 106.654615,40.113922 108.051685,39.4382955 C109.213616,38.8763146 109.888955,38.3019549 110.528036,37.3321945 C111.468914,35.9044179 111.835294,34.5532515 111.826066,32.5457481 C111.819162,31.1148985 111.701362,30.5196766 111.221511,29.4924369 C110.149364,27.1973064 107.630742,25.553319 104.327446,24.9924634 C103.503163,24.8525453 101.290756,24.8773895 100.44585,25.0359047 Z M16.0324239,47.50965 L16.0335759,47.9766197 C16.0443451,50.1248907 16.1306202,51.8402668 16.2924061,53.1227525 C16.4946014,54.5259745 16.6823694,55.9140462 17.2023585,56.6449738 C17.7511947,57.4050253 18.3722691,57.9628271 19.0655817,58.1675282 C19.7588573,58.4013501 20.7265787,58.5182897 21.9687522,58.5183471 L21.9687522,58.5183471 L26.128516,58.5183471 C27.643234,58.5597811 28.858363,59.7999969 28.858363,61.3240213 C28.858363,62.8161623 27.6935444,64.0362454 26.2236026,64.1245751 L26.2236026,64.1245751 L26.1712119,64.1266955 L26.1718515,64.1296955 L20.4088405,64.1296955 L19.9973058,64.1254443 C16.3223445,64.0489223 13.426364,62.9393575 11.3093588,60.7969158 C9.11391523,58.6042403 8.01621193,54.8914106 8.01621193,49.6584155 L8.01621193,49.6584155 L8.016,24.0479695 L2.40486358,24.0486358 C1.13203449,24.0486358 0.0901610975,23.059797 0.00554808713,21.8084239 L0,21.6437722 C1.55876607e-16,20.3709431 0.988838852,19.3290697 2.24021186,19.2444567 L2.40486358,19.2389086 L8.182,19.2379695 L8.81783313,10.0353147 C8.81782746,8.86767097 9.16328011,7.96540078 9.8541854,7.32850417 C10.5450737,6.71814776 11.3821294,6.41296955 12.3653412,6.41296955 C13.3485304,6.41296955 14.1988684,6.73141785 14.9163552,7.36831446 C15.660384,8.03174559 16.0324239,8.92074569 16.0324239,10.0353147 L16.032,19.2379695 L24.850257,19.2389086 C26.1230861,19.2389086 27.1649595,20.2277475 27.2495725,21.4791205 L27.2551206,21.6437722 C27.2551206,22.9166013 26.2662817,23.9584747 25.0149087,24.0430877 L24.850257,24.0486358 L16.032,24.0479695 L16.0324239,47.50965 Z M31.1990968,118.359369 C31.6266282,118.359369 31.9579649,118.23111 32.1931071,117.974591 C32.4282493,117.718072 32.5458205,117.354671 32.5458205,116.884386 L32.5458205,116.884386 L32.5458205,98.0302557 C32.5458205,94.1397209 31.5945633,91.2004432 29.692049,89.2124226 C27.7895347,87.2244021 24.9785164,86.2303918 21.2589941,86.2303918 C18.8220656,86.2303918 16.6630325,86.7648059 14.7818948,87.8336342 C12.9007571,88.9024624 11.4899038,90.4415751 10.5493349,92.4509722 L10.5493349,92.4509722 L10.5493349,73.9816199 C10.5493349,73.5113355 10.4317638,73.1479339 10.1966216,72.8914151 C9.96147936,72.6348963 9.6301426,72.5066369 9.2026113,72.5066369 C8.77508,72.5066369 8.44374324,72.6348963 8.20860102,72.8914151 C7.9734588,73.1479339 7.8558877,73.5113355 7.8558877,73.9816199 L7.8558877,73.9816199 L7.8558877,116.884386 C7.8558877,117.311918 7.98414709,117.664631 8.24066587,117.942526 C8.49718465,118.220422 8.81783313,118.359369 9.2026113,118.359369 C9.6301426,118.359369 9.96147936,118.23111 10.1966216,117.974591 C10.4317638,117.718072 10.5493349,117.354671 10.5493349,116.884386 L10.5493349,116.884386 L10.5493349,99.9541466 C10.5493349,96.5766493 11.5433452,93.8725138 13.5313657,91.8417401 C15.5193863,89.8109664 18.1593921,88.7955796 21.4513831,88.7955796 C24.4013491,88.7955796 26.5390056,89.5544477 27.8643527,91.0721838 C29.1896997,92.5899199 29.8523732,95.0161601 29.8523732,98.3509042 L29.8523732,98.3509042 L29.8523732,116.884386 C29.8523732,117.354671 29.9699444,117.718072 30.2050866,117.974591 C30.4402288,118.23111 30.7715655,118.359369 31.1990968,118.359369 Z M54.1575278,118.487629 C56.50895,118.487629 58.6145417,117.942526 60.4743028,116.852321 C62.334064,115.762117 63.7556056,114.212316 64.7389276,112.202918 L64.7389276,112.202918 L64.7389276,116.884386 C64.7389276,117.311918 64.8564987,117.664631 65.0916409,117.942526 C65.3267831,118.220422 65.6367433,118.359369 66.0215215,118.359369 C66.9193372,118.359369 67.3682451,117.867708 67.3682451,116.884386 L67.3682451,116.884386 L67.3682451,87.7695045 C67.3682451,87.3419732 67.250674,86.9999481 67.0155318,86.7434293 C66.7803896,86.4869106 66.4490528,86.3586512 66.0215215,86.3586512 C65.5939902,86.3586512 65.2626534,86.4869106 65.0275112,86.7434293 C64.792369,86.9999481 64.6747979,87.3419732 64.6747979,87.7695045 L64.6747979,87.7695045 L64.6747979,104.699744 C64.6747979,108.077241 63.7021642,110.781377 61.7568967,112.812151 C59.8116293,114.842924 57.2357532,115.858311 54.0292684,115.858311 C51.250315,115.858311 49.1981647,115.088755 47.8728177,113.549642 C46.5474706,112.010529 45.8847971,109.616354 45.8847971,106.367116 L45.8847971,106.367116 L45.8847971,87.7695045 C45.8847971,87.3419732 45.767226,86.9999481 45.5320838,86.7434293 C45.2969416,86.4869106 44.9656048,86.3586512 44.5380735,86.3586512 C44.1105422,86.3586512 43.7792054,86.4869106 43.5440632,86.7434293 C43.308921,86.9999481 43.1913499,87.3419732 43.1913499,87.7695045 L43.1913499,87.7695045 L43.1913499,106.623635 C43.1913499,110.51417 44.1212305,113.464136 45.9809917,115.473533 C47.8407528,117.48293 50.5662649,118.487629 54.1575278,118.487629 Z M91.8657888,118.487629 C94.6019891,118.487629 97.017541,117.814267 99.1124444,116.467543 C101.207348,115.12082 102.831967,113.218305 103.986301,110.76 C105.140636,108.301695 105.717803,105.447924 105.717803,102.198686 C105.717803,98.9922012 105.140636,96.1918711 103.986301,93.7976958 C102.831967,91.4035205 101.207348,89.5437594 99.1124444,88.2184123 C97.017541,86.8930653 94.6019891,86.2303918 91.8657888,86.2303918 C89.2578478,86.2303918 87.0239968,86.807559 85.1642356,87.9618936 C83.3044744,89.1162281 81.9043094,90.7622236 80.9637405,92.8998801 L80.9637405,92.8998801 L80.9637405,73.9816199 C80.9637405,73.5113355 80.8461694,73.1479339 80.6110272,72.8914151 C80.375885,72.6348963 80.0445482,72.5066369 79.6170169,72.5066369 C78.7192012,72.5066369 78.2702933,72.9982979 78.2702933,73.9816199 L78.2702933,73.9816199 L78.2702933,116.820257 C78.2702933,117.290541 78.3878644,117.653943 78.6230067,117.910461 C78.8581489,118.16698 79.1894856,118.29524 79.6170169,118.29524 C80.5148327,118.29524 80.9637405,117.803579 80.9637405,116.820257 L80.9637405,116.820257 L80.9637405,111.754011 C81.9043094,113.93442 83.3044744,115.601792 85.1642356,116.756127 C87.0239968,117.910461 89.2578478,118.487629 91.8657888,118.487629 Z M91.8657888,115.858311 C88.3600321,115.858311 85.6665849,114.6826 83.7854471,112.331178 C81.9043094,109.979756 80.9637405,106.645012 80.9637405,102.326945 C80.9637405,98.0516323 81.9043094,94.7382647 83.7854471,92.3868425 C85.6665849,90.0354204 88.3386555,88.8597093 91.8016591,88.8597093 C95.2646626,88.8597093 97.9581098,90.0247321 99.8820007,92.3547777 C101.805892,94.6848233 102.767837,97.9661261 102.767837,102.198686 C102.767837,106.516752 101.805892,109.872873 99.8820007,112.267048 C97.9581098,114.661223 95.2860392,115.858311 91.8657888,115.858311 Z" transform="translate(140.777)"/><path fill="#D5EA48" fill-rule="nonzero" d="M63.1270778,0.576854537 L91.2638668,15.7585103 C92.8212777,16.5988364 93.7914382,18.2265155 93.7896796,19.996169 L93.765631,44.4555065 L119.320609,58.2444336 C120.87802,59.0847597 121.84818,60.7124387 121.846424,62.4820923 L121.819264,89.7712348 C121.817511,91.5337092 120.851914,93.1540665 119.302643,93.9943506 L91.1930082,109.240278 C89.7492154,110.023353 88.0056428,110.015527 86.5689383,109.219521 L61.117203,95.1171643 L35.0795246,109.240278 C33.6357319,110.023353 31.8921592,110.015527 30.4554548,109.219521 L2.47876027,93.7190455 C0.949128701,92.8715538 0,91.2606186 0,89.5119005 L0,62.541578 C0,60.780817 0.962126728,59.1607903 2.50821824,58.3182462 L28.0567418,44.3953849 L28.0567418,20.0556548 C28.0567418,18.2948937 29.0188685,16.674867 30.56496,15.8323229 L58.5416545,0.586395303 C59.9701529,-0.19206629 61.6953524,-0.195655866 63.1270778,0.576854537 Z M87.3908573,53.6022022 L67.4056894,64.4875611 C66.3746236,65.0491537 65.7329379,66.1293578 65.7329379,67.3034459 L65.7329379,84.7900697 C65.7329379,85.9559016 66.3657117,87.0298734 67.3854932,87.5948599 L87.386318,98.6758561 C88.3440988,99.2064925 89.5064384,99.2117083 90.4689427,98.6896888 L110.526974,87.8111079 C111.559872,87.2509099 112.203626,86.170617 112.204762,84.9955853 L112.22191,67.2619734 C112.223049,66.0822569 111.576302,64.9971952 110.538084,64.4369846 L90.4472495,53.5961985 C89.4929729,53.0812817 88.3431037,53.0835404 87.3908573,53.6022022 Z M31.2673611,53.6013987 L11.2915783,64.4874196 C10.2608626,65.0491194 9.61945432,66.1291305 9.61945432,67.3029625 L9.61945432,84.7900697 C9.61945432,85.9559016 10.2522282,87.0298734 11.2720097,87.5948599 L31.2728345,98.6758561 C32.2306153,99.2064925 33.3929548,99.2117083 34.3554592,98.6896888 L54.4134952,87.8111053 C55.446391,87.2509087 56.0901441,86.1706195 56.0912832,84.9955908 L56.1084256,67.3140617 C56.1095657,66.1364744 55.4651343,65.0530124 54.4298287,64.4918926 L34.3296098,53.5978808 C33.3742121,53.0800698 32.2215666,53.081394 31.2673611,53.6013987 Z M59.3274973,11.1136256 L39.3483201,22.0014964 C38.3176044,22.5631961 37.6761961,23.6432073 37.6761961,24.8170392 L37.6761961,42.2997951 C37.6761961,43.4679394 38.31146,44.5436599 39.3344021,45.1077084 L59.3863921,56.1643421 C60.343482,56.6920798 61.503465,56.6959715 62.4640743,56.1746674 L82.4709405,45.317329 C83.5034438,44.7570095 84.146884,43.6769343 84.1480203,42.5021918 L84.1651676,24.7760693 C84.1663072,23.5963427 83.5195495,22.5112732 82.481318,21.9510665 L62.3844932,11.1072672 C61.4299976,10.5922425 60.2798422,10.5946348 59.3274973,11.1136256 Z" transform="translate(0 9.362)"/></g></svg>