<svg height="302" viewBox="0 0 1440 302" width="1440" xmlns="http://www.w3.org/2000/svg" xmlns:xlink="http://www.w3.org/1999/xlink"><defs><path id="a" d="m0 0h1440v302h-1440z"/><mask id="b" fill="#fff"><use fill="#fff" fill-rule="evenodd" xlink:href="#a"/></mask></defs><g fill="none" fill-rule="evenodd"><path d="m0 0h1440v302h-1440z" fill="#ecf4fa" fill-opacity=".286"/><use fill="#f5fafc" xlink:href="#a"/><g mask="url(#b)" opacity=".529"><g transform="translate(-113 -989)"><g stroke="#e3f3ff"><path d="m1110 730 380.423 276.393-145.309 447.214h-470.228l-145.309-447.214z" stroke-linejoin="round" stroke-width="10"/><path d="m1110 710 380.423 276.393-145.309 447.214h-470.228l-145.309-447.214z" stroke-linejoin="round" stroke-width="10" transform="matrix(1 0 0 -1 0 2220)"/><path d="m1115 250 822.664 597.7-314.23 967.1h-1016.868l-314.23-967.1z" stroke-linejoin="round" stroke-width="10" transform="matrix(1 0 0 -1 0 2230)"/><path d="m1115 250 822.664 597.7-314.23 967.1h-1016.868l-314.23-967.1z" opacity=".269" stroke-linejoin="round" stroke-width="10"/><path d="m1115 180 581.723 211.73 309.528 536.118-107.498 609.652-474.225 397.922h-619.056l-474.225-397.922-107.498-609.652 309.528-536.118z" stroke-linejoin="round" stroke-width="10" transform="matrix(1 0 0 -1 0 2170)"/><path d="m1110 130 629.932 229.276 335.18 580.549-116.407 660.175-513.525 430.899h-670.36l-513.525-430.899-116.407-660.175 335.18-580.549z" opacity=".325" stroke-linejoin="round" stroke-width="10"/><path d="m1110 100 382.683 76.12 324.424 216.773 216.773 324.424 76.12 382.683-76.12 382.683-216.773 324.424-324.424 216.773-382.683 76.12-382.683-76.12-324.424-216.773-216.773-324.424-76.12-382.683 76.12-382.683 216.773-324.424 324.424-216.773z" stroke-linejoin="round" stroke-width="10" transform="matrix(1 0 0 -1 0 2200)"/><path d="m1110 10 339.919 53.838 306.645 156.243 243.355 243.355 156.243 306.645 53.838 339.919-53.838 339.919-156.243 306.645-243.355 243.355-306.645 156.243-339.919 53.838-339.919-53.838-306.645-156.243-243.355-243.355-156.243-306.645-53.838-339.919 53.838-339.919 156.243-306.645 243.355-243.355 306.645-156.243z" stroke-linejoin="round" stroke-width="10" transform="matrix(1 0 0 -1 0 2220)"/><path d="m1115 90 316.742 50.167 285.738 145.591 226.762 226.762 145.591 285.738 50.167 316.742-50.167 316.742-145.591 285.738-226.762 226.762-285.738 145.591-316.742 50.167-316.742-50.167-285.738-145.591-226.762-226.762-145.591-285.738-50.167-316.742 50.167-316.742 145.591-285.738 226.762-226.762 285.738-145.591z" opacity=".435" stroke-linejoin="round" stroke-width="10" transform="matrix(-1 0 0 -1 2230 2230)"/><path d="m1115 30 225.584 23.71 215.725 70.093 196.438 113.414 168.565 151.776 133.326 183.507 92.258 207.217 47.16 221.87v226.826l-47.16 221.87-92.258 207.217-133.326 183.507-168.565 151.776-196.438 113.414-215.725 70.093-225.584 23.71-225.584-23.71-215.725-70.093-196.438-113.414-168.565-151.776-133.326-183.507-92.258-207.217-47.16-221.87v-226.826l47.16-221.87 92.258-207.217 133.326-183.507 168.565-151.776 196.438-113.414 215.725-70.093z" opacity=".44" stroke-linejoin="round" stroke-width="10" transform="matrix(-1 0 0 -1 2230 2230)"/><path d="m1110 360 713.292 518.237-272.453 838.526h-881.678l-272.453-838.526z" stroke-linejoin="round" stroke-width="10" transform="matrix(1 0 0 -1 0 2220)"/><path d="m1110 410 665.74 483.688-254.29 782.624h-822.9l-254.29-782.624z" stroke-linejoin="round" stroke-width="10"/></g><circle cx="730" cy="1010" fill="#e3f3ff" r="20" transform="matrix(1 0 0 -1 0 2020)"/><circle cx="1490" cy="1010" fill="#e3f3ff" r="20" transform="matrix(1 0 0 -1 0 2020)"/><circle cx="730" cy="1240" fill="#e3f3ff" r="30"/><circle cx="1490" cy="1240" fill="#e3f3ff" r="30"/><circle cx="110" cy="1110" fill="#e3f3ff" r="20"/><circle cx="225" cy="1245" fill="#e3f3ff" r="15"/><circle cx="1110" cy="1110" fill="#e3f3ff" r="40"/><path d="m1110 1110 515-690m-515 690 660-220m-660 220 825 275m-825-275 412.5 570m-412.5-570-410 570m410-570-660-220m660 220-505-690m505 690-815 275" stroke="#e3f3ff" stroke-width="10"/></g></g><circle cx="1364.5" cy="280.5" fill="#ef9325" mask="url(#b)" r="145.5"/><path d="m1033 89h-80c-3.313708 0-6 2.6862686-6 5.9999489v54.2075381c.011209 1.568982.653727 3.067359 1.782597 4.157086s2.648988 1.678996 4.217403 1.634864h12v15.999864c-.000265.744356.412878 1.427275 1.072323 1.772535.659446.345261 1.456076.295734 2.067677-.128549l25.484-17.64385h39.376c3.31371 0 6-2.686268 6-5.999948v-53.9995401c0-3.3136803-2.68629-5.9999489-6-5.9999489zm-67 42c0-1.656854 1.343146-3 3-3h48c1.65685 0 3 1.343146 3 3s-1.34315 3-3 3h-48c-1.656854 0-3-1.343146-3-3zm51-15h-48c-1.656854 0-3-1.343146-3-3s1.343146-3 3-3h48c1.65685 0 3 1.343146 3 3s-1.34315 3-3 3z" fill="#ef9325" fill-rule="nonzero" mask="url(#b)"/><circle cx="619.5" cy="251.5" fill="#37abc8" mask="url(#b)" r="29.5"/><circle cx="573.5" cy="123.5" fill="#37abc8" mask="url(#b)" r="7.5"/><circle cx="741" cy="77" fill="#ef9325" mask="url(#b)" r="12"/><circle cx="893.5" cy="305.5" fill="#ef9325" mask="url(#b)" r="53.5"/><g fill="#37abc8"><path d="m1099.52174 135h-73.04348c-3.02556 0-5.47826 2.462413-5.47826 5.499953v49.690243c.01023 1.438234.59688 2.811747 1.62759 3.810663s2.41864 1.539079 3.85067 1.498625h10.95652v14.666542c-.00024.682326.37698 1.308335.97908 1.624824s1.32946.271089 1.88788-.117837l23.268-16.173529h35.952c3.02556 0 5.47826-2.462413 5.47826-5.499953v-49.499578c0-3.03754-2.4527-5.499953-5.47826-5.499953zm-61.52174 38.5c0-1.380712 1.21878-2.5 2.72222-2.5h43.55556c1.50344 0 2.72222 1.119288 2.72222 2.5s-1.21878 2.5-2.72222 2.5h-43.55556c-1.50344 0-2.72222-1.119288-2.72222-2.5zm46.27778-14.5h-43.55556c-1.50344 0-2.72222-1.119288-2.72222-2.5s1.21878-2.5 2.72222-2.5h43.55556c1.50344 0 2.72222 1.119288 2.72222 2.5s-1.21878 2.5-2.72222 2.5z" fill-rule="nonzero" mask="url(#b)" transform="matrix(-1 0 0 1 2126 0)"/><circle cx="1247" cy="100" mask="url(#b)" r="21"/></g></g></svg>