<?xml version="1.0" encoding="UTF-8" standalone="no"?>
<svg
   height="302"
   viewBox="0 0 1440 302"
   width="1440"
   version="1.1"
   id="svg122"
   xmlns:xlink="http://www.w3.org/1999/xlink"
   xmlns="http://www.w3.org/2000/svg"
   xmlns:svg="http://www.w3.org/2000/svg">
  <defs
     id="defs12">
    <linearGradient
       id="traefik-pilot-forum-header-a"
       x1="0"
       x2="1"
       y1="0.24385999"
       y2="0.87291002">
      <stop
         offset="0%"
         stop-color="#E6AE02"
         stop-opacity="0"
         id="stop2" />
      <stop
         offset="100%"
         stop-color="#E6AE02"
         id="stop4" />
    </linearGradient>
    <linearGradient
       id="traefik-pilot-forum-header-b"
       x1="423.28104"
       x2="843.91986"
       y1="80.649223"
       y2="256.77072"
       gradientTransform="scale(1.1071283,0.90323772)"
       gradientUnits="userSpaceOnUse">
      <stop
         offset="0%"
         stop-color="#E6AE02"
         stop-opacity="0"
         id="stop7" />
      <stop
         offset="100%"
         stop-color="#E6AE02"
         id="stop9" />
    </linearGradient>
    <linearGradient
       xlink:href="#traefik-pilot-forum-header-a"
       id="linearGradient910"
       x1="-120.6"
       y1="282.09274"
       x2="222.60001"
       y2="497.98273"
       gradientUnits="userSpaceOnUse" />
    <linearGradient
       xlink:href="#traefik-pilot-forum-header-a"
       id="linearGradient912"
       x1="1153.4"
       y1="357.32074"
       x2="1296.6"
       y2="447.40073"
       gradientUnits="userSpaceOnUse" />
  </defs>
  <g
     fill="none"
     fill-rule="evenodd"
     id="g120">
    <rect
       width="1440"
       height="400"
       fill="#ffffff"
       id="rect14"
       x="0"
       y="0" />
    <rect
       width="1440"
       height="402"
       y="-2"
       fill="#ffffff"
       id="rect16"
       x="0" />
    <g
       transform="translate(957,94)"
       id="g108">
      <polygon
         fill="#967100"
         fill-rule="nonzero"
         points="174.628,199.537 394.026,31.543 117.072,106.531 "
         id="polygon18" />
      <path
         fill="#e6ae02"
         fill-rule="nonzero"
         d="M 98.923448,54.43246 117.06514,106.524 394.01861,31.535884 105.47787,44.747135 c -4.87193,0.226772 -8.15645,5.076749 -6.554422,9.685325 z"
         id="path20" />
      <polygon
         fill="#967100"
         fill-rule="nonzero"
         points="174.628,199.537 394.026,31.543 114.988,127.175 "
         id="polygon22" />
      <path
         fill="#66554a"
         fill-rule="nonzero"
         d="m 235.03737,39.158323 c -0.95097,4.242816 -20.40941,2.055571 -29.81675,-1.119226 -9.40735,-3.174797 -15.91056,-9.092793 -14.52067,-13.211251 1.38988,-4.118458 11.8872,-8.024774 19.55353,-1.704442 9.94135,8.185709 26.69316,7.505396 24.78389,16.034919 z"
         id="path24" />
      <g
         fill-rule="nonzero"
         transform="translate(124.358,9.78)"
         id="g60">
        <path
           fill="#f5d1a1"
           d="m 113.59774,48.177907 c 6.7373,-1.543508 19.16582,-1.572768 20.2631,1.748332 1.06071,3.196743 -13.67211,8.200339 -18.03928,8.295437 -4.22087,-2.062886 -2.22382,-10.043769 -2.22382,-10.043769 z"
           id="path26" />
        <path
           fill="#0a0f2b"
           d="m 110.32053,95.009816 c 0,0 9.83894,2.516429 18.58792,0.782727 8.74898,-1.733703 4.46227,-33.518246 -2.24576,-42.947539 -6.70804,-9.436608 -11.61654,-17.688153 -16.18123,-14.27927 -4.56468,3.408883 -1.32405,4.169664 -5.47177,7.754112"
           id="path28" />
        <g
           transform="translate(0,4.39)"
           id="g34">
          <path
             fill="#37abc8"
             d="M 42.325747,12.201753 C 29.648505,-6.0862463 50.035967,-2.048256 58.024166,14.557248 Z M 10.416845,46.312531 C -14.359737,33.423148 11.009376,25.442265 29.516832,39.3192 Z"
             id="path30" />
          <path
             fill="#077e91"
             d="M 15.398496,44.710502 C -7.4395583,33.891321 14.015923,30.636057 31.45536,41.594227 Z M 48.960633,13.920825 C 31.418784,-3.9575232 51.001574,2.1652992 63.773913,17.966131 Z"
             id="path32" />
        </g>
        <path
           fill="#35aac6"
           d="m 58.485023,130.48122 c 23.511053,15.83009 60.160207,-3.59908 66.890187,-29.61193 9.3342,-36.08588 -13.05032,-60.577169 -21.3677,-69.443191 C 95.69013,22.560076 82.734911,5.4278783 66.114777,7.9443071 47.080627,10.833811 11.184941,30.321504 10.087661,48.946003 c -1.0972803,18.624499 9.89015,28.309823 20.072908,36.868607 31.894272,26.83947 4.710989,28.76337 28.324454,44.66661 z"
           id="path36" />
        <path
           fill="#076b75"
           d="m 73.122738,27.322272 c -2.918764,2.187244 -6.986016,6.43006 -10.394899,8.983065 4.184295,-7.69559 6.166714,-7.432243 8.624621,-10.724083 -3.664915,0.409651 -9.370771,1.375258 -12.413894,1.719072 -0.234087,-0.343814 -0.468173,-0.680313 -0.70226,-1.024128 1.316736,-1.126541 2.062887,-1.675181 3.489351,-1.8288 4.242816,-0.453542 9.048902,-1.784909 13.313664,-1.470355 0.877824,0.06584 0.950976,1.653235 0.870508,2.699309 -0.307238,3.913632 -0.38039,8.032089 -1.133855,11.894515 -0.182881,0.92903 -0.234087,1.989734 -0.724205,2.867558 -0.658368,-0.775411 -0.972922,-2.106777 -1.08265,-2.962656 -0.343814,-2.633472 0.277978,-6.956755 0.153619,-10.153497 z M 84.490559,15.296083 c 2.384755,-1.126541 5.881421,-3.547872 8.668512,-4.864608 -4.081882,4.849978 -5.442509,4.381805 -7.66633,6.349594 2.655418,0.241401 6.839712,0.38039 9.048903,0.5779 0.117043,0.277978 0.234086,0.54864 0.351129,0.826618 -1.09728,0.607162 -1.704441,0.885139 -2.735885,0.790042 -3.072384,-0.292608 -6.671462,-0.04389 -9.648748,-0.88514 -0.614477,-0.175564 -0.431597,-1.30942 -0.226771,-2.04094 0.782726,-2.72857 1.433779,-5.640019 2.523744,-8.2734915 0.263347,-0.6364224 0.453542,-1.3752576 0.92903,-1.9238976 0.35113,0.6437376 0.38039,1.6386048 0.336499,2.2530816 -0.138989,1.9385285 -1.207008,4.9084995 -1.580083,7.1908415 z"
           id="path38" />
        <ellipse
           cx="88.924004"
           cy="25.528"
           fill="#000000"
           rx="6.2909999"
           ry="4.316"
           transform="rotate(-23.284,88.924,25.528)"
           id="ellipse40" />
        <path
           fill="#076b75"
           d="m 91.659455,39.085113 c 2.553005,8.449056 20.862955,19.363334 18.529405,8.353958 -3.45278,-7.256678 -7.33715,-10.826496 -10.365642,-15.171724 z"
           id="path42" />
        <path
           fill="#ffffff"
           d="m 101.12532,31.813804 c 1.61666,2.157984 3.91364,4.235501 5.20111,6.839712 0.20483,1.455725 -0.83393,2.370125 -1.48499,3.489351 -1.48498,0.76078 -3.24063,0.716889 -4.66709,-0.109728 -2.28966,-2.384755 -3.708809,-5.266944 -5.574185,-7.966253 z M 89.384428,39.8971 c 1.309421,5.420563 10.204703,11.733581 10.468051,2.165299 -2.289658,-2.384755 -3.708807,-5.266943 -5.574183,-7.966252 z"
           id="path44" />
        <path
           fill="#f5d1a1"
           d="m 90.657273,29.494886 c -2.538375,0.680314 -5.127956,0.219456 -6.656833,0.965606 -7.066483,3.423514 -1.66055,13.620903 4.279392,12.077395 6.971386,-1.806854 4.418381,-4.513478 8.74898,-6.9787 1.638604,-0.929031 5.471768,-0.05852 6.356908,-3.803904 0.95098,-4.00873 -3.438144,-7.834579 -5.896051,-7.476134 -3.057753,0.438911 -4.294022,4.535423 -6.832396,5.215737 z M 76.056133,135.94567 c -2.94071,1.56546 -5.259628,6.48127 -7.359091,8.77824 -1.938528,2.28235 -3.533241,0.73884 -3.884371,0.43892 -0.438912,-0.0366 -0.292608,0.28529 -1.089965,-0.0878 -3.48935,-2.67736 1.762964,-8.41248 3.555188,-10.99474 3.12359,-1.83612 6.225235,0.24872 8.778239,1.86537 z"
           id="path46" />
        <path
           fill="#35aac6"
           d="m 52.069593,118.90858 c 0.482803,1.36062 -7.783373,3.16748 -12.589459,8.80018 -3.82585,4.48422 -9.977933,0.94366 -10.533888,-0.61448 -0.702259,-1.98242 -0.307238,-5.83753 7.359091,-8.55878 7.673645,-2.71394 15.420441,-0.59985 15.764256,0.37308 z"
           id="path48" />
        <path
           fill="#0a0f2b"
           d="m 93.773548,56.268518 c -4.9085,-5.003597 -8.895284,8.588044 -22.260154,15.164409 -9.231782,4.535424 -47.526854,9.473184 -47.526854,9.473184 0,0 18.770803,40.284809 25.244755,40.906599 6.781191,0.65105 30.767731,-3.88437 43.781472,-8.70509 12.216383,-4.52811 13.233193,-3.84779 12.904013,-21.382328 C 105.58028,74.176127 98.682047,61.264799 93.773548,56.268518 Z M 63.408153,92.134943 c -5.244999,0.431597 -9.670694,-1.367943 -9.89015,-4.02336 -0.219457,-2.655418 3.85511,-5.157216 9.092793,-5.588813 5.237683,-0.431597 9.670694,1.367943 9.89015,4.02336 0.219456,2.648102 -3.847795,5.157216 -9.092793,5.588813 z"
           id="path50" />
        <path
           fill="#e4e4e4"
           d="m 105.96067,96.275346 c -4.55005,3.862424 -59.077554,18.083174 -64.863877,16.707914 0,0 0.651053,1.53619 2.933395,4.22819 2.282343,2.69199 61.096552,-12.03351 61.681762,-15.08394 0.58522,-3.006551 0.24872,-5.852164 0.24872,-5.852164 z"
           id="path52" />
        <path
           fill="#e4e4e4"
           d="m 105.71927,87.738508 c -4.89387,3.935577 -62.837568,19.326762 -68.967706,18.017332 0,0 0.585216,2.37013 2.977287,5.04018 2.39207,2.67005 65.763649,-14.052501 66.165979,-17.219983 0.3365,-2.648102 -0.17556,-5.837529 -0.17556,-5.837529 z"
           id="path54" />
        <path
           fill="#f5d1a1"
           d="m 64.22014,83.912658 c 1.99705,6.620256 2.852928,19.019522 -0.38039,20.336252 -3.116276,1.27285 -8.03209,-10.212015 -9.487815,-17.446748"
           id="path56" />
        <path
           fill="#000000"
           d="M 89.567308,114.29268 C 78.396997,115.65331 76.999794,101.99583 77.75326,94.980556 78.323845,91.988639 76.663295,72.683826 56.078322,81.681522 L 50.972313,76.699871 C 36.656467,58.141209 29.194963,36.180979 42.150182,16.342157 31.448044,21.740774 20.972678,29.151072 15.032736,37.095379 1.46304,34.220505 -7.9369919,40.987065 10.021824,50.496825 c -0.3364993,14.228064 6.532473,23.086771 14.403628,30.350764 -0.292608,0.03658 -0.446227,0.05852 -0.446227,0.05852 0,0 6.239866,13.394131 12.772339,24.857051 0,0 0,0 0,0 0,0 0.585216,2.37013 2.977287,5.04017 0.460857,0.75347 0.921715,1.47767 1.375257,2.17993 0,0 0,0 0,0 0,0 0.651053,1.53619 2.933395,4.22819 0,0 0,0 0,0 -2.370124,0.0219 -5.054803,0.38039 -7.724851,1.33137 -7.673644,2.71393 -8.06135,6.57636 -7.359091,8.55878 0.555955,1.55814 6.708039,5.09869 10.533888,0.61448 2.553005,-2.99192 6.078931,-4.9085 8.756294,-6.24719 0.35113,0.19751 0.680314,0.31456 0.987552,0.34382 1.477671,2.5018 4.198925,5.26694 9.261044,8.67583 2.670047,1.79953 5.51566,3.14553 8.463686,4.07456 -2.026311,2.75052 -6.510528,7.99552 -3.218688,10.51926 0.797357,0.37307 0.643737,0.0512 1.089965,0.0878 0.351129,0.29992 1.945843,1.84343 3.884371,-0.43891 2.018995,-2.21651 4.250131,-6.85434 7.037222,-8.59536 14.132966,0.77541 29.209595,-6.2106 39.216785,-16.96395 -3.67223,1.53619 -15.713048,0.4316 -25.398372,-4.87924 z"
           opacity="0.15"
           id="path58" />
      </g>
      <g
         transform="translate(120.7)"
         id="g96">
        <path
           fill="#84634d"
           fill-rule="nonzero"
           d="M 60.54791,2.5238016 C 46.934323,0.83399038 36.180979,2.5530624 25.032614,9.2830463 16.254374,14.571936 8.5148927,21.477484 4.1330879,30.884832 0.4169664,38.880345 -0.57790079,47.914617 1.5069312,56.436825 v 0 c 0.2487168,1.009497 0.5413248,2.01168 0.8705088,2.999232 0.8851392,2.618841 2.0409407,5.13527 3.3284159,7.585862 1.1631168,2.238451 2.414016,4.425696 3.6868608,6.605626 h 0.01463 c 7.0152773,8.097926 5.2669443,7.3152 10.9581693,11.082527 2.384756,3.123591 4.133088,5.201108 8.039405,7.754112 1.28016,0.833933 21.543264,-4.95239 29.480256,-8.939174 3.255264,-1.631289 8.59536,3.752698 11.667744,4.725619 2.157984,0.687629 5.047488,-0.555955 5.471769,-2.779776 0.665683,-3.569817 -3.204057,-5.544921 -5.084064,-8.639251 C 67.416882,72.661938 55.002988,59.516524 53.474111,54.886002 51.103987,47.702476 50.884531,41.835686 55.961279,36.612633 66.144038,26.137267 75.383135,21.740832 85.756089,20.687443 85.741458,20.680128 76.780338,4.5427967 60.54791,2.5238016 Z"
           id="path62" />
        <path
           stroke="#776356"
           stroke-linecap="round"
           stroke-width="3.658"
           d="m 28.397606,92.456869 c 1.46304,0 21.543264,-4.95239 29.480256,-8.939174 3.255264,-1.63129 8.59536,3.752697 11.667743,4.725619 2.157985,0.687629 5.047488,-0.555955 5.47177,-2.779776 0.665683,-3.569817 -3.204058,-5.544921 -5.084064,-8.639251 C 67.409567,72.654623 54.995673,59.509209 53.466796,54.878687 51.096671,47.695161 50.85527,41.806425 55.953964,36.605318 64.798041,27.578361 75.37582,21.733516 85.748773,20.680128"
           id="path64" />
        <path
           fill="#66554a"
           fill-rule="nonzero"
           d="m 23.116032,86.034124 c 0.585216,0.109728 1.163117,0.168249 1.741017,0.19751 2.574951,0.131674 5.442509,-0.490118 6.956755,-2.582266 1.016813,-1.411833 1.2509,-3.277209 0.965607,-4.996281 C 32.486803,76.9267 31.733337,75.331986 30.914035,73.795794 29.385158,70.90629 27.592934,68.097253 25.113081,65.975846 22.633229,63.854438 19.38528,62.46455 16.144646,62.801049 c -3.247949,0.329184 -6.3642237,2.633472 -7.0957437,5.815584 -0.3584448,1.550822 -0.18288,3.284524 0.3438144,5.003596 1.0460733,3.511296 3.5332413,6.993332 5.9253123,8.909914 2.172614,1.733702 4.996281,3.021178 7.798003,3.503981 z"
           id="path66" />
        <ellipse
           cx="19.271"
           cy="75.907997"
           fill="#84634d"
           fill-rule="nonzero"
           rx="5.0110002"
           ry="8.2589998"
           transform="rotate(-41.087,19.271,75.908)"
           id="ellipse68" />
        <ellipse
           cx="19.466999"
           cy="75.737"
           fill="#66554a"
           fill-rule="nonzero"
           rx="4.1550002"
           ry="6.8540001"
           transform="rotate(-41.087,19.467,75.737)"
           id="ellipse70" />
        <path
           fill="#423833"
           fill-rule="nonzero"
           d="m 56.626962,16.495833 c 0.07315,0.06584 0.131674,0.138989 0.190196,0.204826 1.170432,1.331366 2.04094,2.91145 2.567635,4.601261 2.465222,-3.606394 6.488582,-6.115507 10.819181,-6.759245 -0.204826,-0.263347 -0.373076,-0.541325 -0.53401,-0.833933 -0.672998,-1.207008 -1.08265,-2.545689 -1.397203,-3.8916861 0,-0.021946 -0.01463,-0.058522 -0.02195,-0.080467 -4.542739,0.6437371 -8.79287,3.1235901 -11.623853,6.7592441 z M 1.499616,56.436825 c 0.2487168,1.009497 0.5413248,2.01168 0.8705088,2.999232 0.8851392,2.618841 2.0409407,5.13527 3.3284159,7.585862 C 13.979347,59.084927 36.875923,42.779347 45.149414,34.842355 41.945356,32.940403 39.670329,29.670508 38.946124,26.027539 31.067654,33.079392 8.8221311,48.799756 1.499616,56.436825 Z"
           id="path72" />
        <g
           fill-rule="nonzero"
           transform="translate(37.037,9.51)"
           id="g82">
          <path
             fill="#99c2d1"
             d="M 10.365696,3.7966464 C 5.5084031,6.2033471 5.4864575,11.214259 6.9714431,15.698477 c 0.6364224,1.931212 2.523744,3.613708 4.2940219,4.498847 2.370125,1.185063 5.296205,1.272845 7.68096,0.117044 2.494483,-1.207008 4.272077,-3.716122 4.703674,-6.444691 C 24.07438,11.133792 23.174611,8.2442879 21.345811,6.1667711 18.690393,3.1455936 13.979405,2.0117376 10.365696,3.7966464 Z"
             id="path74" />
          <polygon
             fill="#cce0e5"
             points="15.706,8.588 18.42,3.241 15.084,1.851 11.704,8.778 15.164,12.677 10.475,21.207 13.818,22.597 19.385,12.743 "
             id="polygon76" />
          <path
             fill="#bd8864"
             d="m 0.27071999,16.795757 c 0.67299839,3.394252 2.71393921,6.525158 5.61075831,8.449055 0.1901952,0.131674 0.3877056,0.248717 0.585216,0.36576 0.5413248,0.314554 1.1045952,0.585216 1.7044416,0.797357 2.3042881,0.790042 4.8792381,0.53401 7.1396351,-0.373075 1.909267,-0.760781 3.606394,-1.938528 5.157216,-3.284525 -0.08778,0.04389 -0.18288,0.0951 -0.285293,0.146304 -3.130905,1.514247 -6.956755,1.397203 -10.0584,-0.160934 C 7.8126911,21.579897 5.3474687,19.378022 4.5062207,16.846963 2.9261376,12.070137 2.64816,6.8397695 6.0350975,3.3577344 2.4579648,5.6547071 0.13173119,9.7877951 0.02931839,14.037926 c -0.0219456,0.921715 0.0585216,1.843431 0.2414016,2.757831 z"
             id="path78" />
          <path
             fill="#966b4e"
             d="m 23.320915,4.3672319 c 1.170432,1.3313664 2.040941,2.9114496 2.567635,4.6012608 0.555955,1.7629633 0.724205,3.6576003 0.438912,5.4864003 -0.53401,3.467404 -2.75783,6.671462 -5.86679,8.295436 -0.08778,0.04389 -0.18288,0.0951 -0.285293,0.146304 -3.130906,1.514247 -6.956755,1.397203 -10.0584,-0.160934 C 7.8053759,21.579897 5.3401535,19.378022 4.4989055,16.846963 2.9188224,12.070137 2.6408448,6.8397695 6.0277823,3.3577344 6.7958783,2.5603776 7.7614847,1.8508032 8.9392319,1.2729024 13.584384,-1.0387008 19.612109,0.35850239 23.116089,4.1697215 c 0.08047,0.058522 0.146304,0.1243584 0.204826,0.1975104 z m -0.475488,0.1536192 c 0.04389,-0.058522 0.08047,-0.109728 0.124358,-0.1682496 -0.06584,0.029261 -0.131673,0.095098 -0.124358,0.1682496 z M 11.265465,20.20464 c 2.370125,1.185062 5.296205,1.272844 7.68096,0.117043 2.494483,-1.207008 4.272077,-3.716122 4.703674,-6.444691 C 24.07438,11.141107 23.174611,8.2516031 21.345811,6.1740863 18.690393,3.1455936 13.972089,2.0117376 10.365696,3.7966464 5.5084031,6.2033471 5.4864575,11.214259 6.9714431,15.698477 c 0.6437376,1.938528 2.523744,3.613708 4.2940219,4.506163 z"
             id="path80" />
        </g>
        <g
           fill-rule="nonzero"
           transform="translate(66.568)"
           id="g92">
          <path
             fill="#99c2d1"
             d="m 4.7987711,4.0599935 c -1.5288767,2.157984 -0.8997695,5.66928 0.804672,8.1783935 2.3116032,3.394253 5.0694339,3.979469 8.3539579,3.240634 1.002183,-0.226772 2.099463,-1.360628 2.494484,-2.340864 0.39502,-1.002183 0.248716,-2.238451 -0.06584,-3.3723075 C 15.647213,7.0665407 13.942771,4.4476991 11.587277,3.1163328 9.2171519,1.7922816 6.2179199,2.0483136 4.7987711,4.0599935 Z"
             id="path84" />
          <polygon
             fill="#cce0e5"
             points="12.121,6.569 13.87,2.685 11.521,1.77 9.349,6.803 11.843,9.51 8.8,15.72 11.148,16.635 14.777,9.459 "
             id="polygon86" />
          <path
             fill="#bd8864"
             d="m 2.2457664,14.769446 c 0.00732,0.02195 0.029261,0.04389 0.036576,0.06584 0.5925312,1.024128 1.243584,2.018995 2.0482559,2.867558 0.1901952,0.204826 0.3877056,0.395021 0.6071616,0.570586 1.9824192,1.726387 4.608576,2.472537 6.8982341,2.048256 1.67518,-0.307239 3.152851,-1.185062 4.286707,-2.443277 0.438912,-0.482803 0.826617,-1.016813 1.155801,-1.594713 C 16.65671,16.9128 15.917875,17.417549 15.215616,17.571168 10.841126,18.551405 7.1835263,17.775993 4.1038271,13.2552 1.8361152,9.9194687 0.99486719,5.2523711 3.0284928,2.3848128 3.1016448,2.2824 3.1747968,2.1873024 3.255264,2.0848896 L 3.7161216,1.5947712 C 3.4527744,1.7483904 3.2406336,1.7995968 2.5164288,2.6335296 1.5581376,4.0307327 0.88513919,5.7644351 0.51937919,7.5200831 -0.0438912,10.204762 0.77541119,12.238387 2.2457664,14.769446 Z"
             id="path88" />
          <path
             fill="#966b4e"
             d="M 15.215616,17.571168 C 10.841126,18.551405 7.1835263,17.775993 4.1038271,13.2552 1.8361152,9.9194687 0.99486719,5.2523711 3.0284928,2.3848128 3.1016448,2.2824 3.1747968,2.1873024 3.255264,2.0848896 5.2303679,-0.3218112 9.0489023,-0.570528 12.062765,1.1339136 12.479731,1.368 13.306349,2.0336832 13.36487,2.0044224 c 2.326234,1.792224 4.037991,4.5573695 4.92313,7.4395583 0.05852,0.18288 0.109728,0.3584448 0.160934,0.5340096 0.409651,1.5142467 0.614477,3.1528507 0.08778,4.4769027 -0.248717,0.607161 -0.70226,1.272844 -1.2509,1.821484 -0.629107,0.636423 -1.367942,1.133856 -2.070201,1.294791 z m -1.258215,-2.092147 c 1.002183,-0.226772 2.099463,-1.360628 2.494484,-2.340864 0.39502,-1.002183 0.248716,-2.238451 -0.06584,-3.3723075 C 15.647213,7.0665407 13.942771,4.4476991 11.587277,3.1163328 9.2171519,1.7922816 6.2252351,2.0409984 4.7987711,4.0599935 c -1.5288767,2.157984 -0.8997695,5.66928 0.804672,8.1783935 2.3116032,3.394253 5.0694339,3.979469 8.3539579,3.240634 z"
             id="path90" />
        </g>
        <path
           fill="#000000"
           fill-rule="nonzero"
           d="M 25.032614,9.2830463 C 16.254374,14.571936 8.5148927,21.477484 4.1330879,30.884832 0.4169664,38.880345 -0.57790079,47.914617 1.5069312,56.436825 v 0 c 0.2487168,1.009497 0.5413248,2.01168 0.8705088,2.999232 0.438912,1.309421 0.950976,2.589581 1.5142464,3.85511 0.5632703,1.26553 1.1704319,2.501799 1.8141695,3.730752 v 0 c 1.1631168,2.238451 2.414016,4.425696 3.6868608,6.605626 h 0.01463 v 0 c 1.0460743,3.511296 3.5332423,6.993331 5.9253123,8.909913 1.609344,1.294791 3.584448,2.333549 5.647334,2.977287 1.770279,2.282342 3.321101,4.02336 5.917997,5.910681 -0.204825,0.292608 -0.329184,0.651053 -0.329184,1.038758 0,1.009498 0.819303,1.8288 1.8288,1.8288 0,0 0,0 0,0 2.092147,0 22.362566,-5.1499 30.299558,-9.136684 1.207008,-0.599847 4.140403,1.287475 6.078931,2.538374 1.506931,0.972922 2.92608,1.887322 4.213555,2.296973 1.682496,0.534009 3.64297,0.285293 5.244999,-0.665683 1.389888,-0.826618 2.304288,-2.077517 2.582265,-3.518612 C 40.416479,69.033599 11.111789,39.882528 25.032614,9.2830463 Z"
           opacity="0.21"
           id="path94" />
      </g>
      <path
         fill="#e6ae02"
         fill-rule="nonzero"
         d="M 114.98763,127.17481 394.02593,31.5432 117.60647,211.30692 c -5.16453,3.35768 -11.90915,-0.79736 -11.22883,-6.92018 z"
         id="path98" />
      <path
         fill="#f5d1a1"
         fill-rule="nonzero"
         d="m 188.57854,95.156178 c 1.99705,6.620252 2.85293,19.019522 -0.38039,20.336252 -3.11628,1.27285 -9.10011,-13.08689 -9.48782,-17.446748 1.77028,-4.345229 9.86821,-2.889504 9.86821,-2.889504 z"
         id="path100" />
      <g
         fill="#000000"
         fill-rule="nonzero"
         opacity="0.5"
         transform="translate(0,104.607)"
         id="g106">
        <path
           d="m 41.886835,36.100569 -0.0951,-0.270662 c -0.299923,-0.870509 0.160934,-1.821485 1.038758,-2.114093 L 109.4866,10.841184 c 0.87051,-0.299923 1.82148,0.16825 2.11409,1.038758 l 0.0951,0.270663 c 0.29992,0.870508 -0.16825,1.821484 -1.03876,2.114092 l -66.656103,22.87463 c -0.863193,0.299924 -1.814169,-0.168249 -2.114092,-1.038758 z M 63.47399,13.547808 63.37889,13.277145 c -0.299923,-0.870508 0.16825,-1.821484 1.038758,-2.114092 L 96.172933,0.26340479 c 0.870509,-0.2999232 1.821485,0.1682496 2.114093,1.03875841 l 0.0951,0.2706624 c 0.299923,0.8705088 -0.16825,1.8214848 -1.038759,2.1140928 L 65.588082,14.586566 c -0.863193,0.292608 -1.814169,-0.168249 -2.114092,-1.038758 z"
           id="path102" />
        <path
           d="m 34.388755,25.127712 0.0951,0.270662 c 0.299924,0.870509 1.243584,1.331366 2.114093,1.031443 L 103.25405,3.5551872 c 0.87051,-0.2999232 1.33136,-1.243584 1.03876,-2.1140928 l -0.0951,-0.2706624 c -0.29993,-0.8705088 -1.24359,-1.3313664 -2.1141,-1.0387584 L 35.427513,23.006304 c -0.877824,0.307238 -1.338681,1.250899 -1.038758,2.121408 z m 30.987187,4.849977 0.0951,0.277978 c 0.299923,0.870509 1.243584,1.331366 2.114093,1.031443 L 99.3331,20.387462 c 0.87051,-0.299923 1.33137,-1.243584 1.03876,-2.114093 l -0.0951,-0.270662 C 99.976837,17.132198 99.033176,16.671341 98.162668,16.963949 L 66.407385,27.863596 c -0.863194,0.299924 -1.324051,1.243584 -1.031443,2.114093 z M 0.49011839,37.066118 0.39502079,36.795456 C 0.0950976,35.924947 0.56327039,34.973971 1.4337792,34.681363 L 15.734995,29.772864 c 0.870509,-0.299924 1.821485,0.168249 2.114093,1.038758 l 0.0951,0.270662 c 0.299924,0.870509 -0.168249,1.821485 -1.038758,2.114093 L 2.6042112,38.104876 C 1.7410176,38.4048 0.79004159,37.936627 0.49011839,37.066118 Z"
           transform="translate(0,30.263)"
           id="path104" />
      </g>
    </g>
    <circle
       cx="51"
       cy="370"
       r="150"
       fill="#e6ae02"
       id="circle110" />
    <circle
       cx="51"
       cy="370"
       r="170"
       stroke="url(#traefik-pilot-forum-header-a)"
       stroke-linecap="round"
       stroke-linejoin="round"
       stroke-width="3.2"
       id="circle112"
       style="stroke:url(#linearGradient910)" />
    <path
       fill="url(#traefik-pilot-forum-header-b)"
       fill-rule="nonzero"
       d="m 472.13442,59.519069 c 1.75881,-2.018807 3.51866,-4.009268 5.27953,-5.971386 0.73775,-0.822067 0.6694,-2.086551 -0.15266,-2.824304 -0.82207,-0.737752 -2.08656,-0.669401 -2.82431,0.152666 -1.77403,1.976776 -3.54687,3.981936 -5.31852,6.01548 -0.72557,0.832834 -0.63862,2.096176 0.19421,2.821752 0.83284,0.725576 2.09618,0.638626 2.82175,-0.194208 z M 491.0141,38.977862 c 1.86411,-1.917126 3.72935,-3.80267 5.59572,-5.656632 0.78365,-0.778439 0.78788,-2.044761 0.009,-2.828411 -0.77844,-0.78365 -2.04476,-0.787874 -2.82841,-0.0094 -1.88286,1.870339 -3.76438,3.772334 -5.64455,5.705986 -0.77002,0.791922 -0.75227,2.058128 0.0396,2.828149 0.79193,0.770021 2.05813,0.752266 2.82815,-0.03966 z m 20.04116,-19.355011 c 1.98414,-1.792398 3.96953,-3.549319 5.95618,-5.270765 0.83478,-0.72334 0.92511,-1.986444 0.20177,-2.82122 -0.72334,-0.834777 -1.98644,-0.925114 -2.82122,-0.201774 -2.00756,1.739571 -4.0136,3.514755 -6.0181,5.32555 -0.81965,0.740439 -0.88386,2.00514 -0.14342,2.824789 0.74044,0.819648 2.00514,0.88386 2.82479,0.14342 z M 532.39555,1.7499711 c 2.11655,-1.63392669 4.23448,-3.2278453 6.35381,-4.7817601 0.89078,-0.6531319 1.08343,-1.9047214 0.4303,-2.7955034 -0.65313,-0.8907819 -1.90472,-1.0834354 -2.7955,-0.4303035 -2.14605,1.5735124 -4.29036,3.187274 -6.43291,4.8412807 -0.87435,0.67497645 -1.03597,1.93095028 -0.36099,2.8052961 0.67497,0.8743458 1.93095,1.0359666 2.80529,0.3609902 z M 555.1544,-14.243691 c 2.25536,-1.429554 4.51227,-2.814115 6.77072,-4.153692 0.95003,-0.563496 1.26337,-1.790447 0.69988,-2.740471 -0.5635,-0.950024 -1.79045,-1.263367 -2.74048,-0.699871 -2.29251,1.359779 -4.58303,2.764962 -6.87157,4.215542 -0.93294,0.591344 -1.20986,1.827024 -0.61852,2.759969 0.59134,0.932945 1.82703,1.209867 2.75997,0.618523 z m 24.20458,-13.585991 c 2.39342,-1.170662 4.78855,-2.29118 7.18541,-3.361565 1.00857,-0.450404 1.46105,-1.633135 1.01065,-2.641703 -0.4504,-1.008568 -1.63313,-1.46105 -2.6417,-1.010646 -2.43951,1.089431 -4.8768,2.229668 -7.31186,3.420702 -0.99224,0.485322 -1.40318,1.683121 -0.91785,2.675359 0.48532,0.992238 1.68312,1.403175 2.67535,0.917853 z m 25.63999,-10.600948 c 2.51594,-0.850877 5.03381,-1.646965 7.55362,-2.388278 1.05966,-0.311747 1.66597,-1.423495 1.35422,-2.483159 -0.31175,-1.059664 -1.42349,-1.66597 -2.48316,-1.354223 -2.57111,0.756406 -5.13983,1.568573 -7.70615,2.436489 -1.04635,0.35387 -1.60772,1.488973 -1.25385,2.535324 0.35387,1.046351 1.48897,1.607717 2.53532,1.253847 z m 26.82549,-6.9832 c 2.60213,-0.475894 5.2064,-0.893879 7.81283,-1.253964 1.09418,-0.151163 1.85864,-1.160711 1.70748,-2.254888 -0.15117,-1.094177 -1.16071,-1.858641 -2.25489,-1.707478 -2.6641,0.368053 -5.32579,0.795253 -7.98503,1.281593 -1.08655,0.198714 -1.80628,1.240626 -1.60757,2.327173 0.19872,1.086548 1.24063,1.806279 2.32718,1.607564 z m 27.54608,-2.872927 c 2.63491,-0.06897 5.27214,-0.07928 7.91171,-0.03094 1.10438,0.02022 2.01606,-0.858659 2.03628,-1.963044 0.0202,-1.104384 -0.85866,-2.01606 -1.96304,-2.036285 -2.69884,-0.04942 -5.39539,-0.03888 -8.08961,0.03164 -1.10419,0.0289 -1.97589,0.947454 -1.94699,2.051646 0.0289,1.104191 0.94746,1.975886 2.05165,1.946985 z m 27.57777,1.408923 c 2.4247,0.31006 4.85146,0.669186 7.2803,1.077386 l 0.54243,0.09284 c 1.08816,0.189652 2.12404,-0.538737 2.31369,-1.626903 0.18966,-1.088166 -0.53873,-2.124043 -1.6269,-2.313696 l -0.56626,-0.09692 c -2.48045,-0.416874 -4.95908,-0.783677 -7.43589,-1.100399 -1.09565,-0.140106 -2.09742,0.634513 -2.23753,1.730161 -0.14011,1.095648 0.63451,2.097424 1.73016,2.237531 z m 26.04078,7.258669 c 2.29745,1.351158 4.25852,2.872697 5.89952,4.565023 0.76893,0.792982 2.03511,0.812479 2.82809,0.04355 0.79298,-0.76893 0.81248,-2.03511 0.0436,-2.828091 -1.89743,-1.95678 -4.14314,-3.699161 -6.7434,-5.228404 -0.95212,-0.559951 -2.17789,-0.242037 -2.73784,0.710081 -0.55995,0.952118 -0.24204,2.177892 0.71008,2.737843 z m 12.56622,21.413146 c 0.0942,2.384972 -0.0362,4.934585 -0.38781,7.655053 -0.14158,1.0954583 0.63169,2.0982786 1.72715,2.2398622 1.09545,0.1415837 2.09827,-0.6316842 2.23986,-1.7271422 0.37931,-2.934782 0.52111,-5.707273 0.41769,-8.32564 -0.0436,-1.103709 -0.97367,-1.963102 -2.07738,-1.919508 -1.10371,0.04359 -1.9631,0.973666 -1.91951,2.077375 z m -5.32132,26.6395364 c -0.85047,2.3606316 -1.80231,4.8142436 -2.85724,7.3703696 -0.42138,1.021033 0.0647,2.190344 1.08576,2.611729 1.02104,0.421386 2.19035,-0.06472 2.61173,-1.085757 1.07744,-2.610674 2.05119,-5.120766 2.92297,-7.5405564 0.37439,-1.0391853 -0.16453,-2.1851143 -1.20372,-2.559504 -1.03918,-0.3743898 -2.18511,0.1645335 -2.5595,1.2037188 z M 709.10577,33.852602 c -1.12828,2.280132 -2.32294,4.644189 -3.59411,7.114577 -0.50539,0.982169 -0.11888,2.188073 0.86329,2.693461 0.98217,0.505388 2.18807,0.11888 2.69346,-0.863289 l 1.07906,-2.107572 c 0.88404,-1.73561 1.73059,-3.420574 2.5434,-5.063162 0.48988,-0.989995 0.0844,-2.189672 -0.90554,-2.679552 -0.99,-0.489881 -2.18967,-0.08446 -2.67956,0.905537 z m -12.92401,24.696927 -3.82269,7.017184 c -0.52983,0.969202 -0.17365,2.184409 0.79555,2.71424 0.96921,0.529832 2.18441,0.173652 2.71425,-0.79555 l 2.85862,-5.241793 c 0.33038,-0.60764 0.65301,-1.201763 0.97051,-1.787237 0.52656,-0.970983 0.16629,-2.184982 -0.8047,-2.711542 -0.97098,-0.526561 -2.18498,-0.166285 -2.71154,0.804698 z m -13.43059,24.582608 -2.43728,4.490164 -1.37929,2.554465 v 0 c -0.52391,0.972416 -0.16032,2.185428 0.81209,2.709337 0.97242,0.52391 2.18543,0.160324 2.70934,-0.812092 l 3.47191,-6.411183 c 0.11145,-0.204899 0.22359,-0.410967 0.33643,-0.618258 0.5281,-0.970145 0.16976,-2.184715 -0.80039,-2.712819 -0.97014,-0.528103 -2.18471,-0.169758 -2.71281,0.800386 z m -13.1787,24.784543 -1.48048,2.89324 c -0.73046,1.43507 -1.44653,2.85339 -2.1494,4.25765 -0.49439,0.98774 -0.0945,2.18926 0.8933,2.68366 0.98775,0.49439 2.18926,0.0944 2.68366,-0.8933 1.16475,-2.32704 2.36624,-4.69351 3.61,-7.11173 0.50521,-0.98227 0.11848,-2.1881 -0.86378,-2.69331 -0.98227,-0.5052 -2.1881,-0.11847 -2.6933,0.86379 z m -12.32894,25.30074 c -1.13002,2.47957 -2.2187,4.92615 -3.26725,7.34425 -0.43944,1.0134 0.0258,2.19115 1.03925,2.63058 1.01339,0.43944 2.19114,-0.0258 2.63058,-1.03924 1.0386,-2.39516 2.11729,-4.81929 3.23726,-7.2768 0.45806,-1.00512 0.0146,-2.19126 -0.99053,-2.64932 -1.00511,-0.45806 -2.19125,-0.0146 -2.64931,0.99053 z m -10.7583,26.00055 c -0.93941,2.56091 -1.82892,5.09319 -2.66844,7.59912 -0.35087,1.04736 0.21374,2.18085 1.2611,2.53173 1.04735,0.35087 2.18085,-0.21374 2.53172,-1.26109 0.82735,-2.46962 1.70436,-4.96629 2.63093,-7.49221 0.3804,-1.037 -0.15187,-2.18603 -1.18887,-2.56643 -1.037,-0.3804 -2.18603,0.15188 -2.56644,1.18888 z m -8.27214,26.95548 c -0.64046,2.66122 -1.21639,5.29289 -1.72698,7.89631 -0.21258,1.08392 0.49378,2.13494 1.5777,2.34753 1.08392,0.21258 2.13494,-0.49378 2.34752,-1.5777 0.49955,-2.5471 1.06336,-5.12343 1.69072,-7.73021 0.25845,-1.07391 -0.40261,-2.154 -1.47652,-2.41245 -1.07391,-0.25845 -2.15399,0.40261 -2.41244,1.47652 z m -4.38703,27.94034 c -0.17691,2.7399 -0.26945,5.44633 -0.27627,8.11998 -0.003,1.10456 0.89034,2.00227 1.99491,2.00509 1.10456,0.003 2.00227,-0.89033 2.00509,-1.9949 0.007,-2.59016 0.0963,-5.21408 0.26796,-7.87244 0.0712,-1.10227 -0.7647,-2.05354 -1.86698,-2.12471 -1.10227,-0.0712 -2.05354,0.76471 -2.12471,1.86698 z m 1.44685,28.3874 c 0.48432,2.69422 1.07197,5.35037 1.76458,7.96864 0.28247,1.06784 1.37712,1.70451 2.44496,1.42204 1.06784,-0.28248 1.7045,-1.37712 1.42203,-2.44496 -0.6649,-2.51353 -1.22929,-5.06454 -1.69468,-7.65344 -0.19543,-1.08714 -1.23516,-1.81002 -2.3223,-1.61459 -1.08715,0.19543 -1.81002,1.23516 -1.61459,2.32231 z m 9.02284,27.03341 c 0.41174,0.81128 0.83562,1.61821 1.2717,2.42076 0.87976,1.61843 1.78153,3.1875 2.71388,4.72285 0.57332,0.94413 1.80346,1.24472 2.74759,0.6714 0.94412,-0.57333 1.24472,-1.80346 0.67139,-2.74759 -0.89911,-1.48061 -1.7691,-2.99439 -2.61836,-4.55669 -0.41802,-0.76934 -0.82449,-1.54312 -1.21929,-2.32102 -0.4999,-0.98497 -1.70362,-1.37821 -2.6886,-0.87831 -0.98497,0.49989 -1.37821,1.70362 -0.87831,2.6886 z m 16.19252,23.45782 c 1.85361,2.01779 3.77959,3.94495 5.77689,5.78228 0.81292,0.74782 2.07815,0.69504 2.82597,-0.11788 0.74781,-0.81292 0.69504,-2.07815 -0.11789,-2.82597 -1.91482,-1.76147 -3.76151,-3.60929 -5.53923,-5.54447 -0.74726,-0.81345 -2.01245,-0.8671 -2.82589,-0.11985 -0.81344,0.74725 -0.8671,2.01244 -0.11985,2.82589 z m 22.14997,17.93299 c 2.32744,1.37847 4.72074,2.66962 7.17873,3.87449 0.99182,0.48617 2.18997,0.0763 2.67615,-0.91556 0.48617,-0.99182 0.0763,-2.18997 -0.91555,-2.67614 -2.36406,-1.15883 -4.66468,-2.39997 -6.90094,-3.72445 -0.95039,-0.56288 -2.17714,-0.24875 -2.74003,0.70163 -0.56288,0.95039 -0.24875,2.17714 0.70164,2.74003 z m 26.17603,11.12923 c 2.57159,0.73701 5.19502,1.40091 7.86926,1.99274 1.07848,0.23867 2.14624,-0.44212 2.38491,-1.52059 0.23868,-1.07848 -0.44212,-2.14624 -1.52059,-2.38491 -2.59517,-0.57433 -5.13934,-1.21818 -7.63156,-1.93243 -1.06183,-0.30432 -2.1693,0.30976 -2.47361,1.37159 -0.30431,1.06182 0.30977,2.16929 1.37159,2.4736 z m 27.92298,5.01628 c 2.6524,0.22998 5.3431,0.40187 8.07122,0.51657 1.10359,0.0464 2.03585,-0.81063 2.0823,-1.91422 0.0464,-1.1036 -0.81068,-2.03586 -1.91427,-2.08225 -2.66948,-0.11224 -5.30102,-0.28035 -7.89372,-0.50515 -1.10044,-0.0954 -2.06987,0.71931 -2.16529,1.81975 -0.0954,1.10045 0.71932,2.06988 1.81976,2.1653 z m 28.28433,0.36932 c 2.65363,-0.14094 5.33463,-0.32791 8.0422,-0.56012 1.10053,-0.0944 1.91618,-1.06305 1.82179,-2.16358 -0.0944,-1.10053 -1.06305,-1.91617 -2.16358,-1.82179 -2.66483,0.22854 -5.30262,0.4125 -7.91256,0.55112 -1.10301,0.0586 -1.94969,1.00024 -1.89111,2.10326 0.0586,1.10301 1.00025,1.94969 2.10326,1.89111 z m 28.01542,-3.00782 c 2.62866,-0.41348 5.2759,-0.864 7.941,-1.35079 1.08659,-0.19847 1.80656,-1.24022 1.60809,-2.32681 -0.19847,-1.08659 -1.24022,-1.80656 -2.32681,-1.60809 -2.63307,0.48094 -5.24794,0.92595 -7.84383,1.33427 -1.09115,0.17164 -1.83657,1.19533 -1.66493,2.28648 0.17163,1.09115 1.19532,1.83657 2.28648,1.66494 z m 27.60754,-5.51543 c 2.58857,-0.62026 5.18777,-1.27034 7.79687,-1.94946 1.06895,-0.27823 1.70996,-1.37034 1.43172,-2.4393 -0.27824,-1.06895 -1.37035,-1.70995 -2.4393,-1.43172 -2.58421,0.67264 -5.15825,1.31643 -7.72136,1.93059 -1.07417,0.25738 -1.7363,1.33682 -1.47891,2.41098 0.25738,1.07416 1.33682,1.73629 2.41098,1.47891 z m 27.12206,-7.44722 c 2.5492,-0.78491 5.10051,-1.59338 7.65313,-2.42451 1.0503,-0.34197 1.62451,-1.47064 1.28253,-2.52093 -0.34198,-1.0503 -1.47064,-1.62451 -2.52093,-1.28253 -2.53241,0.82455 -5.06329,1.62654 -7.59182,2.40509 -1.05566,0.32504 -1.64794,1.44433 -1.3229,2.49999 0.32505,1.05566 1.44433,1.64794 2.49999,1.32289 z m 26.648,-9.01067 c 2.51603,-0.92451 5.02196,-1.86565 7.51701,-2.82233 1.03135,-0.39546 1.54685,-1.55211 1.15139,-2.58346 -0.39545,-1.03136 -1.5521,-1.54686 -2.58346,-1.1514 -2.47776,0.95005 -4.96621,1.88462 -7.46455,2.80263 -1.03679,0.38097 -1.56844,1.53029 -1.18747,2.56708 0.38096,1.03679 1.53028,1.56844 2.56708,1.18748 z m 26.14148,-10.32779 c 2.49495,-1.05418 4.9522,-2.11204 7.37292,-3.17268 1.01171,-0.44328 1.47252,-1.6228 1.02923,-2.63451 -0.44328,-1.01172 -1.62279,-1.47253 -2.63451,-1.02924 -2.4048,1.05366 -4.84591,2.10458 -7.32447,3.15182 -1.01747,0.42991 -1.49379,1.60324 -1.06389,2.62071 0.42991,1.01748 1.60324,1.4938 2.62072,1.0639 z m 25.57943,-11.5131 6.99857,-3.36941 c 1.01065,-0.44571 1.46863,-1.62632 1.02293,-2.63697 -0.44571,-1.01065 -1.62632,-1.46863 -2.63698,-1.02293 l -7.11077,3.42098 c -0.99642,0.47669 -1.41773,1.67088 -0.94104,2.66729 0.47669,0.99641 1.67087,1.41773 2.66729,0.94104 z"
       id="path114"
       style="fill:url(#traefik-pilot-forum-header-b)" />
    <path
       stroke="url(#traefik-pilot-forum-header-a)"
       stroke-linecap="round"
       stroke-linejoin="round"
       stroke-width="3.2"
       d="m 1225,324 c -38.6599,0 -70,31.34007 -70,70 0,38.65993 31.3401,70 70,70 38.6599,0 70,-31.34007 70,-70 0,-38.65993 -31.3401,-70 -70,-70 z"
       id="path116"
       style="stroke:url(#linearGradient912)" />
    <circle
       cx="1420.5"
       cy="263.5"
       r="106.5"
       fill="#e6ae02"
       opacity="0.113"
       id="circle118" />
  </g>
</svg>
