<svg xmlns="http://www.w3.org/2000/svg" xmlns:xlink="http://www.w3.org/1999/xlink" width="1440" height="400" viewBox="0 0 1440 400">
  <defs>
    <radialGradient id="yaegi-community-header-b" cx="76.107%" cy="50%" r="198.363%" fx="76.107%" fy="50%" gradientTransform="matrix(-.27778 0 0 -1 .972 1)">
      <stop offset="0%" stop-color="#FFD7A2"/>
      <stop offset="100%" stop-color="#FFF7EA"/>
    </radialGradient>
    <rect id="yaegi-community-header-a" width="1440" height="400" x="0" y="0"/>
    <radialGradient id="yaegi-community-header-d" cx="50%" cy="50%" r="50%" fx="50%" fy="50%">
      <stop offset="0%" stop-color="#FFF"/>
      <stop offset="100%" stop-color="#FFF" stop-opacity="0"/>
    </radialGradient>
    <linearGradient id="yaegi-community-header-e" x1="50%" x2="50%" y1="20.409%" y2="61.734%">
      <stop offset="0%" stop-color="#4FB3CD"/>
      <stop offset="100%" stop-color="#24A1C1"/>
    </linearGradient>
    <path id="yaegi-community-header-f" d="M180.531938,67.9184249 C191.07744,93.841555 187.350834,121.746576 188.936624,149.175943 C190.363835,172.720804 184.099965,200.7051 173.078726,222.585173 C167.20918,234.281741 144.414123,222.718384 121.778435,222.585173 C100.076459,222.457457 78.4942605,234.178135 73.3325491,225.835474 C61.0426783,205.937292 60.6462309,176.367483 61.5977048,154.170307 C62.6284681,128.00935 54.5409403,101.610566 63.1042051,76.0045389 C72.0639173,49.3679282 96.2472114,43.3429805 122.174874,41.3610899 C146.199589,41.3610899 168.797094,44.8492174 180.531938,67.9184249 Z"/>
    <filter id="yaegi-community-header-g" width="110.8%" height="107.5%" x="-5.4%" y="-3.7%" filterUnits="objectBoundingBox">
      <feGaussianBlur in="SourceAlpha" result="shadowBlurInner1" stdDeviation="5.5"/>
      <feOffset dy="3" in="shadowBlurInner1" result="shadowOffsetInner1"/>
      <feComposite in="shadowOffsetInner1" in2="SourceAlpha" k2="-1" k3="1" operator="arithmetic" result="shadowInnerInner1"/>
      <feColorMatrix in="shadowInnerInner1" values="0 0 0 0 0.654901961   0 0 0 0 0.850980392   0 0 0 0 0.901960784  0 0 0 1 0"/>
    </filter>
    <linearGradient id="yaegi-community-header-i" x1="43.462%" x2="135.162%" y1="63.176%" y2="-.188%">
      <stop offset="0%" stop-color="#E9B170"/>
      <stop offset="100%" stop-color="#F0CB9F"/>
    </linearGradient>
    <path id="yaegi-community-header-h" d="M2.14760576,85.3154143 C2.30618474,84.5226581 2.70263219,83.8091774 3.17836912,83.0956968 C5.62329668,75.3118457 2.57838535,66.5216582 2.38547423,64.4659244 C1.65642618,56.696913 5.63634327,56.9347398 9.28365976,56.696913 C39.334376,55.0321248 99.4358086,21.4985346 130.517288,2.86876221 C134.87821,0.252666513 134.561052,-1.64994854 137.177605,2.5516597 C138.446237,4.612826 138.129079,7.38747295 138.129079,7.38747295 C140.550584,9.15811477 136.285824,26.6724769 135.634277,43.4501232 C134.856434,63.4799567 137.617986,83.8104216 140.983501,93.5600795 C159.140794,145.881993 -0.548236857,110.445788 0.0860790535,95.0663165 C1.27542139,91.8952914 1.67186883,88.6449907 2.14760576,85.3154143 Z"/>
    <filter id="yaegi-community-header-j" width="130.2%" height="189.1%" x="-15.1%" y="-44.5%" filterUnits="objectBoundingBox">
      <feGaussianBlur in="SourceGraphic" stdDeviation="8.1"/>
    </filter>
    <linearGradient id="yaegi-community-header-l" x1="84.11%" x2="23.632%" y1="-12.408%" y2="100%">
      <stop offset="0%" stop-color="#E9B171"/>
      <stop offset="100%" stop-color="#E29740"/>
    </linearGradient>
    <linearGradient id="yaegi-community-header-m" x1="248.648%" x2="11.838%" y1="31.678%" y2="59.993%">
      <stop offset="0%" stop-color="#E9B171"/>
      <stop offset="100%" stop-color="#E29740"/>
    </linearGradient>
    <linearGradient id="yaegi-community-header-n" x1="248.648%" x2="11.838%" y1="36.194%" y2="57.53%">
      <stop offset="0%" stop-color="#E9B171"/>
      <stop offset="100%" stop-color="#E29740"/>
    </linearGradient>
    <linearGradient id="yaegi-community-header-o" x1="83.525%" x2="24.084%" y1="-12.408%" y2="100%">
      <stop offset="0%" stop-color="#E9B171"/>
      <stop offset="100%" stop-color="#E29740"/>
    </linearGradient>
    <linearGradient id="yaegi-community-header-p" x1="114.679%" x2="0%" y1="36.038%" y2="61.186%">
      <stop offset="0%" stop-color="#E9B171"/>
      <stop offset="100%" stop-color="#E29740"/>
    </linearGradient>
    <linearGradient id="yaegi-community-header-r" x1="50%" x2="50%" y1="0%" y2="26.641%">
      <stop offset="0%" stop-color="#F0CB9F"/>
      <stop offset="100%" stop-color="#EDBE88"/>
    </linearGradient>
    <path id="yaegi-community-header-q" d="M135.698289,3.94284041 C131.258078,2.35732787 131.099499,0.454712819 124.280603,0.454712819 C110.008495,0.454712819 102.713862,5.84545546 80.512805,5.84545546 C74.4075143,5.84545546 51.8892995,-0.179492198 53.5543788,1.24746909 C48.1626935,0.375437192 42.2159819,-1.21007535 36.2692702,1.5645716 C26.3580841,2.35732787 17.1605034,5.13197481 8.99368603,10.83982 C0.74757919,16.7062164 -1.63110548,24.3166766 1.30260561,34.3054056 C3.04697437,45.3247177 10.8173443,50.4776335 20.6492409,52.9351779 C33.4941381,56.106203 46.3390353,53.8864854 59.104643,52.4595242 C68.3022237,51.5082166 77.3412254,49.4470503 86.8559641,51.0325629 C101.603809,53.4901073 116.430943,55.0756199 131.495946,54.2828636 C146.323081,53.4901073 156.710004,46.5931278 159.088688,35.4152643 C162.260268,26.6949454 161.625952,18.5295558 154.014161,12.3460569 C148.701765,7.90662176 142.675764,4.81487231 135.698289,3.94284041 Z"/>
    <linearGradient id="yaegi-community-header-s" x1="43.462%" x2="135.162%" y1="51.689%" y2="43.565%">
      <stop offset="0%" stop-color="#E9B170"/>
      <stop offset="100%" stop-color="#F0CB9F"/>
    </linearGradient>
    <linearGradient id="yaegi-community-header-u" x1="50%" x2="50%" y1="0%" y2="77.844%">
      <stop offset="0%" stop-color="#E6A65B"/>
      <stop offset="100%" stop-color="#DC9543"/>
    </linearGradient>
    <linearGradient id="yaegi-community-header-v" x1="100%" x2="11.37%" y1="45.866%" y2="52.754%">
      <stop offset="0%" stop-color="#E8AD69"/>
      <stop offset="100%" stop-color="#E29740"/>
    </linearGradient>
    <radialGradient id="yaegi-community-header-w" cx="50%" cy="1.958%" r="98.042%" fx="50%" fy="1.958%">
      <stop offset="0%" stop-color="#FFF6EB"/>
      <stop offset="100%" stop-color="#FFF" stop-opacity=".568"/>
    </radialGradient>
    <radialGradient id="yaegi-community-header-x" cx="50%" cy="1.958%" r="98.042%" fx="50%" fy="1.958%">
      <stop offset="0%" stop-color="#FFFDFB"/>
      <stop offset="100%" stop-color="bisque"/>
    </radialGradient>
    <radialGradient id="yaegi-community-header-y" cx="50%" cy="1.958%" r="98.042%" fx="50%" fy="1.958%">
      <stop offset="0%" stop-color="#FFF6EB"/>
      <stop offset="100%" stop-color="#FFDEB6"/>
    </radialGradient>
    <radialGradient id="yaegi-community-header-z" cx="50%" cy="1.958%" r="98.042%" fx="50%" fy="1.958%">
      <stop offset="0%" stop-color="#FFF6EB"/>
      <stop offset="100%" stop-color="#FFF" stop-opacity=".285"/>
    </radialGradient>
    <linearGradient id="yaegi-community-header-A" x1="77.215%" x2="77.215%" y1="75.842%" y2="0%">
      <stop offset="0%" stop-color="#DA852E"/>
      <stop offset="100%" stop-color="#E59740"/>
    </linearGradient>
    <linearGradient id="yaegi-community-header-B" x1="77.215%" x2="77.215%" y1="83.566%" y2="0%">
      <stop offset="0%" stop-color="#24A1C1"/>
      <stop offset="100%" stop-color="#5BB4C8"/>
    </linearGradient>
  </defs>
  <g fill="none" fill-rule="evenodd" transform="translate(.102 -.002)">
    <mask id="yaegi-community-header-c" fill="#fff">
      <use xlink:href="#yaegi-community-header-a"/>
    </mask>
    <use fill="#DB7D11" xlink:href="#yaegi-community-header-a"/>
    <use fill="url(#yaegi-community-header-b)" fill-opacity=".9" xlink:href="#yaegi-community-header-a"/>
    <g mask="url(#yaegi-community-header-c)">
      <g transform="translate(828.898 90.002)">
        <circle cx="255" cy="151" r="151" fill="url(#yaegi-community-header-d)"/>
        <g transform="translate(141 22)">
          <path fill="#FFF" fill-rule="nonzero" d="M1.17911427,73.1506163 C-6.59125564,119.764685 40.6652797,174.78197 124.791427,173.434285 C214.784997,172.007323 258.632085,104.068111 274.569272,63.9546436 C232.863001,136.729669 192.346072,159.640325 123.284927,163.36628 C57.6332303,166.933683 6.650089,126.423838 13.786143,79.7304933 C26.7896192,-5.49080572 178.62899,1.88182759 212.961339,24.1582788 C154.842144,-16.0344641 12.7553796,3.3880645 1.17911427,73.1506163 Z" opacity=".358"/>
          <path fill="#24A1C1" fill-rule="nonzero" d="M207.648943 150.12725L206.776759 148.85884 208.679707 147.511154 205.270259 142.675341 204.239495 144.815783 202.970863 144.023027 204.477364 141.089829 205.666706 140.217797 210.186207 146.559847 211.851286 145.370713 212.72347 146.639123 207.648943 150.12725zM216.608655 137.522425C217.084392 138.15663 217.40155 138.71156 217.639419 139.266489 217.877287 139.821419 218.035866 140.376348 218.035866 140.931277 218.035866 141.486207 217.956577 141.961861 217.718708 142.358239 217.48084 142.833892 217.163682 143.230271 216.687945 143.547373 216.291497 143.864476 215.89505 144.102303 215.419313 144.181578 214.943576 144.340129 214.467839 144.340129 213.992102 144.181578 213.516365 144.102303 213.040628 143.864476 212.485602 143.468097 212.009865 143.071719 211.454839 142.596066 210.979102 141.961861 210.503365 141.327656 210.186207 140.772726 209.948338 140.217797 209.71047 139.662867 209.551891 139.107938 209.551891 138.553009 209.551891 137.998079 209.63118 137.522425 209.869049 137.126047 210.106917 136.729669 210.424075 136.254015 210.899812 135.936913 211.29626 135.61981 211.692707 135.381984 212.168444 135.302708 212.644181 135.144157 213.119918 135.144157 213.595655 135.302708 214.071392 135.461259 214.547129 135.61981 215.102155 136.016189 215.577892 136.412567 216.132919 136.88822 216.608655 137.522425zM212.327023 140.931277C212.406313 141.010553 212.406313 141.089829 212.485602 141.169104 212.564892 141.24838 212.564892 141.327656 212.644181 141.327656L213.833523 137.205323C213.437076 136.967496 213.040628 136.808945 212.644181 136.808945 212.247734 136.808945 212.009865 136.88822 211.692707 137.126047 211.454839 137.284599 211.29626 137.522425 211.21697 137.760252 211.137681 137.998079 211.058391 138.315182 211.137681 138.632284 211.21697 138.949387 211.29626 139.345765 211.454839 139.662867 211.692707 140.059246 212.009865 140.534899 212.327023 140.931277zM215.260734 138.71156C215.181445 138.632284 215.181445 138.553009 215.102155 138.553009 215.022866 138.553009 215.022866 138.394457 214.943576 138.394457L213.754234 142.51679C214.150681 142.754617 214.547129 142.913168 214.864287 142.913168 215.181445 142.913168 215.498603 142.833892 215.815761 142.596066 216.053629 142.437514 216.212208 142.199687 216.291497 141.961861 216.370787 141.724034 216.450076 141.406931 216.370787 141.089829 216.370787 140.772726 216.212208 140.376348 216.053629 140.059246 215.89505 139.504316 215.657182 139.107938 215.260734 138.71156zM220.810998 140.059246L219.780235 138.870111 221.524604 137.284599 217.639419 132.765888 216.846524 134.985605 215.498603 134.272125 216.687945 131.180375 217.797998 130.229068 222.872525 136.095464 224.379025 134.747779 225.409789 135.936913 220.810998 140.059246zM228.3435 127.454421C228.819237 127.930075 229.215684 128.485004 229.453553 128.960658 229.691421 129.436312 229.85 129.991241 229.92929 130.387619 230.008579 130.863273 229.92929 131.338927 229.770711 131.735305 229.612132 132.131683 229.294974 132.607337 228.898526 132.924439 228.581368 133.241542 228.184921 133.479368 227.788473 133.63792 227.392026 133.796471 226.995578 133.875747 226.519842 133.796471 226.044105 133.717195 225.568368 133.558644 225.092631 133.241542 224.616894 132.924439 224.061867 132.528061 223.58613 131.973132 223.110394 131.497478 222.713946 130.942548 222.476078 130.466895 222.238209 129.991241 222.07963 129.436312 222.000341 129.039933 221.921051 128.56428 222.000341 128.088626 222.15892 127.692248 222.317499 127.216594 222.634657 126.820216 223.031104 126.503113 223.348262 126.186011 223.744709 125.948184 224.141157 125.789633 224.537604 125.631081 224.934052 125.551806 225.409789 125.631081 225.885526 125.710357 226.361263 125.868908 226.837 126.106735 227.312736 126.503113 227.788473 126.899491 228.3435 127.454421zM224.696183 130.942548C224.775473 131.021824 224.775473 131.1011 224.854762 131.1011 224.934052 131.180375 224.934052 131.180375 225.013341 131.259651L225.726947 127.375145C225.330499 127.137318 224.934052 127.058043 224.616894 127.137318 224.299736 127.216594 223.982578 127.29587 223.744709 127.533696 223.58613 127.692248 223.427551 127.930075 223.348262 128.167901 223.268973 128.405728 223.268973 128.643555 223.348262 128.960658 223.427551 129.27776 223.58613 129.594863 223.744709 129.911965 224.061867 130.229068 224.379025 130.54617 224.696183 130.942548zM227.233447 128.643555C227.154157 128.56428 227.154157 128.56428 227.074868 128.485004 226.995578 128.405728 226.995578 128.405728 226.916289 128.326453L226.202684 132.131683C226.599131 132.36951 226.916289 132.448785 227.233447 132.36951 227.550605 132.36951 227.867763 132.210958 228.105631 131.973132 228.26421 131.81458 228.422789 131.576753 228.502079 131.338927 228.581368 131.1011 228.581368 130.863273 228.502079 130.54617 228.422789 130.229068 228.26421 129.911965 228.105631 129.594863 227.867763 129.357036 227.550605 128.960658 227.233447 128.643555zM232.466553 129.357036L231.43579 128.405728 232.94229 126.820216 228.977816 123.014986 228.422789 125.076152 227.154157 124.521223 227.947052 121.588024 228.898526 120.636717 234.052343 125.551806 235.320975 124.20412 236.351738 125.155428 232.466553 129.357036zM238.254686 117.227865C238.730423 117.624243 239.12687 118.099897 239.364739 118.496275 239.602607 118.892653 239.840476 119.368307 239.919765 119.764685 239.999055 120.161063 239.999055 120.636717 239.840476 121.033095 239.761186 121.429473 239.523318 121.825851 239.20616 122.222229 238.889002 122.539332 238.651133 122.777159 238.254686 122.93571 237.937528 123.094261 237.541081 123.173537 237.144633 123.173537 236.748186 123.173537 236.272449 123.014986 235.796712 122.856434 235.320975 122.697883 234.845238 122.301505 234.290211 121.825851 233.814475 121.429473 233.418027 120.953819 233.180159 120.557441 232.863001 120.161063 232.704422 119.685409 232.625132 119.289031 232.545843 118.892653 232.545843 118.416999 232.704422 118.020621 232.783711 117.624243 233.02158 117.227865 233.338738 116.831487 233.655896 116.514384 233.973054 116.276557 234.290211 116.118006 234.607369 115.959455 235.003817 115.880179 235.400264 115.880179 235.796712 115.880179 236.272449 116.038731 236.748186 116.197282 237.223923 116.435109 237.699659 116.831487 238.254686 117.227865zM235.241685 120.715993C235.320975 120.795268 235.320975 120.795268 235.400264 120.874544 235.479554 120.953819 235.479554 120.953819 235.558843 121.033095L235.876001 117.465692C235.479554 117.307141 235.162396 117.227865 234.845238 117.307141 234.52808 117.386416 234.290211 117.465692 234.131632 117.703519 233.973054 117.86207 233.893764 118.099897 233.814475 118.258448 233.735185 118.416999 233.814475 118.734102 233.893764 118.971929 233.973054 119.209756 234.131632 119.526858 234.369501 119.764685 234.607369 120.081788 234.924527 120.39889 235.241685 120.715993zM237.303212 118.416999C237.223923 118.337724 237.223923 118.337724 237.144633 118.258448 237.065344 118.179172 237.065344 118.179172 236.986054 118.099897L236.668896 121.6673C237.065344 121.825851 237.382502 121.905127 237.62037 121.825851 237.937528 121.746576 238.175396 121.6673 238.333975 121.429473 238.492554 121.270922 238.571844 121.033095 238.571844 120.874544 238.571844 120.715993 238.571844 120.39889 238.492554 120.161063 238.413265 119.923236 238.254686 119.606134 238.016817 119.368307 237.937528 118.971929 237.699659 118.734102 237.303212 118.416999zM243.091345 111.916398C243.567082 112.2335 243.88424 112.629879 244.201398 113.026257 244.439266 113.422635 244.677135 113.819013 244.756424 114.136115 244.835713 114.532494 244.835713 114.928872 244.756424 115.245974 244.677135 115.642352 244.518556 115.959455 244.201398 116.355833 243.963529 116.672936 243.725661 116.910762 243.408503 117.069314 243.091345 117.227865 242.774187 117.307141 242.377739 117.307141 241.981292 117.307141 241.584844 117.227865 241.188397 117.069314 240.79195 116.910762 240.316213 116.59366 239.840476 116.197282 239.364739 115.880179 239.047581 115.483801 238.730423 115.087423 238.492554 114.691045 238.254686 114.294667 238.175396 113.977564 238.096107 113.581186 238.096107 113.184808 238.175396 112.867705 238.254686 112.471327 238.413265 112.154225 238.730423 111.757847 238.968291 111.440744 239.20616 111.202917 239.523318 111.044366 239.840476 110.885815 240.157634 110.806539 240.554081 110.806539 240.950529 110.806539 241.346976 110.885815 241.743423 111.044366 242.139871 111.202917 242.615608 111.52002 243.091345 111.916398zM240.554081 115.087423C240.633371 115.166699 240.633371 115.166699 240.71266 115.245974 240.79195 115.245974 240.79195 115.32525 240.871239 115.32525L241.029818 112.154225C240.71266 111.995674 240.395502 111.995674 240.078344 112.074949 239.840476 112.154225 239.602607 112.2335 239.444028 112.471327 239.285449 112.629879 239.20616 112.78843 239.20616 113.026257 239.20616 113.184808 239.20616 113.422635 239.285449 113.660462 239.364739 113.898289 239.523318 114.136115 239.681897 114.373942 239.919765 114.611769 240.236923 114.849596 240.554081 115.087423zM242.29845 112.946981C242.21916 112.946981 242.21916 112.867705 242.139871 112.867705 242.060581 112.867705 242.060581 112.78843 241.981292 112.78843L241.822713 115.959455C242.139871 116.118006 242.457029 116.118006 242.694897 116.038731 242.932766 115.959455 243.170634 115.880179 243.329213 115.642352 243.487792 115.483801 243.567082 115.32525 243.567082 115.087423 243.567082 114.849596 243.567082 114.691045 243.487792 114.453218 243.408503 114.215391 243.249924 113.977564 243.091345 113.739737 242.932766 113.422635 242.615608 113.184808 242.29845 112.946981zM246.817951 112.78843L246.025056 112.154225 246.97653 110.885815 243.80495 108.507546 243.567082 110.093059 242.615608 109.855232 242.932766 107.635514 243.487792 106.842758 247.610846 109.934507 248.40374 108.824648 249.196635 109.458853 246.817951 112.78843zM250.306688 108.031892L249.593083 107.556238 250.385978 106.44638 247.531556 104.464489 247.372977 105.812175 246.500793 105.574348 246.738661 103.671733 247.214398 102.958252 250.941004 105.574348 251.65461 104.62304 252.368215 105.098694 250.306688 108.031892zM253.319689 99.4701245C253.636847 99.7079514 253.874715 99.8665026 254.112584 100.104329 254.350452 100.342156 254.429742 100.579983 254.509031 100.81781 254.588321 101.055637 254.588321 101.293464 254.588321 101.531291 254.588321 101.769118 254.429742 102.006945 254.271163 102.244771 254.112584 102.482598 253.954005 102.64115 253.795426 102.799701 253.636847 102.958252 253.398978 103.037528 253.16111 103.037528 252.923241 103.037528 252.606083 103.037528 252.368215 102.958252 252.051057 102.878976 251.733899 102.720425 251.416741 102.482598 251.099583 102.244771 250.861715 102.08622 250.623846 101.848393 250.385978 101.610566 250.306688 101.37274 250.227399 101.134913 250.148109 100.897086 250.148109 100.659259 250.148109 100.421432 250.148109 100.183605 250.306688 99.9457782 250.465267 99.7079514 250.623846 99.4701245 250.782425 99.3115732 250.941004 99.153022 251.099583 98.9944707 251.337452 98.9151951 251.57532 98.9151951 251.813188 98.9151951 252.130346 98.9151951 252.368215 98.9944707 252.606083 99.0737463 252.923241 99.2322976 253.319689 99.4701245zM251.813188 101.769118C251.813188 101.769118 251.892478 101.848393 251.892478 101.848393 251.892478 101.848393 251.971767 101.927669 251.971767 101.927669L251.892478 99.787227C251.65461 99.7079514 251.416741 99.7079514 251.258162 99.787227 251.099583 99.8665026 250.941004 99.9457782 250.861715 100.104329 250.782425 100.183605 250.782425 100.342156 250.782425 100.500708 250.782425 100.659259 250.782425 100.738535 250.861715 100.897086 250.941004 101.055637 251.020294 101.214188 251.178873 101.37274 251.337452 101.452015 251.57532 101.610566 251.813188 101.769118zM252.843952 100.183605C252.843952 100.183605 252.764662 100.104329 252.764662 100.104329 252.764662 100.104329 252.685373 100.025054 252.685373 100.025054L252.764662 102.165496C253.002531 102.244771 253.16111 102.244771 253.398978 102.165496 253.557557 102.08622 253.716136 102.006945 253.795426 101.848393 253.874715 101.769118 253.874715 101.610566 253.874715 101.452015 253.874715 101.293464 253.874715 101.214188 253.795426 101.055637 253.716136 100.897086 253.636847 100.738535 253.478268 100.579983 253.240399 100.500708 253.08182 100.342156 252.843952 100.183605zM256.17411 99.2322976L255.619084 98.9151951 256.17411 98.0431632 254.033294 96.7747532 253.954005 97.7260607 253.319689 97.6467851 253.398978 96.2990994 253.716136 95.8234456 256.491268 97.5675094 256.967005 96.8540288 257.522032 97.1711313 256.17411 99.2322976zM257.997769 92.4938693C258.235637 92.6524206 258.473506 92.8109718 258.711374 93.0487987 258.869953 93.2073499 259.028532 93.4451768 259.107821 93.6037281 259.187111 93.7622793 259.187111 94.0001062 259.187111 94.2379331 259.187111 94.47576 259.107821 94.6343112 258.949242 94.8721381 258.869953 95.0306894 258.711374 95.1892406 258.552795 95.3477919 258.394216 95.4270675 258.235637 95.5063431 257.997769 95.5856188 257.7599 95.5856188 257.601321 95.5856188 257.284163 95.5063431 257.046295 95.4270675 256.729137 95.3477919 256.491268 95.109965 256.2534 94.9514137 256.015531 94.7928625 255.777663 94.5550356 255.619084 94.3964843 255.460505 94.1586575 255.381215 94.0001062 255.301926 93.7622793 255.301926 93.6037281 255.301926 93.3659012 255.301926 93.1280743 255.381215 92.9695231 255.539794 92.7316962 255.619084 92.5731449 255.777663 92.4145937 255.936242 92.2560424 256.094821 92.1767668 256.2534 92.0974912 256.491268 92.0182155 256.729137 92.0182155 256.887716 92.0182155 257.204874 92.0974912 257.363453 92.2560424 257.680611 92.335318 257.997769 92.4938693zM256.808426 94.47576C256.808426 94.47576 256.887716 94.47576 256.887716 94.5550356 256.887716 94.5550356 256.967005 94.5550356 256.967005 94.6343112L256.808426 92.8109718C256.570558 92.7316962 256.411979 92.8109718 256.332689 92.8109718 256.2534 92.8109718 256.094821 92.9695231 256.015531 93.0487987 255.936242 93.1280743 255.936242 93.2073499 255.936242 93.3659012 255.936242 93.4451768 255.936242 93.6037281 256.015531 93.6830037 256.094821 93.841555 256.17411 93.9208306 256.332689 94.0793818 256.411979 94.2379331 256.570558 94.3964843 256.808426 94.47576zM257.601321 93.2073499C257.601321 93.2073499 257.522032 93.2073499 257.522032 93.1280743 257.522032 93.0487987 257.442742 93.1280743 257.442742 93.0487987L257.601321 94.7928625C257.7599 94.8721381 257.997769 94.7928625 258.077058 94.7928625 258.235637 94.7135869 258.314927 94.6343112 258.394216 94.5550356 258.473506 94.47576 258.473506 94.3172087 258.473506 94.2379331 258.473506 94.1586575 258.473506 94.0001062 258.394216 93.9208306 258.314927 93.841555 258.235637 93.6830037 258.077058 93.5244525 257.997769 93.4451768 257.83919 93.2866256 257.601321 93.2073499zM260.217874 92.4938693L259.742137 92.2560424 260.138585 91.5425618 258.394216 90.5912543 258.394216 91.3840105 257.918479 91.3047349 257.918479 90.1948761 258.156348 89.798498 260.376453 91.066908 260.693611 90.5119786 261.169348 90.7498055 260.217874 92.4938693zM261.803664 89.7192224L261.327927 89.4813955 261.724375 88.7679148 259.980006 87.8166073 259.980006 88.6093636 259.504269 88.5300879 259.504269 87.4202292 259.742137 87.023851 262.041533 88.2922611 262.358691 87.6580561 262.834427 87.8958829 261.803664 89.7192224zM179.342596 19.4810168C179.659754 19.639568 180.135491 19.8773949 180.611228 20.0359462 181.086964 20.1944974 181.641991 20.3530487 182.197017 20.4323243 182.593465 20.5115999 182.910623 20.5115999 183.227781 20.5115999 183.544939 20.5115999 183.862097 20.3530487 184.099965 20.1944974 184.337833 20.0359462 184.575702 19.7981193 184.81357 19.4810168 185.051439 19.1639143 185.130728 18.7675362 185.210018 18.2918824L185.606465 16.2307161 180.531938 15.2794086 181.007675 12.8218641 186.082202 13.7731716 187.747282 5.1321283 190.918861 5.68705769 189.253782 14.328101 192.980388 15.0415817 192.58394 17.4991261 188.857334 16.7856455 188.460887 18.7675362C188.302308 19.7188437 187.98515 20.4323243 187.588703 21.0665293 187.192255 21.7007344 186.716518 22.1763881 186.161492 22.4934906 185.606465 22.8105931 184.972149 23.04842 184.258544 23.04842 183.544939 23.1276956 182.752044 23.04842 181.879859 22.8898688 181.324833 22.8105931 180.769806 22.6520419 180.29407 22.4934906 179.818333 22.3349394 179.342596 22.1763881 178.946148 21.9385612L179.342596 19.4810168zM174.347358 15.6757867L175.378121 7.51039711C175.457411 6.79691647 175.378121 6.3212627 175.219542 5.92488457 174.981674 5.52850643 174.664516 5.29067955 174.109489 5.29067955 173.633752 5.21140393 173.078726 5.36995518 172.602989 5.68705769 172.127252 6.0041602 171.492936 6.55908959 170.93791 7.1932946L169.907147 15.1208573 166.894146 14.7244792 168.479936 2.1989301 171.096489 2.51603261 170.93791 4.33937203C171.255068 4.02226952 171.572226 3.78444264 171.889384 3.54661576 172.206542 3.30878888 172.5237 3.15023762 172.840858 2.99168637 173.158016 2.83313511 173.554463 2.75385949 173.95091 2.67458386 174.347358 2.59530823 174.743805 2.59530823 175.219542 2.67458386 175.853858 2.75385949 176.408885 2.91241074 176.884622 3.22951325 177.360358 3.46734013 177.677516 3.86371827 177.994674 4.2600964 178.232543 4.65647454 178.470411 5.21140393 178.549701 5.76633332 178.62899 6.3212627 178.62899 6.95546772 178.549701 7.58967274L177.439648 15.9928892 174.347358 15.6757867zM157.537986 1.24762257L156.90367 9.01663402C156.824381 10.3643197 157.220828 10.9985247 158.172302 11.0778003 158.648039 11.157076 159.123776 10.9985247 159.599513 10.6021466 160.07525 10.2850441 160.550987 9.73011467 161.106013 9.09590965L161.740329 1.56472508 164.594751 1.80255196 163.563987 13.7731716 161.106013 13.5353448 161.185303 11.791281C160.947434 12.1083835 160.630276 12.3462104 160.392408 12.5840372 160.07525 12.8218641 159.837381 12.9804154 159.520223 13.1389666 159.203066 13.2975179 158.885908 13.3767935 158.48946 13.4560691 158.093013 13.5353448 157.696565 13.5353448 157.300118 13.5353448 156.665802 13.4560691 156.190065 13.3767935 155.714328 13.1389666 155.238591 12.9011397 154.921433 12.5840372 154.683565 12.1876591 154.445696 11.791281 154.207828 11.3156272 154.128538 10.8399734 154.049249 10.2850441 153.969959 9.73011467 154.049249 9.09590965L154.762854 1.08907132 157.537986 1.24762257zM141.838667.851244439C142.393694.692693184 142.94872.53414193 143.503747.454866303 144.058773.375590676 144.693089.375590676 145.327405.375590676 146.199589.375590676 147.071774.53414193 147.70609.851244439 148.419695 1.08907132 148.974721 1.48544945 149.450458 2.04037884 149.926195 2.59530823 150.322643 3.15023762 150.560511 3.86371827 150.79838 4.57719891 150.877669 5.44923081 150.877669 6.40053833 150.877669 7.27257023 150.639801 8.14460213 150.322643 8.85808277 150.005485 9.57156341 149.609037 10.2057684 149.054011 10.6814222 148.498985 11.157076 147.864669 11.5534541 147.151063 11.791281 146.437458 12.0291079 145.565273 12.1876591 144.693089 12.1083835 143.979484 12.1083835 143.345168 12.0291079 142.869431 11.9498322 142.393694 11.8705566 141.917957 11.7120053 141.52151 11.6327297L141.600799 9.01663402C142.076536 9.25446091 142.552273 9.49228779 143.107299 9.65083904 143.662326 9.80939029 144.138063 9.88866592 144.6138 9.88866592 145.089537 9.88866592 145.565273 9.80939029 145.961721 9.65083904 146.358168 9.49228779 146.754616 9.25446091 146.992484 9.01663402 147.309642 8.69953152 147.547511 8.38242901 147.70609 7.90677525 147.864669 7.51039711 147.943958 7.03474335 148.023248 6.47981396 148.023248 5.92488457 148.023248 5.44923081 147.864669 4.97357704 147.70609 4.49792328 147.547511 4.18082077 147.230353 3.86371827 146.913195 3.54661576 146.596037 3.30878888 146.199589 3.15023762 145.803142 2.99168637 145.327405 2.83313511 144.851668 2.83313511 144.6138 2.83313511 144.375931 2.83313511 144.058773 2.83313511 143.820905 2.83313511 143.503747 2.91241074 143.265878 2.91241074 143.02801 2.99168637 142.710852 2.99168637 142.472983 3.070962 142.235115 3.15023762 141.997246 3.22951325 141.759378 3.30878888L141.838667.851244439zM122.254164.454866303L122.412743 7.82749962C122.412743 8.0653265 122.412743 8.30315338 122.412743 8.54098026 122.412743 8.77880714 122.492032 8.9373584 122.492032 9.01663402 122.571322 9.17518528 122.571322 9.25446091 122.650611 9.33373653 122.729901 9.41301216 122.80919 9.41301216 122.967769 9.41301216 123.205638 9.41301216 123.364217 9.25446091 123.602085 8.9373584 123.839954 8.62025589 123.998532 8.14460213 124.31569 7.43112148L124.157111.454866303 126.377217.375590676 126.535796 7.74822399C126.535796 7.98605087 126.535796 8.22387775 126.615086 8.46170463 126.615086 8.69953152 126.694375 8.85808277 126.694375 8.9373584 126.773665 9.09590965 126.773665 9.17518528 126.932244 9.25446091 127.011533 9.33373653 127.170112 9.33373653 127.249402 9.33373653 127.407981 9.33373653 127.645849 9.17518528 127.883717 8.85808277 128.121586 8.54098026 128.359454 8.0653265 128.597323 7.35184586L128.438744.375590676 130.65885.296315049 130.896718 11.0778003 128.99377 11.157076 128.914481 9.57156341C128.755902 9.88866592 128.597323 10.2057684 128.438744 10.3643197 128.280165 10.6021466 128.121586 10.7606978 127.963007 10.9192491 127.804428 11.0778003 127.566559 11.157076 127.407981 11.2363516 127.170112 11.3156272 127.011533 11.3156272 126.694375 11.3156272 126.060059 11.3156272 125.663612 11.157076 125.346454 10.8399734 125.029296 10.5228709 124.870717 10.1264928 124.791427 9.57156341 124.632848 9.88866592 124.474269 10.2057684 124.31569 10.3643197 124.157111 10.6021466 123.998532 10.7606978 123.839954 10.9192491 123.681375 11.0778003 123.443506 11.157076 123.284927 11.2363516 123.047059 11.3156272 122.80919 11.3156272 122.571322 11.3156272 121.778427 11.3156272 121.2234 11.0778003 120.826953 10.5228709 120.430505 9.96794155 120.192637 9.17518528 120.192637 8.0653265L120.034058.296315049 122.254164.454866303zM111.074346 1.08907132L111.232925 2.43675698C111.470793 2.1989301 111.629372 1.96110322 111.867241 1.80255196 112.105109 1.56472508 112.342978 1.40617383 112.580846 1.24762257 112.818715 1.08907132 113.135873.930520066 113.45303.851244439 113.770188.771968812 114.166636.692693184 114.563083.692693184 115.11811.692693184 115.514557.692693184 115.911005.851244439 116.307452 1.00979569 116.62461 1.16834695 116.941768 1.40617383 117.258926 1.64400071 117.417505 1.96110322 117.655373 2.35748135 117.813952 2.75385949 117.893242 3.15023762 117.972531 3.62589139 117.972531 4.10154515 117.972531 4.57719891 117.734663 4.97357704 117.576084 5.36995518 117.258926 5.76633332 116.862478 6.08343582 116.466031 6.40053833 115.990294 6.63836521 115.355978 6.87619209 114.721662 7.11401898 114.008057 7.1932946 113.215162 7.27257023L111.867241 7.35184586 111.94653 7.98605087C111.94653 8.22387775 112.02582 8.46170463 112.105109 8.69953152 112.184399 8.9373584 112.342978 9.09590965 112.501557 9.17518528 112.660136 9.25446091 112.898004 9.41301216 113.135873 9.49228779 113.373741 9.57156341 113.690899 9.57156341 114.087346 9.57156341 114.721662 9.49228779 115.276689 9.41301216 115.831715 9.25446091 116.386742 9.09590965 116.941768 8.85808277 117.496794 8.54098026L117.655373 10.5228709C117.179636 10.7606978 116.62461 10.9192491 115.990294 11.157076 115.355978 11.3156272 114.721662 11.4741785 114.008057 11.4741785 113.215162 11.5534541 112.580846 11.4741785 112.02582 11.3949028 111.470793 11.3156272 110.995056 11.0778003 110.677898 10.8399734 110.281451 10.6021466 110.043582 10.2057684 109.805714 9.80939029 109.647135 9.41301216 109.488556 8.85808277 109.488556 8.30315338L109.012819 1.3268982 111.074346 1.08907132zM111.787951 5.60778206L113.294451 5.52850643C113.690899 5.52850643 114.087346 5.44923081 114.325215 5.36995518 114.642373 5.29067955 114.800952 5.1321283 115.03882 4.97357704 115.276689 4.81502579 115.355978 4.65647454 115.435268 4.49792328 115.514557 4.33937203 115.514557 4.10154515 115.514557 3.94299389 115.514557 3.54661576 115.355978 3.22951325 115.03882 2.99168637 114.721662 2.75385949 114.404504 2.67458386 113.928767 2.75385949 113.611609 2.75385949 113.215162 2.91241074 112.898004 3.22951325 112.580846 3.46734013 112.184399 3.86371827 111.787951 4.33937203L111.787951 5.60778206zM103.621134 9.65083904L106.316976 9.33373653 106.554845 11.0778003 101.480318 11.6327297 100.608133 3.86371827 97.8330012 4.18082077 97.5951327 2.43675698 105.682661 1.48544945 105.920529 3.22951325 102.907528 3.54661576 103.621134 9.65083904zM101.559607 14.328101C101.559607 14.0902742 101.559607 13.9317229 101.638897 13.693896 101.718186 13.5353448 101.797476 13.2975179 101.876765 13.2182423 101.956055 13.059691 102.114634 12.9804154 102.352502 12.8218641 102.59037 12.6633129 102.748949 12.6633129 102.907528 12.6633129 103.145397 12.6633129 103.303976 12.6633129 103.541844 12.7425885 103.700423 12.8218641 103.938292 12.9011397 104.096871 12.9804154 104.25545 13.059691 104.334739 13.2182423 104.493318 13.4560691 104.572608 13.6146204 104.651897 13.8524473 104.651897 14.0109985 104.651897 14.2488254 104.651897 14.4073767 104.572608 14.6452035 104.493318 14.8037548 104.414029 15.0415817 104.334739 15.1208573 104.17616 15.2794086 104.096871 15.4379598 103.859002 15.5172354 103.700423 15.5965111 103.462555 15.6757867 103.303976 15.6757867 103.145397 15.6757867 102.907528 15.6757867 102.66966 15.5965111 102.511081 15.5172354 102.273213 15.4379598 102.193923 15.3586842 102.035344 15.2001329 101.956055 15.1208573 101.797476 14.8830304 101.638897 14.7244792 101.638897 14.5659279 101.559607 14.328101zM89.5076048 3.78444264L90.4590787 9.57156341C90.6176577 10.5228709 91.0933946 10.9985247 91.807 10.8399734 92.2034475 10.7606978 92.5206054 10.6021466 92.7584739 10.2057684 93.0756318 9.88866592 93.3135003 9.41301216 93.6306583 8.85808277L92.6791844 3.22951325 94.8200006 2.83313511 96.3265009 11.7120053 94.5028426 12.0291079 94.2649742 10.7606978C94.1063952 10.9985247 93.9478162 11.2363516 93.7892372 11.4741785 93.6306583 11.7120053 93.4720793 11.8705566 93.2342108 12.0291079 92.9963423 12.1876591 92.8377634 12.3462104 92.5206054 12.425486 92.2827369 12.5047616 91.965579 12.5840372 91.648421 12.6633129 91.1726841 12.7425885 90.7762367 12.7425885 90.4590787 12.6633129 90.1419207 12.5840372 89.7454733 12.425486 89.5076048 12.1876591 89.2697364 11.9498322 89.0318679 11.6327297 88.7939994 11.3156272 88.6354205 10.9192491 88.4768415 10.5228709 88.397552 10.0472172L87.3667886 4.10154515 89.5076048 3.78444264zM78.2484974 2.35748135C79.9135767 3.22951325 81.261498 4.2600964 82.2922614 5.44923081 83.3230247 6.63836521 83.9573406 8.0653265 84.3537881 9.57156341 84.512367 10.4435953 84.670946 11.3156272 84.5916565 12.1083835 84.512367 12.9011397 84.4330776 13.693896 84.1952091 14.4866523 83.9573406 15.2794086 83.6401827 15.9928892 83.2437352 16.7063698 82.8472878 17.4198505 82.4508403 18.1333311 81.8958139 18.7675362L80.3893136 17.8162286C81.261498 16.5478186 81.8958139 15.2794086 82.2129719 14.0109985 82.5301298 12.7425885 82.5301298 11.3949028 82.2129719 10.1264928 81.8958139 8.85808277 81.3407875 7.58967274 80.5478926 6.55908959 79.7549977 5.52850643 78.6449449 4.57719891 77.2970236 3.86371827L78.2484974 2.35748135zM75.7112338 20.4323243C73.966865 19.7188437 72.6189437 18.7675362 71.5088909 17.5784017 70.398838 16.468543 69.6852326 15.1208573 69.2094957 13.5353448 68.9716272 12.6633129 68.8130482 11.8705566 68.8130482 10.9985247 68.8130482 10.2057684 68.8923377 9.33373653 69.0509167 8.62025589 69.2094957 7.90677525 69.4473642 7.03474335 69.7645221 6.3212627 70.0816801 5.60778206 70.4781275 4.89430142 70.9538644 4.18082077L72.4603647 4.97357704C71.6674698 6.3212627 71.1124434 7.58967274 70.874575 8.9373584 70.6367065 10.2850441 70.715996 11.5534541 71.1124434 12.8218641 71.5088909 14.0902742 72.1432068 15.2794086 73.0153912 16.3099917 73.8875755 17.3405749 75.0769179 18.2126068 76.5041287 18.8468118L75.7112338 20.4323243zM54.1444928 10.5228709C55.1752562 10.1264928 56.12673 10.0472172 56.8403354 10.3643197 57.5539408 10.6814222 58.1882567 11.3949028 58.5847042 12.425486L59.3775991 14.4073767C59.6154675 14.9623061 59.853336 15.2794086 60.2497835 15.4379598 60.5669414 15.5965111 61.0426783 15.5965111 61.5977048 15.3586842L62.0734417 15.2001329 62.6284681 16.6270942 62.1527312 16.7856455C61.9148627 16.8649211 61.6769943 17.0234724 61.5184153 17.1820236 61.3598363 17.3405749 61.2012573 17.4991261 61.1219678 17.6576774 61.0426783 17.8162286 61.0426783 18.0540555 61.0426783 18.2126068 61.0426783 18.4504336 61.1219678 18.6882605 61.2012573 18.9260874L61.7562837 20.2737731C61.9941522 20.8287025 62.0734417 21.3043562 62.1527312 21.7007344 62.2320207 22.1763881 62.1527312 22.5727662 61.9941522 22.8898688 61.8355732 23.2862469 61.5977048 23.6033494 61.2805468 23.9204519 60.9633889 24.2375544 60.4876519 24.4753813 59.9326255 24.7132082L59.2983096 24.9510351 58.7432832 23.5240738 59.2190201 23.3655225C59.4568886 23.2862469 59.694757 23.1276956 59.853336 23.04842 60.011915 22.8898688 60.170494 22.7313175 60.2497835 22.5727662 60.3290729 22.414215 60.4083624 22.1763881 60.3290729 21.9385612 60.3290729 21.7007344 60.2497835 21.3836318 60.0912045 21.0665293L59.5361781 19.7188437C59.3775991 19.3224655 59.2983096 19.005363 59.2190201 18.6882605 59.1397306 18.371158 59.2190201 18.1333311 59.2190201 17.8955043 59.2983096 17.6576774 59.3775991 17.4198505 59.5361781 17.2612992 59.694757 17.102748 59.9326255 16.9441967 60.170494 16.7856455 59.6154675 16.9441967 59.1397306 16.8649211 58.6639937 16.6270942 58.2675462 16.3892673 57.8710988 15.8343379 57.5539408 15.1208573L56.7610459 13.1389666C56.602467 12.8218641 56.443888 12.5840372 56.285309 12.3462104 56.12673 12.1876591 55.9681511 12.0291079 55.7302826 11.9498322 55.5717036 11.8705566 55.3338351 11.8705566 55.0959667 11.8705566 54.8580982 11.8705566 54.6202297 11.9498322 54.3823613 12.0291079L53.9066243 12.1876591 53.3515979 10.7606978 54.1444928 10.5228709zM45.9776755 28.6769895C46.2155439 28.5977139 46.4534124 28.5184383 46.7705704 28.4391626 47.0877283 28.359887 47.3255968 28.2013358 47.6427547 28.0427845 47.8013337 27.9635089 48.0392022 27.8049576 48.1184917 27.6464064 48.1977811 27.4878551 48.3563601 27.3293039 48.4356496 27.1707526 48.5149391 27.0122014 48.5149391 26.7743745 48.5149391 26.6158232 48.5149391 26.3779963 48.4356496 26.1401695 48.2770706 25.9023426L47.6427547 24.7924838 44.9469121 26.2987207 44.2333067 25.0303107 46.9291493 23.5240738 44.3125962 19.005363 45.9776755 18.0540555 48.5149391 22.6520419 50.4971763 21.5421831 51.2107817 22.8105931 49.2285445 23.9204519 49.7835709 24.9510351C50.0214394 25.4266888 50.1800184 25.9023426 50.2593079 26.2987207 50.3385973 26.6950989 50.2593079 27.091477 50.1007289 27.4878551 49.9421499 27.8842333 49.7835709 28.2013358 49.466413 28.5184383 49.149255 28.8355408 48.7528076 29.0733677 48.3563601 29.3111945 48.0392022 29.4697458 47.8013337 29.6282971 47.4841758 29.7075727 47.1670178 29.7868483 46.9291493 29.9453996 46.6912809 29.9453996L45.9776755 28.6769895zM34.6392786 25.1888619L37.6522791 29.5490214C37.7315686 29.7075727 37.8901476 29.8661239 37.9694371 29.9453996 38.0487266 30.0246752 38.1280161 30.1832264 38.2073056 30.1832264 38.286595 30.2625021 38.3658845 30.2625021 38.445174 30.2625021 38.5244635 30.2625021 38.603753 30.2625021 38.6830425 30.1832264 38.8416215 30.1039508 38.8416215 29.9453996 38.920911 29.6282971 39.0002004 29.3111945 38.8416215 28.994092 38.762332 28.4391626L35.9079104 24.31683 37.2558317 23.3655225 40.2688323 27.725682C40.3481218 27.8842333 40.5067007 28.0427845 40.5859902 28.1220601 40.6652797 28.2013358 40.7445692 28.359887 40.8238587 28.359887 40.9031482 28.4391626 40.9824377 28.4391626 41.0617272 28.4391626 41.1410166 28.4391626 41.2203061 28.4391626 41.2995956 28.359887 41.3788851 28.2806114 41.4581746 28.1220601 41.4581746 27.8049576 41.4581746 27.5671308 41.3788851 27.091477 41.2995956 26.6158232L38.445174 22.4934906 39.7930953 21.5421831 44.2333067 27.9635089 43.1232539 28.7562652 42.4096485 27.8049576C42.488938 28.0427845 42.488938 28.2806114 42.488938 28.5184383 42.488938 28.7562652 42.488938 28.9148164 42.4096485 29.0733677 42.330359 29.2319189 42.330359 29.3904702 42.17178 29.4697458 42.0924905 29.6282971 41.9339115 29.7075727 41.7753326 29.7868483 41.3788851 30.0246752 41.0617272 30.1039508 40.7445692 30.1039508 40.4274112 30.0246752 40.1102533 29.8661239 39.8723848 29.5490214 39.8723848 29.7868483 39.9516743 30.0246752 39.8723848 30.2625021 39.8723848 30.500329 39.8723848 30.6588802 39.7930953 30.8174315 39.7138058 30.9759827 39.6345164 31.134534 39.5552269 31.2138096 39.4759374 31.3723609 39.3173584 31.4516365 39.1587794 31.5309121 38.6830425 31.8480146 38.2073056 31.9272902 37.8108581 31.768739 37.3351212 31.6101877 36.9386737 31.2138096 36.4629368 30.5796046L33.2913572 25.9816182 34.6392786 25.1888619zM26.7896192 31.768739C26.9481981 31.5309121 27.1860666 31.2930852 27.4239351 31.0552583 27.6618035 30.8174315 27.8203825 30.5796046 28.058251 30.4210533 28.3754089 30.1039508 28.7718564 29.8661239 29.0890143 29.7075727 29.4061723 29.5490214 29.7233302 29.4697458 30.0404882 29.4697458 30.3576462 29.4697458 30.6748041 29.5490214 30.9126726 29.7075727 31.2298305 29.8661239 31.467699 30.1039508 31.784857 30.4210533L34.0842521 33.037149 35.5114629 31.768739 36.3836473 32.7993221 34.9564365 34.0677322 36.1457788 35.4154178 35.1150155 36.9216547 33.6085152 35.1775909 31.467699 37.0009304 30.5955146 35.9703472 32.7363308 34.1470078 30.5162251 31.6101877C30.2783567 31.2930852 29.9611987 31.134534 29.7233302 31.134534 29.4061723 31.134534 29.1683038 31.2138096 28.7718564 31.5309121 28.5339879 31.6894634 28.3754089 31.9272902 28.21683 32.1651171 28.058251 32.402944 27.899672 32.5614953 27.741093 32.7993221L26.7896192 31.768739zM24.331645 37.9522379C24.173066 38.1107891 24.0144871 38.1900648 23.8559081 38.2693404 23.6973291 38.348616 23.5387501 38.4278917 23.3008817 38.4278917 23.1423027 38.4278917 22.9837237 38.4278917 22.7458552 38.348616 22.5872763 38.2693404 22.4286973 38.1900648 22.2701183 38.0315135 22.1115393 37.8729623 22.0322498 37.7936866 21.9529603 37.5558598 21.8736709 37.3973085 21.7943814 37.2387573 21.7943814 37.080206 21.7943814 36.9216547 21.7943814 36.7631035 21.8736709 36.5252766 21.9529603 36.3667254 22.0322498 36.2081741 22.1908288 36.0496228 22.3494078 35.8910716 22.4286973 35.811796 22.6665657 35.7325203 22.8251447 35.6532447 22.9837237 35.6532447 23.1423027 35.5739691 23.3008817 35.5739691 23.4594606 35.5739691 23.6973291 35.6532447 23.8559081 35.7325203 24.0144871 35.811796 24.173066 35.9703472 24.331645 36.1288985 24.4109345 36.2874497 24.490224 36.446001 24.5695135 36.6045522 24.648803 36.7631035 24.648803 36.9216547 24.648803 37.080206 24.648803 37.2387573 24.5695135 37.4765841 24.5695135 37.714411 24.4109345 37.8729623 24.331645 37.9522379zM19.8121441 50.0021332C19.4156967 49.7643063 19.0985387 49.4472038 18.8606703 49.0508257 18.6228018 48.6544475 18.4642228 48.2580694 18.3849333 47.8616913 18.3056439 47.4653131 18.3849333 46.9896594 18.4642228 46.5140056 18.6228018 46.0383519 18.8606703 45.5626981 19.1778282 45.0077687L19.6535652 44.2942881 17.195591 42.6294999 18.2263544 41.2025386 25.8381453 46.5140056 24.2523555 48.7337232C23.9351976 49.2093769 23.5387501 49.6057551 23.2215922 49.9228576 22.8251447 50.2399601 22.5079868 50.3985113 22.1115393 50.5570626 21.7150919 50.6363382 21.3186444 50.7156138 20.922197 50.6363382 20.605039 50.3985113 20.2085916 50.2399601 19.8121441 50.0021332zM20.763618 48.4166207C21.0014865 48.5751719 21.1600655 48.6544475 21.3979339 48.7337232 21.6358024 48.8129988 21.7943814 48.8129988 22.0322498 48.7337232 22.2701183 48.6544475 22.4286973 48.5751719 22.6665657 48.4166207 22.9044342 48.2580694 23.0630132 48.0202425 23.2215922 47.7824156L23.7766186 47.068935 21.0014865 45.16632 20.4464601 45.9590762C20.2878811 46.1969031 20.1293021 46.43473 20.1293021 46.6725569 20.0500126 46.9103838 20.0500126 47.1482106 20.1293021 47.3860375 20.1293021 47.6238644 20.2878811 47.7824156 20.3671706 48.0202425 20.3671706 48.0995182 20.5257495 48.2580694 20.763618 48.4166207zM14.8169063 55.0757733C15.0547748 55.2343246 15.2926433 55.3136002 15.4512223 55.3928758 15.6098012 55.4721515 15.7683802 55.4721515 15.9269592 55.4721515 16.0855382 55.4721515 16.1648277 55.3928758 16.3234066 55.3136002 16.4026961 55.2343246 16.4819856 55.155049 16.5612751 54.9964977 16.6405646 54.7586708 16.7198541 54.5208439 16.6405646 54.1244658 16.5612751 53.8073633 16.4026961 53.3317095 16.1648277 52.8560558L12.1210637 50.7948895 12.9139586 49.2093769 19.3364072 52.5389533 18.6228018 53.9659146 17.6713279 53.5695364C17.7506174 53.7280877 17.8299069 53.9659146 17.9091964 54.1244658 17.9884859 54.3622927 17.9884859 54.5208439 17.9884859 54.7586708 17.9884859 54.9964977 17.9884859 55.155049 17.9091964 55.3928758 17.8299069 55.6307027 17.7506174 55.8685296 17.6713279 56.1063565 17.512749 56.423459 17.2748805 56.6612859 17.037012 56.8991128 16.7991436 57.057664 16.5612751 57.2162153 16.2441171 57.2954909 15.9269592 57.3747665 15.6098012 57.3747665 15.2133538 57.2162153 14.8169063 57.057664 14.4204589 56.9783884 14.0240115 56.7405615L14.8169063 55.0757733zM13.627564 61.5763748L14.3411694 59.6737597 15.6098012 60.1494135 14.2618799 63.7168167 8.7909052 61.6556504 8.0772998 63.6375411 6.80866797 63.1618873 8.94948417 57.4540421 10.218116 57.9296959 9.42522111 60.0701378 13.627564 61.5763748zM16.0855382 64.509573C15.9269592 64.4302973 15.8476697 64.3510217 15.6890907 64.2717461 15.6098012 64.1924704 15.5305117 64.0339192 15.4512223 63.9546436 15.3719328 63.7960923 15.3719328 63.7168167 15.3719328 63.5582654 15.3719328 63.3997142 15.3719328 63.2411629 15.4512223 63.0826117 15.5305117 62.9240604 15.6098012 62.7655092 15.6890907 62.6862335 15.7683802 62.6069579 15.9269592 62.5276823 16.0062487 62.4484067 16.1648277 62.369131 16.2441171 62.369131 16.4026961 62.369131 16.5612751 62.369131 16.7198541 62.369131 16.8784331 62.4484067 17.037012 62.5276823 17.1163015 62.6069579 17.2748805 62.6862335 17.35417 62.7655092 17.4334595 62.9240604 17.512749 63.003336 17.5920385 63.1618873 17.5920385 63.2411629 17.5920385 63.3997142 17.5920385 63.5582654 17.5920385 63.7168167 17.512749 63.8753679 17.4334595 64.0339192 17.35417 64.1924704 17.2748805 64.2717461 17.195591 64.3510217 17.037012 64.4302973 16.9577225 64.509573 16.7991436 64.5888486 16.7198541 64.5888486 16.5612751 64.5888486 16.4026961 64.5888486 16.2441171 64.5888486 16.0855382 64.509573zM4.90572024 70.2174181L9.42522111 71.3272769C10.218116 71.4858281 10.6145634 71.3272769 10.7731424 70.7723475 10.8524319 70.455245 10.7731424 70.2174181 10.6145634 69.9003156 10.4559845 69.5832131 10.218116 69.2661106 9.90095804 68.8697324L5.46074666 67.7598737 5.85719411 66.0950855 12.8346691 67.8391493 12.5175112 69.2661106 11.4867478 69.0282837C11.6453268 69.186835 11.7246163 69.4246618 11.8831953 69.5832131 11.9624847 69.7417643 12.0417742 69.9795912 12.1210637 70.1381425 12.2003532 70.3759694 12.2003532 70.5345206 12.2003532 70.7723475 12.2003532 71.0101744 12.2003532 71.2480013 12.1210637 71.4858281 12.0417742 71.8822063 11.8831953 72.1200332 11.7246163 72.35786 11.5660373 72.5956869 11.3281688 72.7542382 11.0903004 72.9127894 10.8524319 73.0713407 10.5352739 73.0713407 10.218116 73.1506163 9.90095804 73.1506163 9.58380008 73.1506163 9.18735264 73.0713407L4.5092728 71.8822063 4.90572024 70.2174181zM3.16135149 80.7610765C3.16135149 80.443974 3.16135149 80.1268715 3.16135149 79.809769 3.16135149 79.4926665 3.16135149 79.175564 3.24064098 78.9377371 3.31993046 78.4620833 3.39921995 78.0657052 3.55779893 77.7486027 3.71637791 77.4315002 3.87495689 77.1936733 4.11282535 76.9558464 4.35069382 76.7972951 4.58856229 76.6387439 4.98500973 76.5594683 5.30216769 76.4801926 5.69861513 76.4801926 6.09506257 76.5594683L9.58380008 77.035122 9.82166855 75.132507 11.1695899 75.2910582 10.9317214 77.1936733 12.7553796 77.4315002 12.9932481 79.2548396 10.6938529 78.9377371 10.2974055 81.712384 8.94948417 81.5538328 9.34593162 78.7791858 6.01577309 78.3035321C5.61932564 78.2242564 5.30216769 78.3035321 5.06429922 78.4620833 4.82643075 78.6206346 4.66785178 78.9377371 4.58856229 79.3341152 4.58856229 79.6512177 4.5092728 79.8890446 4.5092728 80.1268715 4.5092728 80.3646984 4.5092728 80.6818009 4.58856229 80.8403521L3.16135149 80.7610765zM11.4074583 86.6274729L11.4074583 84.5663066 12.7553796 84.5663066 12.6760901 88.3715367 4.03353586 88.2129854 4.03353586 90.2741517 2.68561455 90.2741517 2.76490404 84.1699285 4.11282535 84.1699285 4.03353586 86.4689216 11.4074583 86.6274729zM3.71637791 98.4395413L8.31516826 97.6467851C9.10806315 97.4882338 9.42522111 97.1711313 9.34593162 96.6162019 9.26664213 96.2990994 9.10806315 96.0612725 8.87019468 95.8234456 8.55303673 95.5856188 8.23587877 95.3477919 7.76014184 95.1892406L3.24064098 95.9819969 2.92348302 94.3172087 9.98024753 93.1280743 10.218116 94.6343112 9.18735264 94.8721381C9.42522111 94.9514137 9.58380008 95.109965 9.74237906 95.2685162 9.90095804 95.4270675 10.059537 95.5063431 10.218116 95.74417 10.376695 95.9027213 10.4559845 96.0612725 10.5352739 96.2990994 10.6145634 96.5369263 10.6938529 96.6954775 10.7731424 97.01258 10.8524319 97.4089582 10.8524319 97.7260607 10.7731424 97.9638876 10.6938529 98.2809901 10.5352739 98.518817 10.376695 98.7566438 10.218116 98.9944707 9.98024753 99.153022 9.66308957 99.3115732 9.34593162 99.4701245 9.02877366 99.5494001 8.63232622 99.6286757L3.87495689 100.421432 3.71637791 98.4395413zM3.63708842 108.9832C4.19211484 107.556238 4.90572024 106.44638 5.69861513 105.495072 6.57079951 104.62304 7.60156286 103.90956 8.7909052 103.513181 9.50451059 103.275355 10.1388265 103.116803 10.7731424 103.116803 11.4074583 103.116803 12.0417742 103.116803 12.6760901 103.196079 13.3104061 103.275355 13.944722 103.433906 14.4997484 103.751008 15.1340643 103.988835 15.6890907 104.305938 16.2441171 104.62304L15.6098012 105.89145C14.4997484 105.336521 13.468985 104.940143 12.3589322 104.860867 11.3281688 104.781591 10.2974055 104.860867 9.26664213 105.17797 8.23587877 105.495072 7.3636944 106.129277 6.57079951 106.842758 5.77790462 107.635514 5.14358871 108.586822 4.66785178 109.69668L3.63708842 108.9832zM15.2133538 111.757847L14.5790379 110.489437 17.5920385 108.666097 18.4642228 110.330885 15.2133538 111.757847zM16.5612751 114.294667L15.9269592 113.026257 18.9399598 111.202917 19.8121441 112.867705 16.5612751 114.294667zM15.4512223 124.600498L18.7813808 122.301505 17.037012 119.685409 13.7068535 121.984403 12.7553796 120.557441 20.3671706 115.32525 21.3186444 116.752211 18.2263544 118.813377 19.9707231 121.429473 23.0630132 119.368307 24.0144871 120.795268 16.4026961 126.02746 15.4512223 124.600498zM25.3624084 130.387619C25.2831189 130.466895 25.1245399 130.54617 24.9659609 130.704722 24.8073819 130.783997 24.648803 130.942548 24.5695135 131.021824L21.5565129 127.375145C21.3186444 127.612972 21.1600655 127.771523 21.0014865 128.00935 20.8429075 128.247177 20.8429075 128.485004 20.763618 128.722831 20.763618 128.960658 20.763618 129.198485 20.922197 129.436312 21.0014865 129.674138 21.1600655 129.911965 21.3186444 130.149792 21.5565129 130.387619 21.7943814 130.704722 22.1115393 130.942548 22.4286973 131.180375 22.7458552 131.497478 23.1423027 131.735305L22.1115393 132.607337C21.9529603 132.528061 21.7943814 132.36951 21.6358024 132.210958 21.4772234 132.052407 21.3186444 131.893856 21.1600655 131.81458 21.0014865 131.656029 20.8429075 131.497478 20.6843285 131.338927 20.5257495 131.180375 20.3671706 131.021824 20.2085916 130.863273 19.8914336 130.466895 19.5742757 129.991241 19.4156967 129.594863 19.2571177 129.198485 19.1778282 128.722831 19.2571177 128.326453 19.2571177 127.930075 19.4156967 127.454421 19.6535652 127.058043 19.8914336 126.661665 20.2085916 126.265286 20.6843285 125.868908 21.1600655 125.47253 21.5565129 125.234703 22.0322498 124.996876 22.5079868 124.838325 22.9837237 124.75905 23.3801711 124.75905 23.8559081 124.75905 24.2523555 124.838325 24.648803 125.076152 25.0452504 125.313979 25.4416979 125.551806 25.7588558 125.948184 26.0760138 126.344562 26.3138822 126.74094 26.4724612 127.137318 26.6310402 127.533696 26.6310402 127.930075 26.6310402 128.326453 26.5517507 128.722831 26.4724612 129.119209 26.2345927 129.436312 25.9967243 129.753414 25.6795663 130.070517 25.3624084 130.387619zM24.4109345 128.881382C24.648803 128.722831 24.8073819 128.485004 24.8866714 128.326453 24.9659609 128.167901 25.0452504 127.930075 25.1245399 127.771523 25.1245399 127.612972 25.1245399 127.375145 25.0452504 127.216594 24.9659609 127.058043 24.8866714 126.899491 24.7280925 126.74094 24.4109345 126.423838 24.0937765 126.265286 23.6973291 126.186011 23.3008817 126.186011 22.9044342 126.265286 22.4286973 126.582389L24.4109345 128.881382zM31.784857 130.466895L30.3576462 129.039933 31.30912 128.088626 34.0049626 130.783997 27.899672 136.88822 29.4061723 138.315182 28.4546984 139.266489 24.0937765 134.90633 25.0452504 133.955022 26.6310402 135.540535 31.784857 130.466895zM37.7315686 136.016189L36.2250683 134.668503 37.0972527 133.63792 39.9516743 136.095464 34.3221206 142.675341 35.9079104 144.023027 35.035726 145.05361 30.3576462 141.089829 31.2298305 140.059246 32.9741993 141.565482 37.7315686 136.016189zM44.3918857 147.669706C44.0747277 148.145359 43.6782803 148.462462 43.2818328 148.779565 42.8853854 149.096667 42.4096485 149.255218 42.013201 149.334494 41.5374641 149.41377 41.1410166 149.41377 40.6652797 149.255218 40.1895428 149.175943 39.7138058 148.938116 39.3173584 148.541738 38.920911 148.224635 38.5244635 147.907533 38.286595 147.511154 38.0487266 147.114776 37.8901476 146.718398 37.8108581 146.32202 37.7315686 145.925642 37.8108581 145.449988 37.9694371 144.974334 38.1280161 144.498681 38.3658845 144.023027 38.762332 143.547373 39.0794899 143.071719 39.4759374 142.754617 39.8723848 142.437514 40.2688323 142.120412 40.7445692 141.961861 41.1410166 141.882585 41.6167536 141.803309 42.013201 141.803309 42.488938 141.961861 42.9646749 142.041136 43.4404118 142.278963 43.8368593 142.596066 44.2333067 142.913168 44.6297542 143.230271 44.8676226 143.626649 45.1054911 144.023027 45.2640701 144.419405 45.3433596 144.815783 45.422649 145.212161 45.3433596 145.687815 45.1847806 146.163469 44.9469121 146.718398 44.7090436 147.194052 44.3918857 147.669706zM42.8853854 146.639123C43.3611223 146.004918 43.5197013 145.529264 43.5197013 145.05361 43.5197013 144.577956 43.2818328 144.181578 42.8853854 143.864476 42.6475169 143.705924 42.4096485 143.547373 42.17178 143.547373 41.9339115 143.547373 41.6960431 143.547373 41.4581746 143.626649 41.2203061 143.705924 40.9824377 143.864476 40.8238587 144.023027 40.5859902 144.181578 40.4274112 144.419405 40.1895428 144.657232 39.7138058 145.291437 39.5552269 145.767091 39.5552269 146.32202 39.5552269 146.797674 39.7930953 147.194052 40.1895428 147.511154 40.4274112 147.669706 40.6652797 147.748981 40.9031482 147.828257 41.1410166 147.828257 41.3788851 147.828257 41.6167536 147.748981 41.854622 147.669706 42.0924905 147.511154 42.2510695 147.352603 42.488938 147.114776 42.7268064 146.876949 42.8853854 146.639123z"/>
          <path fill="#37ABC8" fill-rule="nonzero" d="M64.6899948,79.2548396 C40.6652797,72.5164113 58.5054147,41.9160192 77.85205,54.5208439 L64.6899948,79.2548396 Z"/>
          <path fill="#1C809A" fill-rule="nonzero" d="M65.7207582,70.8516231 C62.5491786,69.186835 60.2497835,66.8878418 62.1527312,63.2411629 C63.8970999,59.9115866 67.306548,60.2286891 70.4781275,61.8934773 L65.7207582,70.8516231 Z"/>
          <path fill="#37ABC8" fill-rule="nonzero" d="M169.748568,53.9659146 C188.778045,40.6476092 205.983864,70.7723475 183.862097,78.3828077 L169.748568,53.9659146 Z"/>
          <path fill="#1C809A" fill-rule="nonzero" d="M178.866859,69.4246618 C182.038438,67.7598737 184.337833,65.4608805 182.434886,61.8142016 C180.690517,58.4846253 177.281069,58.8017278 174.109489,60.466516 L178.866859,69.4246618 Z"/>
          <g fill-rule="nonzero" transform="translate(46.966 147.516)">
            <path fill="#F0CB9F" d="M1.54906105,3.80062517 C1.78692952,-2.46214936 8.13008863,0.471048838 10.9052207,2.37366389 C12.253142,3.32497141 14.8696952,3.32497141 15.4247216,3.72134955 C15.979748,4.03845206 16.2176165,4.51410582 16.3761955,6.33744524 C16.5347744,8.71571405 15.0282742,11.1732585 14.8696952,13.5515273 C10.8259312,13.8686298 6.38571987,12.9173223 3.05556134,10.5390535 C1.31119259,9.34991907 -1.93967646,5.38613771 1.54906105,3.80062517"/>
            <path fill="#E29740" d="M1.54906105,3.80062517 C2.42124543,4.11772768 3.3727193,4.43483019 4.00703521,5.22758646"/>
          </g>
          <g fill-rule="nonzero" transform="translate(187.9 144.979)">
            <path fill="#F0CB9F" d="M13.4061672,3.80062517 C13.1682987,-2.46214936 6.82513964,0.471048838 4.05000753,2.37366389 C1.4334544,4.19700331 0.561270022,2.6907664 0.323401556,6.33744524 C0.164822578,8.71571405 -0.152335377,11.1732585 0.0855330892,13.5515273 C4.12929702,13.8686298 8.5695084,12.9173223 11.8996669,10.5390535 C13.5647462,9.34991907 16.8949047,5.38613771 13.4061672,3.80062517"/>
            <path fill="#E29740" d="M13.4061672,3.80062517 C12.5339828,4.11772768 11.582509,4.43483019 10.9481931,5.22758646"/>
          </g>
          <g fill-rule="nonzero">
            <use fill="url(#yaegi-community-header-e)" xlink:href="#yaegi-community-header-f"/>
            <use fill="#000" filter="url(#yaegi-community-header-g)" xlink:href="#yaegi-community-header-f"/>
          </g>
          <path fill="#FFF" fill-rule="nonzero" d="M131.372455,103.751008 C131.372455,107.001309 132.08606,110.647988 131.451744,114.215391 C130.65885,115.800904 128.99377,115.959455 127.566559,116.59366 C125.584322,116.355833 123.919243,115.008147 123.205638,113.105532 C122.650611,109.141751 123.364217,105.336521 123.522796,101.37274 L131.372455,103.751008 Z"/>
          <path fill="#FFF" fill-rule="nonzero" d="M114.483794,103.433906 C111.94653,109.69668 115.911005,122.142954 122.88848,112.946981 C122.333453,108.9832 123.047059,105.17797 123.205638,101.214188 L114.483794,103.433906 Z"/>
          <path fill="#F0CB9F" fill-rule="nonzero" d="M115.355978,91.3840105 C110.598609,91.8596643 106.634134,97.4882338 109.092109,102.006945 C112.342978,108.031892 119.79619,101.452015 124.39498,102.08622 C129.707376,102.165496 134.068298,107.635514 138.27064,103.037528 C142.94872,97.8846119 136.209114,92.9695231 130.896718,90.6705299 L115.355978,91.3840105 Z"/>
          <path fill="#2B1903" fill-rule="nonzero" d="M114.642373,90.6705299 C114.721662,82.346589 130.65885,82.1087622 132.16535,89.164293 C133.67185,96.1405481 115.197399,96.8540288 114.642373,90.6705299 Z"/>
          <path fill="#1C809A" fill-rule="nonzero" d="M116.545321 71.4065525C114.563083 90.7498055 82.6887088 94.8721381 77.2970236 74.0226482 77.1384446 73.1506163 77.0591551 72.2785844 76.9798656 71.4858281 76.8212866 73.4677188 76.9005761 75.5288851 77.2970236 77.7486027 82.8472878 99.6286757 117.893242 94.0001062 116.545321 72.1200332 116.545321 71.723655 116.545321 71.5651038 116.545321 71.4065525zM166.180541 69.186835C164.198303 88.5300879 132.323929 92.6524206 126.932244 71.8029306 126.773665 70.9308987 126.694375 70.0588668 126.615086 69.2661106 126.456507 71.2480013 126.535796 73.3091676 126.932244 75.5288851 132.482508 97.4089582 167.528462 91.7803887 166.180541 69.9003156 166.180541 69.6624887 166.180541 69.4246618 166.180541 69.186835L166.180541 69.186835zM120.113355 47.8616888C119.193758 47.8616888 118.448276 47.1163378 118.448276 46.1969007 118.448276 45.2774637 119.193758 44.5321126 120.113355 44.5321126 121.032953 44.5321126 121.778435 45.2774637 121.778435 46.1969007 121.778435 47.1163378 121.032953 47.8616888 120.113355 47.8616888zM127.804428 47.8616888C126.88483 47.8616888 126.139349 47.1163378 126.139349 46.1969007 126.139349 45.2774637 126.88483 44.5321126 127.804428 44.5321126 128.724026 44.5321126 129.469507 45.2774637 129.469507 46.1969007 129.469507 47.1163378 128.724026 47.8616888 127.804428 47.8616888zM128.676604 54.917222C127.757007 54.917222 127.011525 54.171871 127.011525 53.2524339 127.011525 52.3329968 127.757007 51.5876458 128.676604 51.5876458 129.596202 51.5876458 130.341684 52.3329968 130.341684 53.2524339 130.341684 54.171871 129.596202 54.917222 128.676604 54.917222zM119.003295 54.917222C118.083697 54.917222 117.338215 54.171871 117.338215 53.2524339 117.338215 52.3329968 118.083697 51.5876458 119.003295 51.5876458 119.922893 51.5876458 120.668374 52.3329968 120.668374 53.2524339 120.668374 54.171871 119.922893 54.917222 119.003295 54.917222zM118.051821 61.9727528C117.132223 61.9727528 116.386742 61.2274018 116.386742 60.3079647 116.386742 59.3885276 117.132223 58.6431766 118.051821 58.6431766 118.971419 58.6431766 119.7169 59.3885276 119.7169 60.3079647 119.7169 61.2274018 118.971419 61.9727528 118.051821 61.9727528zM129.548797 61.9727528C128.629199 61.9727528 127.883718 61.2274018 127.883718 60.3079647 127.883718 59.3885276 128.629199 58.6431766 129.548797 58.6431766 130.468395 58.6431766 131.213876 59.3885276 131.213876 60.3079647 131.213876 61.2274018 130.468395 61.9727528 129.548797 61.9727528z"/>
          <g transform="translate(53.503 110.871)">
            <mask id="yaegi-community-header-k" fill="#fff">
              <use xlink:href="#yaegi-community-header-h"/>
            </mask>
            <use fill="url(#yaegi-community-header-i)" fill-rule="nonzero" xlink:href="#yaegi-community-header-h"/>
            <path fill="#E7A962" fill-rule="nonzero" d="M126.235656,70.8192107 C121.795444,69.2336981 121.636865,67.3310831 114.817969,67.3310831 C100.545861,67.3310831 93.2512284,72.7218257 71.0501716,72.7218257 C64.9448809,72.7218257 42.4266661,66.6968781 44.0917454,68.1238393 C38.7000601,67.2518074 32.7533485,65.6662949 26.8066368,68.4409418 C16.8954507,69.2336981 7.69786998,72.0083451 -0.468947368,77.7161902 C-8.71505421,83.5825866 -11.0937389,91.1930468 -8.16002779,101.181776 C-6.41565903,112.201088 1.35471087,117.354004 11.1866075,119.811548 C24.0315047,122.982573 36.8764019,120.762856 49.6420096,119.335894 C58.8395903,118.384587 67.878592,116.323421 77.3933307,117.908933 C92.1411756,120.366478 106.96831,121.95199 122.033313,121.159234 C136.860447,120.366478 147.24737,113.469498 149.626055,102.291635 C152.797635,93.5713156 152.163319,85.405926 144.551528,79.2224271 C139.239132,74.782992 133.213131,71.6912426 126.235656,70.8192107 Z" filter="url(#yaegi-community-header-j)" mask="url(#yaegi-community-header-k)"/>
            <path fill="url(#yaegi-community-header-l)" fill-rule="nonzero" d="M116.460417,31.6911745 C123.041444,24.3185412 131.049683,15.3603954 138.661474,6.719352 C140.881579,6.95717889 139.318421,4.37499912 139.477,7.22892169 C125.114464,28.8711679 102.584756,50.3209469 68.7281445,103.831995 C86.4097005,69.9020268 89.1055431,62.3708422 116.460417,31.6911745 Z" mask="url(#yaegi-community-header-k)"/>
            <path fill="url(#yaegi-community-header-m)" fill-rule="nonzero" d="M2.11440152,67.4818864 C10.6776663,65.7378226 23.3302501,59.5622958 30.6160822,57.3699416 C23.6393707,60.6089135 12.7328614,68.1297323 2.58380684,70.1116229 C2.42944894,69.3626232 2.2729805,68.4860444 2.11440152,67.4818864 Z" mask="url(#yaegi-community-header-k)"/>
            <path fill="url(#yaegi-community-header-n)" fill-rule="nonzero" d="M2.11440152,76.0032197 C10.6776663,74.2591559 23.9141445,65.2269538 41.5480107,63.2132069 C20.76315,68.2746297 19.4666245,76.0032197 1.50455623,77.8652502 C1.60580286,79.4980034 1.80908462,78.8773265 2.11440152,76.0032197 Z" mask="url(#yaegi-community-header-k)"/>
            <path fill="url(#yaegi-community-header-o)" fill-rule="nonzero" d="M116.403237,18.6217037 C117.116843,17.3532937 113.299718,24.8139586 99.9178239,41.801287 C86.5359299,58.7886154 84.8699303,58.3926248 75.1966127,75.8332628 C80.4297189,57.5205929 96.8187334,38.8369886 116.403237,18.6217037 Z" mask="url(#yaegi-community-header-k)"/>
            <path fill="url(#yaegi-community-header-p)" fill-rule="nonzero" d="M137.631337,-1.05538133 C112.715025,24.3128193 8.27812965,67.6881852 0.0841941842,58.2386348 C5.31730045,39.9259649 162.54765,-26.423582 137.631337,-1.05538133 Z" mask="url(#yaegi-community-header-k)"/>
          </g>
          <g transform="translate(44.04 183.999)">
            <mask id="yaegi-community-header-t" fill="#fff">
              <use xlink:href="#yaegi-community-header-q"/>
            </mask>
            <use fill="url(#yaegi-community-header-r)" fill-rule="nonzero" xlink:href="#yaegi-community-header-q"/>
            <path fill="url(#yaegi-community-header-s)" fill-rule="nonzero" d="M80.512805,8.38227552 C102.713862,8.38227552 110.087784,2.99153288 124.280603,2.99153288 C131.495946,2.99153288 132.685289,6.24183359 135.698289,6.47966047 C142.675764,7.35169237 148.781055,10.5227175 154.014161,14.8828769 C161.546663,21.1456515 162.260268,29.2317654 159.326557,37.9520844 C154.093451,47.385884 145.054449,50.0019797 135.301842,50.9532872 C121.029734,52.3802485 107.7091,49.2884991 94.626334,43.8977564 C85.2701743,40.0132507 75.2796987,37.6349819 65.8442495,33.8297518 C59.7389589,31.6893099 53.4750893,30.2623486 47.3697986,28.2804579 C53.2372208,30.2623486 59.104643,31.8478611 64.9720652,33.6712005 C69.4122765,34.9396106 73.6146194,36.6043988 77.2619359,39.537597 C78.7684362,40.7267314 80.195647,42.074417 79.7199101,44.2148589 C79.2441731,46.4345765 77.3412254,46.8309546 75.3589882,47.1480571 C59.104643,49.6056016 42.7710083,52.3802485 26.2787946,50.9532872 C15.8125821,50.0812553 6.05997494,47.7822622 1.14402663,36.6836744 C-1.78968445,26.6949454 0.589000212,19.0844852 8.83510705,13.2180888 C17.0019244,7.430968 26.2787946,4.81487231 36.1106912,3.94284041 C42.0574029,1.08891783 47.9248251,2.67443038 53.3957998,3.6257379 C51.81001,2.27805224 74.4075143,8.38227552 80.512805,8.38227552 L80.512805,8.38227552 Z" mask="url(#yaegi-community-header-t)"/>
            <path fill="url(#yaegi-community-header-u)" fill-rule="nonzero" d="M65.2745574,32.972408 C79.9187824,36.3052222 93.6167646,42.3975739 108.026258,46.5138521 C126.26284,51.7460435 144.182265,52.6180754 159.326557,37.9520844 C156.947872,49.1299478 146.560949,56.0269274 131.733815,56.8196836 C116.589522,57.6124399 101.841677,56.0269274 87.0938325,53.5693829 C77.4205149,51.9838704 68.5400922,54.0450367 59.3425114,54.9963442 C46.4976143,56.4233055 33.6527171,58.5637474 20.8871094,55.471998 C10.8173443,52.9351779 3.12626386,47.7822622 1.30260561,36.6836744 C8.91439654,46.6724034 19.539188,48.9713966 31.4326114,49.4470503 C46.4976143,50.0812553 61.0868802,46.6724034 75.9140146,45.483269 C76.944778,45.4039934 78.0548308,45.483269 78.5305677,44.2941346 C79.1648837,42.708622 77.8962518,42.074417 76.944778,41.3609364 C72.9803035,38.2691869 68.6986711,35.8116425 63.9413018,34.2261299 C63.9396488,34.2178664 63.938015,34.2096336 63.9364005,34.2014315 C58.0184973,32.4648557 52.1787663,30.6501215 46.3390353,28.8353873 C52.9993523,28.8353873 59.1839325,30.5001755 65.2892231,32.9577199 C65.2843178,32.9626243 65.2794294,32.9675204 65.2745574,32.972408 Z" mask="url(#yaegi-community-header-t)"/>
            <path fill="url(#yaegi-community-header-v)" fill-rule="nonzero" d="M143.858863,11.9717879 C132.740599,11.9717879 124.565961,13.2727664 116.473528,15.7084924 C107.178071,18.5063144 100.215194,23.127884 91.2290096,22.5345605 C90.5154042,22.4552848 89.8810883,21.2661504 89.0881934,21.3454261 C97.1345625,20.8604461 104.151755,15.6702743 112.293354,13.4746398 C126.77602,9.56893996 141.016512,11.0075874 143.858863,11.9717879 Z" mask="url(#yaegi-community-header-t)"/>
            <path fill="#E39C4A" fill-rule="nonzero" d="M7.01144881,22.8897153 C11.6102392,15.9927357 11.6102392,15.9927357 34.5249014,21.3834784 C25.0101628,22.2555103 16.12974,20.5907221 7.01144881,22.8897153 Z" mask="url(#yaegi-community-header-t)"/>
          </g>
          <path fill="#FFF" fill-rule="nonzero" d="M31.2298305,72.992065 C26.6310402,95.74417 34.5599891,122.301505 78.2484974,142.51679 C32.1020149,117.782794 35.6700419,92.335318 39.1587794,72.5164113 C44.7090436,41.3610899 99.0223435,25.9023426 118.844716,28.9148164 C98.7051855,22.0971125 38.3658845,37.6351354 31.2298305,72.992065 Z" opacity=".2"/>
        </g>
        <ellipse cx="266.313" cy="276.072" fill="#2B1903" opacity=".099" rx="54.45" ry="4.949"/>
        <circle cx="430.5" cy="199.5" r="14.5" fill="url(#yaegi-community-header-w)" opacity=".523"/>
        <circle cx="100" cy="166" r="7" fill="url(#yaegi-community-header-w)" opacity=".523"/>
        <circle cx="475.5" cy="170.5" r="4.5" fill="url(#yaegi-community-header-x)" opacity=".662"/>
        <circle cx="435.5" cy="18.5" r="4.5" fill="url(#yaegi-community-header-y)" opacity=".793"/>
        <circle cx="141.5" cy="251.5" r="9.5" fill="url(#yaegi-community-header-z)" opacity=".855"/>
        <g transform="translate(431 44)">
          <path fill="url(#yaegi-community-header-A)" fill-rule="nonzero" d="M70.9231667,-1.42108547e-14 L26.0768333,-1.42108547e-14 C11.6982,-1.42108547e-14 -2.84217094e-14,11.5952308 -2.84217094e-14,25.8461538 L-2.84217094e-14,42 C-2.84217094e-14,56.2509231 11.6982,67.8461538 26.0768333,67.8461538 L32.3333333,67.8461538 L32.3333333,82.3846154 C32.3333333,83.0372308 32.7278,83.6284615 33.3324333,83.8772308 C33.5296667,83.9612308 33.7463,84 33.95,84 C34.3703333,84 34.7842,83.8352308 35.0881333,83.5283077 L50.7827333,67.8461538 L70.9199333,67.8461538 C85.3018,67.8461538 97,56.2509231 97,42 L97,25.8461538 C97,11.5952308 85.3018,-1.42108547e-14 70.9231667,-1.42108547e-14 Z"/>
          <g fill="#FFF" opacity=".485" transform="translate(19 18)">
            <rect width="27" height="5" x="7" rx="2.5"/>
            <rect width="8" height="5" x="39" rx="2.5"/>
            <rect width="14" height="5" x="13" y="12" rx="2.5"/>
            <rect width="27" height="5" x="32" y="12" rx="2.5"/>
            <rect width="39" height="5" y="24" rx="2.5"/>
            <rect width="7" height="5" x="43" y="24" rx="2.5"/>
          </g>
        </g>
        <g transform="translate(0 27)">
          <path fill="url(#yaegi-community-header-B)" fill-rule="nonzero" d="M85.5465,0 L31.4535,0 C14.1102,0 0,13.9418846 0,31.0769231 L0,50.5 C0,67.6350385 14.1102,81.5769231 31.4535,81.5769231 L39,81.5769231 L39,99.0576923 C39,99.8423846 39.4758,100.553269 40.2051,100.852385 C40.443,100.953385 40.7043,101 40.95,101 C41.457,101 41.9562,100.801885 42.3228,100.432846 L61.2534,81.5769231 L85.5426,81.5769231 C102.8898,81.5769231 117,67.6350385 117,50.5 L117,31.0769231 C117,13.9418846 102.8898,0 85.5465,0 Z" transform="matrix(-1 0 0 1 117 0)"/>
          <g fill="#FFF" opacity=".56" transform="rotate(180 50 25.5)">
            <rect width="19.37" height="6.514" x="18.079" rx="3.257"/>
            <rect width="37.449" height="6.514" x="44.04" rx="3.257"/>
            <rect width="53.591" height="6.514" y="17.143" rx="3.257"/>
            <rect width="10.008" height="6.514" x="58.891" y="17.143" rx="3.257"/>
          </g>
        </g>
      </g>
    </g>
  </g>
</svg>
