<svg height="302" preserveAspectRatio="none" viewBox="0 0 1440 302" width="1440" xmlns="http://www.w3.org/2000/svg" xmlns:xlink="http://www.w3.org/1999/xlink"><defs><radialGradient id="a" cx="76.107335%" cy="50%" gradientTransform="matrix(-.209722 0 0 -1 .920687 1)" r="262.733078%"><stop offset="0" stop-color="#ffd7a2"/><stop offset="1" stop-color="#fff7ea"/></radialGradient><path id="b" d="m0 0h1440v302h-1440z"/><radialGradient id="c" cx="50%" cy="50%" r="50%"><stop offset="0" stop-color="#fff"/><stop offset="1" stop-color="#fff" stop-opacity="0"/></radialGradient><linearGradient id="d" x1="50%" x2="50%" y1="20.409242%" y2="61.734157%"><stop offset="0" stop-color="#4fb3cd"/><stop offset="1" stop-color="#24a1c1"/></linearGradient><path id="e" d="m180.531938 67.9184249c10.545502 25.9231301 6.818896 53.8281511 8.404686 81.2575181 1.427211 23.544861-4.836659 51.529157-15.857898 73.40923-5.869546 11.696568-28.664603.133211-51.300291 0-21.701976-.127716-43.2841745 11.592962-48.4458859 3.250301-12.2898708-19.898182-12.6863182-49.467991-11.7348443-71.665167 1.0307633-26.160957-7.0567645-52.559741 1.5065003-78.1657681 8.9597122-26.6366107 33.1430063-32.6615584 59.0706689-34.643449 24.024715 0 46.62222 3.4881275 58.357064 26.557335z"/><filter id="f" height="107.5%" width="110.8%" x="-5.4%" y="-3.7%"><feGaussianBlur in="SourceAlpha" result="shadowBlurInner1" stdDeviation="5.5"/><feOffset dx="0" dy="3" in="shadowBlurInner1" result="shadowOffsetInner1"/><feComposite in="shadowOffsetInner1" in2="SourceAlpha" k2="-1" k3="1" operator="arithmetic" result="shadowInnerInner1"/><feColorMatrix in="shadowInnerInner1" type="matrix" values="0 0 0 0 0.654901961   0 0 0 0 0.850980392   0 0 0 0 0.901960784  0 0 0 1 0"/></filter><linearGradient id="g"><stop offset="0" stop-color="#e9b170"/><stop offset="1" stop-color="#f0cb9f"/></linearGradient><linearGradient id="h" x1="43.461654%" x2="135.161755%" xlink:href="#g" y1="63.175623%" y2="-.187588%"/><path id="i" d="m2.14760576 85.3154143c.15857898-.7927562.55502643-1.5062369 1.03076336-2.2197175 2.44492756-7.7838511-.59998377-16.5740386-.79289489-18.6297724-.72904805-7.7690114 3.25086904-7.5311846 6.89818553-7.7690114 30.05071624-1.6647882 90.15214884-35.1983784 121.23362824-53.82815079 4.360922-2.6160957 4.043764-4.51871075 6.660317-.31710251 1.268632 2.0611663.951474 4.83581325.951474 4.83581325 2.421505 1.77064182-1.843255 19.28500395-2.494802 36.06265025-.777843 20.0298335 1.983709 40.3602984 5.349224 50.1099563 18.157293 52.3219135-141.53173786 16.8857085-140.89742195 1.506237 1.18934234-3.1710251 1.58578978-6.4213258 2.06152671-9.7509022z"/><filter id="j" height="189.1%" width="130.2%" x="-15.1%" y="-44.5%"><feGaussianBlur in="SourceGraphic" stdDeviation="8.1"/></filter><linearGradient id="k"><stop offset="0" stop-color="#e9b171"/><stop offset="1" stop-color="#e29740"/></linearGradient><linearGradient id="l" x1="84.109598%" x2="23.631571%" xlink:href="#k" y1="-12.408146%" y2="100%"/><linearGradient id="m" x1="248.647635%" x2="11.838323%" xlink:href="#k" y1="31.677602%" y2="59.992693%"/><linearGradient id="n" x1="248.647635%" x2="11.838323%" xlink:href="#k" y1="36.193913%" y2="57.529582%"/><linearGradient id="o" x1="83.524615%" x2="24.083792%" xlink:href="#k" y1="-12.408146%" y2="100%"/><linearGradient id="p" x1="114.678858%" x2="0%" xlink:href="#k" y1="36.037598%" y2="61.186362%"/><linearGradient id="q" x1="50%" x2="50%" y1="0%" y2="26.641019%"><stop offset="0" stop-color="#f0cb9f"/><stop offset="1" stop-color="#edbe88"/></linearGradient><path id="r" d="m135.698289 3.94284041c-4.440211-1.58551254-4.59879-3.48812759-11.417686-3.48812759-14.272108 0-21.566741 5.39074264-43.767798 5.39074264-6.1052907 0-28.6235055-6.02494766-26.9584262-4.59798637-5.3916853-.8720319-11.3383969-2.45754444-17.2851086.31710251-9.9111861.79275627-19.1087668 3.56740321-27.27558417 9.2752484-8.24610684 5.8663964-10.62479151 13.4768566-7.69108042 23.4655856 1.74436876 11.0193121 9.51473869 16.1722279 19.34663529 18.6297723 12.8448972 3.1710251 25.6897944.9513075 38.4554021-.4756537 9.1975807-.9513076 18.2365824-3.0124739 27.7513211-1.4269613 14.7478449 2.4575444 29.5749789 4.043057 44.6399819 3.2503007 14.827135-.7927563 25.214058-7.6897358 27.592742-18.8675993 3.17158-8.7203189 2.537264-16.8857085-5.074527-23.0692074-5.312396-4.43943514-11.338397-7.53118459-18.315872-8.40321649z"/><linearGradient id="s" x1="43.461654%" x2="135.161755%" xlink:href="#g" y1="51.689431%" y2="43.564745%"/><linearGradient id="t" x1="50%" x2="50%" y1="0%" y2="77.843988%"><stop offset="0" stop-color="#e6a65b"/><stop offset="1" stop-color="#dc9543"/></linearGradient><linearGradient id="u" x1="100%" x2="11.369876%" y1="45.86585%" y2="52.754054%"><stop offset="0" stop-color="#e8ad69"/><stop offset="1" stop-color="#e29740"/></linearGradient><radialGradient id="v" cx="50%" cy="1.958404%" r="98.041596%"><stop offset="0" stop-color="#fff6eb"/><stop offset="1" stop-color="#fff" stop-opacity=".568045"/></radialGradient><radialGradient id="w" cx="50%" cy="1.958404%" r="98.041596%"><stop offset="0" stop-color="#fffdfb"/><stop offset="1" stop-color="#ffe4c4"/></radialGradient><radialGradient id="x" cx="50%" cy="1.958404%" r="98.041596%"><stop offset="0" stop-color="#fff6eb"/><stop offset="1" stop-color="#ffdeb6"/></radialGradient><radialGradient id="y" cx="50%" cy="1.958404%" r="98.041596%"><stop offset="0" stop-color="#fff6eb"/><stop offset="1" stop-color="#fff" stop-opacity=".285266"/></radialGradient><linearGradient id="z" x1="77.214884%" x2="77.214884%" y1="75.841704%" y2="0%"><stop offset="0" stop-color="#da852e"/><stop offset="1" stop-color="#e59740"/></linearGradient><linearGradient id="A" x1="77.214884%" x2="77.214884%" y1="83.565848%" y2="0%"><stop offset="0" stop-color="#24a1c1"/><stop offset="1" stop-color="#5bb4c8"/></linearGradient><mask id="B" fill="#fff"><use fill="#fff" fill-rule="evenodd" xlink:href="#b"/></mask><mask id="C" fill="#fff"><use fill="#fff" fill-rule="evenodd" xlink:href="#i"/></mask><mask id="D" fill="#fff"><use fill="#fff" fill-rule="evenodd" xlink:href="#r"/></mask></defs><g fill="none" fill-rule="evenodd" transform="translate(.101562 -.00211)"><use fill="#db7d11" xlink:href="#b"/><use fill="url(#a)" fill-opacity=".9" xlink:href="#b"/><circle cx="1083.89844" cy="158.00211" fill="url(#c)" mask="url(#B)" r="151"/><g mask="url(#B)"><g fill-rule="nonzero" transform="translate(969.898438 29.00211)"><path d="m1.17911427 73.1506163c-7.77036991 46.6140687 39.48616543 101.6313537 123.61231273 100.2836687 89.99357-1.426962 133.840658-69.366174 149.777845-109.4796414-41.706271 72.7750254-82.2232 95.6856814-151.284345 99.4116364-65.6516967 3.567403-116.634838-36.942442-109.498784-83.6357867 13.0034762-85.22129902 164.842847-77.84866571 199.175196-55.5722145-58.119195-40.1927429-200.2059594-20.7702143-211.78222473 48.9923375z" fill="#fff" opacity=".358157"/><path d="m207.648943 150.12725-.872184-1.26841 1.902948-1.347686-3.409448-4.835813-1.030764 2.140442-1.268632-.792756 1.506501-2.933198 1.189342-.872032 4.519501 6.34205 1.665079-1.189134.872184 1.26841zm8.959712-12.604825c.475737.634205.792895 1.189135 1.030764 1.744064.237868.55493.396447 1.109859.396447 1.664788 0 .55493-.079289 1.030584-.317158 1.426962-.237868.475653-.555026.872032-1.030763 1.189134-.396448.317103-.792895.55493-1.268632.634205-.475737.158551-.951474.158551-1.427211 0-.475737-.079275-.951474-.317102-1.5065-.713481-.475737-.396378-1.030763-.872031-1.5065-1.506236s-.792895-1.189135-1.030764-1.744064c-.237868-.55493-.396447-1.109859-.396447-1.664788 0-.55493.079289-1.030584.317158-1.426962.237868-.396378.555026-.872032 1.030763-1.189134.396448-.317103.792895-.554929 1.268632-.634205.475737-.158551.951474-.158551 1.427211 0s.951474.317102 1.5065.713481c.475737.396378 1.030764.872031 1.5065 1.506236zm-4.281632 3.408852c.07929.079276.07929.158552.158579.237827.07929.079276.07929.158552.158579.158552l1.189342-4.122333c-.396447-.237827-.792895-.396378-1.189342-.396378s-.634316.079275-.951474.317102c-.237868.158552-.396447.396378-.475737.634205-.079289.237827-.158579.55493-.079289.872032.079289.317103.158579.713481.317158 1.030583.237868.396379.555026.872032.872184 1.26841zm2.933711-2.219717c-.079289-.079276-.079289-.158551-.158579-.158551-.079289 0-.079289-.158552-.158579-.158552l-1.189342 4.122333c.396447.237827.792895.396378 1.110053.396378s.634316-.079276.951474-.317102c.237868-.158552.396447-.396379.475736-.634205.07929-.237827.158579-.55493.07929-.872032 0-.317103-.158579-.713481-.317158-1.030583-.158579-.55493-.396447-.951308-.792895-1.347686zm5.550264 1.347686-1.030763-1.189135 1.744369-1.585512-3.885185-4.518711-.792895 2.219717-1.347921-.71348 1.189342-3.09175 1.110053-.951307 5.074527 5.866396 1.5065-1.347685 1.030764 1.189134zm7.532502-12.604825c.475737.475654.872184 1.030583 1.110053 1.506237.237868.475654.396447 1.030583.475737 1.426961.079289.475654 0 .951308-.158579 1.347686s-.475737.872032-.872185 1.189134c-.317158.317103-.713605.554929-1.110053.713481-.396447.158551-.792895.237827-1.268631.158551-.475737-.079276-.951474-.237827-1.427211-.554929-.475737-.317103-1.030764-.713481-1.506501-1.26841-.475736-.475654-.872184-1.030584-1.110052-1.506237-.237869-.475654-.396448-1.030583-.475737-1.426962-.07929-.475653 0-.951307.158579-1.347685.158579-.475654.475737-.872032.872184-1.189135.317158-.317102.713605-.554929 1.110053-.71348.396447-.158552.792895-.237827 1.268632-.158552.475737.079276.951474.237827 1.427211.475654.475736.396378.951473.792756 1.5065 1.347686zm-3.647317 3.488127c.07929.079276.07929.158552.158579.158552.07929.079275.07929.079275.158579.158551l.713606-3.884506c-.396448-.237827-.792895-.317102-1.110053-.237827-.317158.079276-.634316.158552-.872185.396378-.158579.158552-.317158.396379-.396447.634205-.079289.237827-.079289.475654 0 .792757.079289.317102.237868.634205.396447.951307.317158.317103.634316.634205.951474 1.030583zm2.537264-2.298993c-.07929-.079275-.07929-.079275-.158579-.158551-.07929-.079276-.07929-.079276-.158579-.158551l-.713605 3.80523c.396447.237827.713605.317102 1.030763.237827.317158 0 .634316-.158552.872184-.396378.158579-.158552.317158-.396379.396448-.634205.079289-.237827.079289-.475654 0-.792757-.07929-.317102-.237869-.634205-.396448-.951307-.237868-.237827-.555026-.634205-.872184-.951308zm5.233106.713481-1.030763-.951308 1.5065-1.585512-3.964474-3.80523-.555027 2.061166-1.268632-.554929.792895-2.933199.951474-.951307 5.153817 4.915089 1.268632-1.347686 1.030763.951308zm5.788133-12.129171c.475737.396378.872184.872032 1.110053 1.26841.237868.396378.475737.872032.555026 1.26841.07929.396378.07929.872032-.079289 1.26841-.07929.396378-.317158.792756-.634316 1.189134-.317158.317103-.555027.55493-.951474.713481-.317158.158551-.713605.237827-1.110053.237827-.396447 0-.872184-.158551-1.347921-.317103-.475737-.158551-.951474-.554929-1.506501-1.030583-.475736-.396378-.872184-.872032-1.110052-1.26841-.317158-.396378-.475737-.872032-.555027-1.26841-.079289-.396378-.079289-.872032.07929-1.26841.079289-.396378.317158-.792756.634316-1.189134.317158-.317103.634316-.55493.951473-.713481.317158-.158551.713606-.237827 1.110053-.237827.396448 0 .872185.158552 1.347922.317103.475737.237827.951473.634205 1.5065 1.030583zm-3.013001 3.488128c.07929.079275.07929.079275.158579.158551.07929.079275.07929.079275.158579.158551l.317158-3.567403c-.396447-.158551-.713605-.237827-1.030763-.158551-.317158.079275-.555027.158551-.713606.396378-.158578.158551-.237868.396378-.317157.554929-.07929.158551 0 .475654.079289.713481.07929.237827.237868.554929.475737.792756.237868.317103.555026.634205.872184.951308zm2.061527-2.298994c-.079289-.079275-.079289-.079275-.158579-.158551-.079289-.079276-.079289-.079276-.158579-.158551l-.317158 3.567403c.396448.158551.713606.237827.951474.158551.317158-.079275.555026-.158551.713605-.396378.158579-.158551.237869-.396378.237869-.554929s0-.475654-.07929-.713481c-.079289-.237827-.237868-.554929-.475737-.792756-.079289-.396378-.317158-.634205-.713605-.951308zm5.788133-6.500601c.475737.317102.792895.713481 1.110053 1.109859.237868.396378.475737.792756.555026 1.109858.079289.396379.079289.792757 0 1.109859-.079289.396378-.237868.713481-.555026 1.109859-.237869.317103-.475737.554929-.792895.713481-.317158.158551-.634316.237827-1.030764.237827-.396447 0-.792895-.079276-1.189342-.237827-.396447-.158552-.872184-.475654-1.347921-.872032-.475737-.317103-.792895-.713481-1.110053-1.109859-.237869-.396378-.475737-.792756-.555027-1.109859-.079289-.396378-.079289-.792756 0-1.109859.07929-.396378.237869-.71348.555027-1.109858.237868-.317103.475737-.55493.792895-.713481s.634316-.237827 1.030763-.237827c.396448 0 .792895.079276 1.189342.237827.396448.158551.872185.475654 1.347922.872032zm-2.537264 3.171025c.07929.079276.07929.079276.158579.158551.07929 0 .07929.079276.158579.079276l.158579-3.171025c-.317158-.158551-.634316-.158551-.951474-.079276-.237868.079276-.475737.158551-.634316.396378-.158579.158552-.237868.317103-.237868.55493 0 .158551 0 .396378.079289.634205.07929.237827.237869.475653.396448.71348.237868.237827.555026.475654.872184.713481zm1.744369-2.140442c-.07929 0-.07929-.079276-.158579-.079276-.07929 0-.07929-.079275-.158579-.079275l-.158579 3.171025c.317158.158551.634316.158551.872184.079276.237869-.079276.475737-.158552.634316-.396379.158579-.158551.237869-.317102.237869-.554929s0-.396378-.07929-.634205c-.079289-.237827-.237868-.475654-.396447-.713481-.158579-.317102-.475737-.554929-.792895-.792756zm4.519501-.158551-.792895-.634205.951474-1.26841-3.17158-2.378269-.237868 1.585513-.951474-.237827.317158-2.219718.555026-.792756 4.123054 3.091749.792894-1.109859.792895.634205zm3.488737-4.756538-.713605-.475654.792895-1.109858-2.854422-1.981891-.158579 1.347686-.872184-.237827.237868-1.902615.475737-.713481 3.726606 2.616096.713606-.951308.713605.475654zm3.013001-8.5617675c.317158.2378269.555026.3963781.792895.6342045.237868.237827.317158.475654.396447.713481.07929.237827.07929.475654.07929.713481s-.158579.475654-.317158.71348c-.158579.237827-.317158.396379-.475737.55493s-.396448.237827-.634316.237827c-.237869 0-.555027 0-.792895-.079276-.317158-.079276-.634316-.237827-.951474-.475654s-.555026-.396378-.792895-.634205c-.237868-.237827-.317158-.475653-.396447-.71348-.07929-.237827-.07929-.475654-.07929-.713481s.158579-.4756538.317158-.7134806c.158579-.2378269.317158-.3963782.475737-.5549294.158579-.1585513.396448-.2378269.634316-.2378269s.555026 0 .792895.0792756c.237868.0792756.555026.2378269.951474.4756538zm-1.506501 2.2989935s.07929.079275.07929.079275.079289.079276.079289.079276l-.079289-2.140442c-.237868-.0792756-.475737-.0792756-.634316 0s-.317158.1585512-.396447.317102c-.07929.079276-.07929.237827-.07929.396379 0 .158551 0 .237827.07929.396378.079289.158551.158579.317102.317158.475654.158579.079275.396447.237826.634315.396378zm1.030764-1.585513s-.07929-.079276-.07929-.079276-.079289-.079275-.079289-.079275l.079289 2.140442c.237869.079275.396448.079275.634316 0 .158579-.079276.317158-.158551.396448-.317103.079289-.079275.079289-.237827.079289-.396378s0-.237827-.079289-.396378c-.07929-.158551-.158579-.317102-.317158-.475654-.237869-.079275-.396448-.237827-.634316-.396378zm3.330158-.9513074-.555026-.3171025.555026-.8720319-2.140816-1.26841-.079289.9513075-.634316-.0792756.079289-1.3476857.317158-.4756538 2.775132 1.7440638.475737-.7134806.555027.3171025zm1.823659-6.7384283c.237868.1585513.475737.3171025.713605.5549294.158579.1585512.317158.3963781.396447.5549294.07929.1585512.07929.3963781.07929.634205s-.07929.3963781-.237869.634205c-.079289.1585513-.237868.3171025-.396447.4756538-.158579.0792756-.317158.1585512-.555026.2378269-.237869 0-.396448 0-.713606-.0792757-.237868-.0792756-.555026-.1585512-.792895-.3963781-.237868-.1585513-.475737-.3171025-.713605-.5549294-.158579-.1585513-.317158-.3963781-.396448-.5549294-.079289-.2378269-.079289-.3963781-.079289-.634205s.079289-.3963781.237868-.634205c.07929-.1585513.237869-.3171025.396448-.4756538.158579-.0792756.317158-.1585512.555026-.2378269.237869 0 .396448 0 .713606.0792757.158579.1585512.475737.2378268.792895.3963781zm-1.189343 1.9818907s.07929 0 .07929.0792756c0 0 .079289 0 .079289.0792756l-.158579-1.8233394c-.237868-.0792756-.396447 0-.475737 0-.079289 0-.237868.1585513-.317158.2378269-.079289.0792756-.079289.1585512-.079289.3171025 0 .0792756 0 .2378269.079289.3171025.07929.1585513.158579.2378269.317158.3963781.07929.1585513.237869.3171025.475737.3963782zm.792895-1.2684101s-.079289 0-.079289-.0792756-.07929 0-.07929-.0792756l.158579 1.7440638c.158579.0792756.396448 0 .475737 0 .158579-.0792756.237869-.1585513.317158-.2378269.07929-.0792756.07929-.2378269.07929-.3171025s0-.2378269-.07929-.3171025c-.079289-.0792756-.158579-.2378269-.317158-.3963781-.079289-.0792757-.237868-.2378269-.475737-.3171026zm2.616553-.7134806-.475737-.2378269.396448-.7134806-1.744369-.9513075v.7927562l-.475737-.0792756v-1.1098588l.237869-.3963781 2.220105 1.26841.317158-.5549294.475737.2378269zm1.58579-2.7746469-.475737-.2378269.396448-.7134807-1.744369-.9513075v.7927563l-.475737-.0792757v-1.1098587l.237868-.3963782 2.299396 1.2684101.317158-.634205.475736.2378268z" fill="#24a1c1"/><path d="m179.342596 19.4810168c.317158.1585512.792895.3963781 1.268632.5549294.475736.1585512 1.030763.3171025 1.585789.3963781.396448.0792756.713606.0792756 1.030764.0792756s.634316-.1585512.872184-.3171025c.237868-.1585512.475737-.3963781.713605-.7134806.237869-.3171025.317158-.7134806.396448-1.1891344l.396447-2.0611663-5.074527-.9513075.475737-2.4575445 5.074527.9513075 1.66508-8.6410433 3.171579.55492939-1.665079 8.64104331 3.726606.7134807-.396448 2.4575444-3.726606-.7134806-.396447 1.9818907c-.158579.9513075-.475737 1.6647881-.872184 2.2989931-.396448.6342051-.872185 1.1098588-1.427211 1.4269613-.555027.3171025-1.189343.5549294-1.902948.5549294-.713605.0792756-1.5065 0-2.378685-.1585512-.555026-.0792757-1.110053-.2378269-1.585789-.3963782-.475737-.1585512-.951474-.3171025-1.347922-.5549294zm-4.995238-3.8052301 1.030763-8.16538959c.07929-.71348064 0-1.18913441-.158579-1.58551254-.237868-.39637814-.555026-.63420502-1.110053-.63420502-.475737-.07927562-1.030763.07927563-1.5065.39637814s-1.110053.8720319-1.665079 1.50623691l-1.030763 7.9275627-3.013001-.3963781 1.58579-12.5255491 2.616553.31710251-.158579 1.82333942c.317158-.31710251.634316-.55492939.951474-.79275627s.634316-.39637814.951474-.55492939c.317158-.15855126.713605-.23782688 1.110052-.31710251.396448-.07927563.792895-.07927563 1.268632 0 .634316.07927563 1.189343.23782688 1.66508.55492939.475736.23782688.792894.63420502 1.110052 1.03058315.237869.39637814.475737.95130753.555027 1.50623692.079289.55492938.079289 1.1891344 0 1.82333942l-1.110053 8.40321646zm-16.809372-14.42816413-.634316 7.76901145c-.079289 1.34768568.317158 1.98189068 1.268632 2.06116628.475737.0792757.951474-.0792756 1.427211-.4756537.475737-.3171025.951474-.87203193 1.5065-1.50623695l.634316-7.53118457 2.854422.23782688-1.030764 11.97061964-2.457974-.2378268.07929-1.7440638c-.237869.3171025-.555027.5549294-.792895.7927562-.317158.2378269-.555027.3963782-.872185.5549294-.317157.1585513-.634315.2378269-1.030763.3171025-.396447.0792757-.792895.0792757-1.189342.0792757-.634316-.0792757-1.110053-.1585513-1.58579-.3963782s-.792895-.5549294-1.030763-.9513075c-.237869-.3963781-.475737-.8720319-.555027-1.3476857-.079289-.5549293-.158579-1.10985873-.079289-1.74406375l.713605-8.00683833zm-15.699319-.39637813c.555027-.15855126 1.110053-.31710251 1.66508-.39637814.555026-.07927562 1.189342-.07927562 1.823658-.07927562.872184 0 1.744369.15855125 2.378685.47565376.713605.23782688 1.268631.63420501 1.744368 1.1891344s.872185 1.10985878 1.110053 1.82333943c.237869.71348064.317158 1.58551254.317158 2.53682006 0 .8720319-.237868 1.7440638-.555026 2.45754444s-.713606 1.34768563-1.268632 1.82333943-1.189342.8720319-1.902948 1.1098588c-.713605.2378269-1.58579.3963781-2.457974.3171025-.713605 0-1.347921-.0792756-1.823658-.1585513-.475737-.0792756-.951474-.2378269-1.347921-.3171025l.079289-2.61609568c.475737.23782689.951474.47565377 1.5065.63420502.555027.15855125 1.030764.23782688 1.506501.23782688s.951473-.07927563 1.347921-.23782688c.396447-.15855125.792895-.39637813 1.030763-.63420502.317158-.3171025.555027-.63420501.713606-1.10985877.158579-.39637814.237868-.8720319.317158-1.42696129 0-.55492939 0-1.03058315-.158579-1.50623692-.158579-.47565376-.317158-.79275627-.634316-1.10985877-.317158-.31710251-.634316-.55492939-1.030764-.71348065-.396447-.15855125-.872184-.31710251-1.347921-.31710251-.237868 0-.475737 0-.792895 0-.237868 0-.555026.07927563-.792895.07927563-.237868.07927563-.555026.07927563-.792895.15855126-.237868.07927562-.475737.15855125-.713605.23782688zm-19.584503-.39637814.158579 7.37263332v.71348064c0 .23782688.079289.39637814.079289.47565376.07929.15855126.07929.23782689.158579.31710251.07929.07927563.158579.07927563.317158.07927563.237869 0 .396448-.15855125.634316-.47565376.237869-.31710251.396447-.79275627.713605-1.50623692l-.158579-6.97625518 2.220106-.07927562.158579 7.37263331c0 .23782688 0 .47565376.07929.71348064 0 .23782689.079289.39637814.079289.47565377.07929.15855125.07929.23782688.237869.31710251.079289.07927562.237868.07927562.317158.07927562.158579 0 .396447-.15855125.634315-.47565376.237869-.31710251.475737-.79275627.713606-1.50623691l-.158579-6.97625518 2.220106-.07927563.237868 10.78148525-1.902948.0792757-.079289-1.58551259c-.158579.31710251-.317158.63420499-.475737.79275629-.158579.2378269-.317158.3963781-.475737.5549294-.158579.1585512-.396448.2378269-.555026.3171025-.237869.0792756-.396448.0792756-.713606.0792756-.634316 0-1.030763-.1585512-1.347921-.4756538-.317158-.3171025-.475737-.7134806-.555027-1.26840999-.158579.31710251-.317158.63420499-.475737.79275629-.158579.2378269-.317158.3963781-.475736.5549294-.158579.1585512-.396448.2378269-.555027.3171025-.237868.0792756-.475737.0792756-.713605.0792756-.792895 0-1.347922-.2378269-1.744369-.7927563-.396448-.55492935-.634316-1.34768562-.634316-2.4575444l-.158579-7.76901145zm-11.179818.63420502.158579 1.34768566c.237868-.23782688.396447-.47565376.634316-.63420502.237868-.23782688.475737-.39637813.713605-.55492939.237869-.15855125.555027-.3171025.872184-.39637813.317158-.07927563.713606-.15855126 1.110053-.15855126.555027 0 .951474 0 1.347922.15855126.396447.15855125.713605.31710251 1.030763.55492939s.475737.55492939.713605.95130752c.158579.39637814.237869.79275627.317158 1.26841004 0 .47565376 0 .95130752-.237868 1.34768565-.158579.39637814-.475737.79275628-.872185 1.10985878-.396447.31710251-.872184.55492939-1.5065.79275627-.634316.23782689-1.347921.31710251-2.140816.39637814l-1.347921.07927563.079289.63420501c0 .23782688.07929.47565376.158579.71348065.07929.23782688.237869.39637813.396448.47565376s.396447.23782688.634316.31710251c.237868.07927562.555026.07927562.951473.07927562.634316-.07927562 1.189343-.15855125 1.744369-.3171025.555027-.15855126 1.110053-.39637814 1.665079-.71348065l.158579 1.98189064c-.475737.2378269-1.030763.3963782-1.665079.6342051-.634316.1585512-1.268632.3171025-1.982237.3171025-.792895.0792756-1.427211 0-1.982237-.0792757-.555027-.0792756-1.030764-.3171025-1.347922-.5549294-.396447-.2378268-.634316-.634205-.872184-1.03058311-.158579-.39637813-.317158-.95130752-.317158-1.50623691l-.475737-6.97625518zm.713605 4.51871074 1.5065-.07927563c.396448 0 .792895-.07927562 1.030764-.15855125.317158-.07927563.475737-.23782688.713605-.39637814.237869-.15855125.317158-.3171025.396448-.47565376.079289-.15855125.079289-.39637813.079289-.55492939 0-.39637813-.158579-.71348064-.475737-.95130752s-.634316-.31710251-1.110053-.23782688c-.317158 0-.713605.15855125-1.030763.47565376-.317158.23782688-.713605.63420502-1.110053 1.10985878zm-8.166817 4.04305698 2.695842-.31710251.237869 1.74406377-5.074527.5549294-.872185-7.76901143-2.7751318.3171025-.2378685-1.74406379 8.0875283-.95130753.237868 1.7440638-3.013001.31710251zm-2.061527 4.67726196c0-.2378268 0-.3963781.07929-.634205.079289-.1585512.158579-.3963781.237868-.4756537.07929-.1585513.237869-.2378269.475737-.3963782.237868-.1585512.396447-.1585512.555026-.1585512.237869 0 .396448 0 .634316.0792756.158579.0792756.396448.1585512.555027.2378269.158579.0792756.237868.2378269.396447.4756537.07929.1585513.158579.3963782.158579.5549294 0 .2378269 0 .3963782-.079289.634205-.07929.1585513-.158579.3963782-.237869.4756538-.158579.1585513-.237868.3171025-.475737.3963781-.158579.0792757-.396447.1585513-.555026.1585513s-.396448 0-.634316-.0792756c-.158579-.0792757-.396447-.1585513-.475737-.2378269-.158579-.1585513-.237868-.2378269-.396447-.4756538-.158579-.1585512-.158579-.3171025-.237869-.5549294zm-12.0520022-10.54365836.9514739 5.78712077c.158579.95130749.6343159 1.42696129 1.3479213 1.26840999.3964475-.0792756.7136054-.2378268.9514739-.634205.3171579-.31710248.5550264-.79275624.8721844-1.34768563l-.9514739-5.62856952 2.1408162-.39637814 1.5065003 8.87887019-1.8236583.3171026-.2378684-1.2684101c-.158579.2378269-.317158.4756538-.475737.7134807-.1585789.2378268-.3171579.3963781-.5550264.5549294-.2378685.1585512-.3964474.3171025-.7136054.3963781-.2378685.0792756-.5550264.1585512-.8721844.2378269-.4757369.0792756-.8721843.0792756-1.1893423 0-.317158-.0792757-.7136054-.2378269-.9514739-.4756538-.2378684-.2378269-.4757369-.5549294-.7136054-.8720319-.1585789-.3963781-.3171579-.7927563-.3964474-1.26841l-1.0307634-5.94567205zm-11.2591074-1.42696129c1.6650793.8720319 3.0130006 1.90261505 4.043764 3.09174946 1.0307633 1.1891344 1.6650792 2.61609569 2.0615267 4.1223326.1585789.87203189.3171579 1.74406379.2378684 2.53682009-.0792895.7927562-.1585789 1.5855125-.3964474 2.3782688s-.5550264 1.5062369-.9514739 2.2197175c-.3964474.7134807-.7928949 1.4269613-1.3479213 2.0611664l-1.5065003-.9513076c.8721844-1.26841 1.5065003-2.53682 1.8236583-3.8052301.3171579-1.26841.3171579-2.6160957 0-3.8845057-.317158-1.26841003-.8721844-2.53682006-1.6650793-3.56740321-.7928949-1.03058316-1.9029477-1.98189068-3.250869-2.69537132zm-2.5372636 18.07484295c-1.7443688-.7134806-3.0922901-1.6647881-4.2023429-2.8539226-1.1100529-1.1098587-1.8236583-2.4575444-2.2993952-4.0430569-.2378685-.8720319-.3964475-1.6647882-.3964475-2.5368201 0-.7927563.0792895-1.66478817.2378685-2.37826881s.3964475-1.58551254.7136054-2.29899319c.317158-.71348064.7136054-1.42696128 1.1893423-2.14044193l1.5065003.79275627c-.7928949 1.34768566-1.3479213 2.6160957-1.5857897 3.96378136-.2378685 1.3476857-.158579 2.6160957.2378684 3.8845057.3964475 1.2684101 1.0307634 2.4575445 1.9029478 3.4881276.8721843 1.0305832 2.0615267 1.9026151 3.4887375 2.5368201zm-21.566741-9.9094534c1.0307634-.3963781 1.9822372-.4756537 2.6958426-.1585512s1.3479213 1.0305831 1.7443688 2.0611663l.7928949 1.9818907c.2378684.5549294.4757369.8720319.8721844 1.0305831.3171579.1585513.7928948.1585513 1.3479213-.0792756l.4757369-.1585513.5550264 1.4269613-.4757369.1585513c-.2378685.0792756-.4757369.2378269-.6343159.3963781-.158579.1585513-.317158.3171025-.3964475.4756538-.0792895.1585512-.0792895.3963781-.0792895.5549294 0 .2378268.0792895.4756537.158579.7134806l.5550264 1.3476857c.2378685.5549294.317158 1.0305831.3964475 1.4269613.0792895.4756537 0 .8720318-.158579 1.1891344-.158579.3963781-.3964474.7134806-.7136054 1.0305831-.3171579.3171025-.7928949.5549294-1.3479213.7927563l-.6343159.2378269-.5550264-1.4269613.4757369-.1585513c.2378685-.0792756.4757369-.2378269.6343159-.3171025.158579-.1585512.317158-.3171025.3964475-.4756538.0792894-.1585512.1585789-.3963781.0792894-.634205 0-.2378268-.0792894-.5549294-.2378684-.8720319l-.5550264-1.3476856c-.158579-.3963782-.2378685-.7134807-.317158-1.0305832s0-.5549294 0-.7927562c.0792895-.2378269.158579-.4756538.317158-.6342051.1585789-.1585512.3964474-.3171025.6343159-.4756537-.5550265.1585512-1.0307634.0792756-1.5065003-.1585513-.3964475-.2378269-.7928949-.7927563-1.1100529-1.5062369l-.7928949-1.9818907c-.1585789-.3171025-.3171579-.5549294-.4757369-.7927562-.158579-.1585513-.3171579-.3171025-.5550264-.3963782-.158579-.0792756-.3964475-.0792756-.6343159-.0792756-.2378685 0-.475737.0792756-.7136054.1585513l-.475737.1585512-.5550264-1.4269613zm-8.1668173 18.1541186c.2378684-.0792756.4757369-.1585512.7928949-.2378269.3171579-.0792756.5550264-.2378268.8721843-.3963781.158579-.0792756.3964475-.2378269.475737-.3963781.0792894-.1585513.2378684-.3171025.3171579-.4756538.0792895-.1585512.0792895-.3963781.0792895-.5549294 0-.2378269-.0792895-.4756537-.2378685-.7134806l-.6343159-1.1098588-2.6958426 1.5062369-.7136054-1.26841 2.6958426-1.5062369-2.6165531-4.5187108 1.6650793-.9513075 2.5372636 4.5979864 1.9822372-1.1098588.7136054 1.26841-1.9822372 1.1098588.5550264 1.0305832c.2378685.4756537.3964475.9513075.475737 1.3476856.0792894.3963782 0 .7927563-.158579 1.1891344-.158579.3963782-.317158.7134807-.6343159 1.0305832-.317158.3171025-.7136054.5549294-1.1100529.7927562-.3171579.1585513-.5550264.3171026-.8721843.3963782-.317158.0792756-.5550265.2378269-.7928949.2378269zm-11.3383969-3.4881276 3.0130005 4.3601595c.0792895.1585513.2378685.3171025.317158.3963782.0792895.0792756.158579.2378268.2378685.2378268.0792894.0792757.1585789.0792757.2378684.0792757s.158579 0 .2378685-.0792757c.158579-.0792756.158579-.2378268.2378685-.5549293.0792894-.3171026-.0792895-.6342051-.158579-1.1891345l-2.8544216-4.1223326 1.3479213-.9513075 3.0130006 4.3601595c.0792895.1585513.2378684.3171025.3171579.3963781.0792895.0792757.158579.2378269.2378685.2378269.0792895.0792756.158579.0792756.2378685.0792756.0792894 0 .1585789 0 .2378684-.0792756s.158579-.2378269.158579-.5549294c0-.2378268-.0792895-.7134806-.158579-1.1891344l-2.8544216-4.1223326 1.3479213-.9513075 4.4402114 6.4213258-1.1100528.7927563-.7136054-.9513076c.0792895.2378269.0792895.4756538.0792895.7134807s0 .3963781-.0792895.5549294c-.0792895.1585512-.0792895.3171025-.2378685.3963781-.0792895.1585513-.2378685.2378269-.3964474.3171025-.3964475.2378269-.7136054.3171025-1.0307634.3171025-.317158-.0792756-.6343159-.2378269-.8721844-.5549294 0 .2378269.0792895.4756538 0 .7134807 0 .2378269 0 .3963781-.0792895.5549294-.0792895.1585512-.1585789.3171025-.2378684.3963781-.0792895.1585513-.2378685.2378269-.3964475.3171025-.4757369.3171025-.9514738.3963781-1.3479213.2378269-.4757369-.1585513-.8721844-.5549294-1.3479213-1.1891344l-3.1715796-4.5979864zm-7.8496594 6.5798771c.1585789-.2378269.3964474-.4756538.6343159-.7134807.2378684-.2378268.3964474-.4756537.6343159-.634205.3171579-.3171025.7136054-.5549294 1.0307633-.7134806.317158-.1585513.6343159-.2378269.9514739-.2378269s.6343159.0792756.8721844.2378269c.3171579.1585512.5550264.3963781.8721844.7134806l2.2993951 2.6160957 1.4272108-1.26841.8721844 1.0305831-1.4272108 1.2684101 1.1893423 1.3476856-1.0307633 1.5062369-1.5065003-1.7440638-2.1408162 1.8233395-.8721844-1.0305832 2.1408162-1.8233394-2.2201057-2.5368201c-.2378684-.3171025-.5550264-.4756537-.7928949-.4756537-.3171579 0-.5550264.0792756-.9514738.3963781-.2378685.1585513-.3964475.3963781-.5550264.634205-.158579.2378269-.317158.3963782-.475737.634205zm-2.4579742 6.1834989c-.158579.1585512-.3171579.2378269-.4757369.3171025s-.317158.1585513-.5550264.1585513c-.158579 0-.317158 0-.5550265-.0792757-.1585789-.0792756-.3171579-.1585512-.4757369-.3171025-.158579-.1585512-.2378685-.2378269-.317158-.4756537-.0792894-.1585513-.1585789-.3171025-.1585789-.4756538s0-.3171025.0792895-.5549294c.0792894-.1585512.1585789-.3171025.3171579-.4756538.158579-.1585512.2378685-.2378268.4757369-.3171025.158579-.0792756.317158-.0792756.475737-.1585512.158579 0 .3171579 0 .5550264.0792756.158579.0792756.317158.1585513.4757369.3171025.158579.1585513.2378685.3171025.317158.4756538.0792895.1585512.158579.3171025.158579.4756537 0 .1585513 0 .3171026-.0792895.5549294 0 .2378269-.158579.3963782-.2378685.4756538zm-4.5195009 12.0498953c-.3964474-.2378269-.7136054-.5549294-.9514738-.9513075-.2378685-.3963782-.3964475-.7927563-.475737-1.1891344-.0792894-.3963782 0-.8720319.0792895-1.3476857.158579-.4756537.3964475-.9513075.7136054-1.5062369l.475737-.7134806-2.4579742-1.6647882 1.0307634-1.4269613 7.6117909 5.311467-1.5857898 2.2197176c-.3171579.4756537-.7136054.8720319-1.0307633 1.1891344-.3964475.3171025-.7136054.4756537-1.1100529.634205-.3964474.0792756-.7928949.1585512-1.1893423.0792756-.317158-.2378269-.7136054-.3963781-1.1100529-.634205zm.9514739-1.5855125c.2378685.1585512.3964475.2378268.6343159.3171025.2378685.0792756.3964475.0792756.6343159 0 .2378685-.0792757.3964475-.1585513.6343159-.3171025.2378685-.1585513.3964475-.3963782.5550265-.6342051l.5550264-.7134806-2.7751321-1.902615-.5550264.7927562c-.158579.2378269-.317158.4756538-.317158.7134807-.0792895.2378269-.0792895.4756537 0 .7134806 0 .2378269.158579.3963781.2378685.634205 0 .0792757.1585789.2378269.3964474.3963782zm-5.9467117 6.6591526c.2378685.1585513.475737.2378269.634316.3171025.1585789.0792757.3171579.0792757.4757369.0792757s.2378685-.0792757.3964474-.1585513c.0792895-.0792756.158579-.1585512.2378685-.3171025.0792895-.2378269.158579-.4756538.0792895-.8720319-.0792895-.3171025-.2378685-.7927563-.4757369-1.26841l-4.043764-2.0611663.7928949-1.5855126 6.4224486 3.3295764-.7136054 1.4269613-.9514739-.3963782c.0792895.1585513.158579.3963782.2378685.5549294.0792895.2378269.0792895.3963781.0792895.634205s0 .3963782-.0792895.634205c-.0792895.2378269-.158579.4756538-.2378685.7134807-.1585789.3171025-.3964474.5549294-.6343159.7927563-.2378684.1585512-.4757369.3171025-.7928949.3963781-.3171579.0792756-.6343159.0792756-1.0307633-.0792756-.3964475-.1585513-.7928949-.2378269-1.1893423-.4756538zm-1.1893423 6.5006015.7136054-1.9026151 1.2686318.4756538-1.3479213 3.5674032-5.4709747-2.0611663-.7136054 1.9818907-1.26863183-.4756538 2.1408162-5.7078452 1.26863183.4756538-.79289489 2.1404419zm2.4579742 2.9331982c-.158579-.0792757-.2378685-.1585513-.3964475-.2378269-.0792895-.0792757-.158579-.2378269-.2378684-.3171025-.0792895-.1585513-.0792895-.2378269-.0792895-.3963782 0-.1585512 0-.3171025.0792895-.4756537.0792894-.1585513.1585789-.3171025.2378684-.3963782.0792895-.0792756.2378685-.1585512.317158-.2378268.158579-.0792757.2378684-.0792757.3964474-.0792757s.317158 0 .475737.0792757c.1585789.0792756.2378684.1585512.3964474.2378268.0792895.0792757.158579.2378269.2378685.3171025.0792895.1585513.0792895.2378269.0792895.3963782 0 .1585512 0 .3171025-.0792895.4756537-.0792895.1585513-.158579.3171025-.2378685.3963782-.0792895.0792756-.2378685.1585512-.317158.2378269-.1585789.0792756-.2378684.0792756-.3964474.0792756s-.317158 0-.4757369-.0792756zm-11.17981796 5.7078451 4.51950087 1.1098588c.79289489.1585512 1.18934229 0 1.34792129-.5549294.0792895-.3171025 0-.5549294-.158579-.8720319-.1585789-.3171025-.3964474-.634205-.71360536-1.0305832l-4.44021138-1.1098587.39644745-1.6647882 6.97747499 1.7440638-.3171579 1.4269613-1.0307634-.2378269c.158579.1585513.2378685.3963781.3964475.5549294.0792894.1585512.1585789.3963781.2378684.5549294.0792895.2378269.0792895.3963781.0792895.634205s0 .4756538-.0792895.7134806c-.0792895.3963782-.2378684.6342051-.3964474.8720319-.158579.2378269-.3964475.3963782-.6343159.5549294-.2378685.1585513-.5550265.1585513-.8721844.2378269-.31715796 0-.63431592 0-1.03076336-.0792756l-4.67807984-1.1891344zm-1.74436875 10.5436584c0-.3171025 0-.634205 0-.9513075s0-.634205.07928949-.8720319c.07928948-.4756538.15857897-.8720319.31715795-1.1891344s.31715796-.5549294.55502642-.7927563c.23786847-.1585513.47573694-.3171025.87218438-.3963781.31715796-.0792757.7136054-.0792757 1.11005284 0l3.48873751.4756537.23786847-1.902615 1.34792135.1585512-.2378685 1.9026151 1.8236582.2378269.2378685 1.8233394-2.2993952-.3171025-.3964474 2.7746469-1.34792133-.1585512.39644745-2.774647-3.33015853-.4756537c-.39644745-.0792757-.7136054 0-.95147387.1585512-.23786847.1585513-.39644744.4756538-.47573693.8720319 0 .3171025-.07928949.5549294-.07928949.7927563s0 .5549294.07928949.7134806zm8.24610681 5.8663964v-2.0611663h1.3479213l-.0792895 3.8052301-8.64255424-.1585513v2.0611663h-1.34792131l.07928949-6.1042232h1.34792131l-.07928949 2.2989931zm-7.69108039 11.8120684 4.59879035-.7927562c.79289489-.1585513 1.11005285-.4756538 1.03076336-1.0305832-.07928949-.3171025-.23786847-.5549294-.47573694-.7927563-.31715795-.2378268-.63431591-.4756537-1.11005284-.634205l-4.51950086.7927563-.31715796-1.6647882 7.05676451-1.1891344.23786847 1.5062369-1.03076336.2378269c.23786847.0792756.39644744.2378269.55502642.3963781.15857898.1585513.31715794.2378269.47573694.4756538.158579.1585513.2378685.3171025.3171579.5549294.0792895.2378269.158579.3963781.2378685.7134806.0792895.3963782.0792895.7134807 0 .9513076-.0792895.3171025-.2378685.5549294-.3964474.7927562-.158579.2378269-.39644747.3963782-.71360543.5549294-.31715795.1585513-.63431591.2378269-1.03076335.3171025l-4.75736933.7927563zm-.07928949 10.5436587c.55502642-1.426962 1.26863182-2.53682 2.06152671-3.488128.87218438-.872032 1.90294773-1.585512 3.09229007-1.981891.71360539-.237826 1.3479213-.396378 1.9822372-.396378s1.2686318 0 1.9029477.079276c.634316.079276 1.2686319.237827 1.8236583.554929.6343159.237827 1.1893423.55493 1.7443687.872032l-.6343159 1.26841c-1.1100528-.554929-2.1408162-.951307-3.250869-1.030583-1.0307634-.079276-2.0615267 0-3.09229007.317103-1.03076336.317102-1.90294773.951307-2.69584262 1.664788-.79289489.792756-1.4272108 1.744064-1.90294773 2.853922zm11.57626538 2.774647-.6343159-1.26841 3.0130006-1.82334.8721843 1.664788zm1.3479213 2.53682-.6343159-1.26841 3.0130006-1.82334.8721843 1.664788zm-1.1100528 10.305831 3.3301585-2.298993-1.7443688-2.616096-3.3301585 2.298994-.9514739-1.426962 7.611791-5.232191.9514738 1.426961-3.09229 2.061166 1.7443687 2.616096 3.0922901-2.061166.9514739 1.426961-7.611791 5.232192zm9.9111861 5.787121c-.0792895.079276-.2378685.158551-.3964475.317103-.158579.079275-.3171579.237826-.3964474.317102l-3.0130006-3.646679c-.2378685.237827-.3964474.396378-.5550264.634205s-.158579.475654-.2378685.713481c0 .237827 0 .475654.158579.713481.0792895.237826.2378685.475653.3964474.71348.2378685.237827.475737.55493.7928949.792756.317158.237827.6343159.55493 1.0307634.792757l-1.0307634.872032c-.158579-.079276-.3171579-.237827-.4757369-.396379-.158579-.158551-.317158-.317102-.4757369-.396378-.158579-.158551-.317158-.317102-.475737-.475653-.158579-.158552-.3171579-.317103-.4757369-.475654-.317158-.396378-.6343159-.872032-.7928949-1.26841s-.2378685-.872032-.158579-1.26841c0-.396378.158579-.872032.3964475-1.26841.2378684-.396378.5550264-.792757 1.0307633-1.189135.475737-.396378.8721844-.634205 1.3479213-.872032.475737-.158551.9514739-.237826 1.3479213-.237826.475737 0 .8721844.079275 1.2686319.317102.3964474.237827.7928949.475654 1.1100528.872032.317158.396378.5550264.792756.7136054 1.189134s.158579.792757.158579 1.189135c-.0792895.396378-.158579.792756-.3964475 1.109859-.2378684.317102-.5550264.634205-.8721843.951307zm-.9514739-1.506237c.2378685-.158551.3964474-.396378.4757369-.554929.0792895-.158552.158579-.396378.2378685-.55493 0-.158551 0-.396378-.0792895-.554929s-.158579-.317103-.3171579-.475654c-.317158-.317102-.634316-.475654-1.0307634-.554929-.3964474 0-.7928949.079275-1.2686318.396378zm7.3739225 1.585513-1.4272108-1.426962.9514738-.951307 2.6958426 2.695371-6.1052906 6.104223 1.5065003 1.426962-.9514739.951307-4.3609219-4.360159.9514739-.951308 1.5857898 1.585513zm5.9467116 5.549294-1.5065003-1.347686.8721844-1.030583 2.8544216 2.457544-5.6295537 6.579877 1.5857898 1.347686-.8721844 1.030583-4.6780798-3.963781.8721843-1.030583 1.7443688 1.506236zm6.6603171 11.653517c-.317158.475653-.7136054.792756-1.1100529 1.109859-.3964474.317102-.8721843.475653-1.2686318.554929-.4757369.079276-.8721844.079276-1.3479213-.079276-.4757369-.079275-.9514739-.317102-1.3479213-.71348-.3964474-.317103-.7928949-.634205-1.0307634-1.030584-.2378684-.396378-.3964474-.792756-.4757369-1.189134s0-.872032.158579-1.347686c.158579-.475653.3964474-.951307.7928949-1.426961.3171579-.475654.7136054-.792756 1.1100528-1.109859.3964475-.317102.8721844-.475653 1.2686318-.554929.475737-.079276.8721844-.079276 1.3479214.079276.4757369.079275.9514738.317102 1.3479213.634205.3964474.317102.7928949.634205 1.0307633 1.030583.2378685.396378.3964475.792756.475737 1.189134.0792894.396378 0 .872032-.158579 1.347686-.2378685.554929-.475737 1.030583-.7928949 1.506237zm-1.5065003-1.030583c.4757369-.634205.6343159-1.109859.6343159-1.585513s-.2378685-.872032-.6343159-1.189134c-.2378685-.158552-.4757369-.317103-.7136054-.317103s-.4757369 0-.7136054.079276c-.2378685.079275-.4757369.237827-.6343159.396378-.2378685.158551-.3964475.396378-.6343159.634205-.475737.634205-.6343159 1.109859-.6343159 1.664788 0 .475654.2378684.872032.6343159 1.189134.2378684.158552.4757369.237827.7136054.317103.2378684 0 .4757369 0 .7136054-.079276.2378684-.079275.4757369-.237827.6343159-.396378.2378685-.237827.4757369-.475654.6343159-.71348z" fill="#24a1c1"/><path d="m64.6899948 79.2548396c-24.0247151-6.7384283-6.1845801-37.3388204 13.1620552-24.7339957z" fill="#37abc8"/><path d="m65.7207582 70.8516231c-3.1715796-1.6647881-5.4709747-3.9637813-3.568027-7.6104602 1.7443687-3.3295763 5.1538168-3.0124738 8.3253963-1.3476856z" fill="#1c809a"/><path d="m169.748568 53.9659146c19.029477-13.3183054 36.235296 16.8064329 14.113529 24.4168931z" fill="#37abc8"/><path d="m178.866859 69.4246618c3.171579-1.6647881 5.470974-3.9637813 3.568027-7.6104602-1.744369-3.3295763-5.153817-3.0124738-8.325397-1.3476856z" fill="#1c809a"/><g fill="none" transform="translate(46.965878 147.515759)"><path d="m1.54906105 3.80062517c.23786847-6.26277453 6.58102758-3.32957633 9.35615965-1.42696128 1.3479213.95130752 3.9644745.95130752 4.5195009 1.34768566.5550264.31710251.7928949.79275627.9514739 2.61609569.1585789 2.37826881-1.3479213 4.83581326-1.5065003 7.21408206-4.043764.3171025-8.48397533-.634205-11.81413386-3.0124738-1.74436875-1.18913443-4.9952378-5.15291579-1.50650029-6.73842833" fill="#f0cb9f"/><path d="m1.54906105 3.80062517c.87218438.31710251 1.82365825.63420502 2.45797416 1.42696129" fill="#e29740"/></g><g fill="none" transform="translate(187.899617 144.978939)"><path d="m13.4061672 3.80062517c-.2378685-6.26277453-6.58102756-3.32957633-9.35615967-1.42696128-2.61655313 1.82333942-3.48873751.31710251-3.72660597 3.96378135-.15857898 2.37826881-.47573694 4.83581326-.23786847 7.21408206 4.04376393.3171025 8.48397531-.634205 11.81413381-3.0124738 1.6650793-1.18913443 4.9952378-5.15291579 1.5065003-6.73842833" fill="#f0cb9f"/><path d="m13.4061672 3.80062517c-.8721844.31710251-1.8236582.63420502-2.4579741 1.42696129" fill="#e29740"/></g><g fill="none"><use fill="url(#d)" xlink:href="#e"/><use fill="#000" filter="url(#f)" xlink:href="#e"/></g><path d="m131.372455 103.751008c0 3.250301.713605 6.89698.079289 10.464383-.792894 1.585513-2.457974 1.744064-3.885185 2.378269-1.982237-.237827-3.647316-1.585513-4.360921-3.488128-.555027-3.963781.158579-7.769011.317158-11.732792z" fill="#fff"/><path d="m114.483794 103.433906c-2.537264 6.262774 1.427211 18.709048 8.404686 9.513075-.555027-3.963781.158579-7.769011.317158-11.732793z" fill="#fff"/><path d="m115.355978 91.3840105c-4.757369.4756538-8.721844 6.1042233-6.263869 10.6229345 3.250869 6.024947 10.704081-.55493 15.302871.079275 5.312396.079276 9.673318 5.549294 13.87566.951308 4.67808-5.1529161-2.061526-10.0680049-7.373922-12.3669981z" fill="#f0cb9f"/><path d="m114.642373 90.6705299c.079289-8.3239409 16.016477-8.5617677 17.522977-1.5062369 1.5065 6.9762551-16.967951 7.6897358-17.522977 1.5062369z" fill="#2b1903"/><g fill="#1c809a"><path d="m116.545321 71.4065525c-1.982238 19.343253-33.8566122 23.4655856-39.2482974 2.6160957-.158579-.8720319-.2378685-1.7440638-.317158-2.5368201-.158579 1.9818907-.0792895 4.043057.317158 6.2627746 5.5502642 21.880073 40.5962184 16.2515035 39.2482974-5.6285695 0-.3963782 0-.5549294 0-.7134807z"/><path d="m166.180541 69.186835c-1.982238 19.3432529-33.856612 23.4655856-39.248297 2.6160956-.158579-.8720319-.237869-1.7440638-.317158-2.53682-.158579 1.9818907-.07929 4.043057.317158 6.2627745 5.550264 21.8800731 40.596218 16.2515036 39.248297-5.6285695 0-.2378269 0-.4756538 0-.7134806z"/><path d="m120.113355 47.8616888c-.919597 0-1.665079-.745351-1.665079-1.6647881 0-.919437.745482-1.6647881 1.665079-1.6647881.919598 0 1.66508.7453511 1.66508 1.6647881 0 .9194371-.745482 1.6647881-1.66508 1.6647881zm7.691073 0c-.919598 0-1.665079-.745351-1.665079-1.6647881 0-.919437.745481-1.6647881 1.665079-1.6647881s1.665079.7453511 1.665079 1.6647881c0 .9194371-.745481 1.6647881-1.665079 1.6647881zm.872176 7.0555332c-.919597 0-1.665079-.745351-1.665079-1.6647881s.745482-1.6647881 1.665079-1.6647881c.919598 0 1.66508.745351 1.66508 1.6647881s-.745482 1.6647881-1.66508 1.6647881zm-9.673309 0c-.919598 0-1.66508-.745351-1.66508-1.6647881s.745482-1.6647881 1.66508-1.6647881 1.665079.745351 1.665079 1.6647881-.745481 1.6647881-1.665079 1.6647881zm-.951474 7.0555308c-.919598 0-1.665079-.745351-1.665079-1.6647881s.745481-1.6647881 1.665079-1.6647881 1.665079.745351 1.665079 1.6647881-.745481 1.6647881-1.665079 1.6647881zm11.496976 0c-.919598 0-1.665079-.745351-1.665079-1.6647881s.745481-1.6647881 1.665079-1.6647881 1.665079.745351 1.665079 1.6647881-.745481 1.6647881-1.665079 1.6647881z"/></g><g fill="none" transform="translate(53.503387 110.870975)"><use fill="url(#h)" xlink:href="#i"/><path d="m126.235656 70.8192107c-4.440212-1.5855126-4.598791-3.4881276-11.417687-3.4881276-14.272108 0-21.5667406 5.3907426-43.7677974 5.3907426-6.1052907 0-28.6235055-6.0249476-26.9584262-4.5979864-5.3916853-.8720319-11.3383969-2.4575444-17.2851086.3171025-9.9111861.7927563-19.10876682 3.5674033-27.27558417 9.2752484-8.24610684 5.8663964-10.62479153 13.4768566-7.69108042 23.4655858 1.74436876 11.019312 9.51473866 16.172228 19.34663529 18.629772 12.8448972 3.171025 25.6897944.951308 38.4554021-.475654 9.1975807-.951307 18.2365824-3.012473 27.7513211-1.426961 14.7478449 2.457545 29.5749793 4.043057 44.6399823 3.250301 14.827134-.792756 25.214057-7.689736 27.592742-18.867599 3.17158-8.7203194 2.537264-16.885709-5.074527-23.0692079-5.312396-4.4394351-11.338397-7.5311845-18.315872-8.4032164z" fill="#e7a962" filter="url(#j)" mask="url(#C)"/><path d="m116.460417 31.6911745c6.581027-7.3726333 14.589266-16.3307791 22.201057-24.9718225 2.220105.23782689.656947-2.34435288.815526.50956969-14.362536 21.64224621-36.892244 43.09202521-70.7488555 96.60307331 17.681556-33.9299682 20.3773986-41.4611528 47.7322725-72.1408205z" fill="url(#l)" mask="url(#C)"/><path d="m2.11440152 67.4818864c8.56326478-1.7440638 21.21584858-7.9195906 28.50168068-10.1119448-6.9767115 3.2389719-17.8832208 10.7597907-28.03227536 12.7416813-.1543579-.7489997-.31082634-1.6255785-.46940532-2.6297365z" fill="url(#m)" mask="url(#C)"/><path d="m2.11440152 76.0032197c8.56326478-1.7440638 21.79974298-10.7762659 39.43360918-12.7900128-20.7848607 5.0614228-22.0813862 12.7900128-40.04345447 14.6520433.10124663 1.6327532.30452839 1.0120763.60984529-1.8620305z" fill="url(#n)" mask="url(#C)"/><path d="m116.403237 18.6217037c.713606-1.26841-3.103519 6.1922549-16.4854131 23.1795833-13.381894 16.9873284-15.0478936 16.5913378-24.7212112 34.0319758 5.2331062-18.3126699 21.6221207-36.9962742 41.2066243-57.2115591z" fill="url(#o)" mask="url(#C)"/><path d="m137.631337-1.05538133c-24.916312 25.36820063-129.35320735 68.74356653-137.54714282 59.29401613 5.23310627-18.3126699 162.46345582-84.6622168 137.54714282-59.29401613z" fill="url(#p)" mask="url(#C)"/></g><g fill="none" transform="translate(44.040754 183.998884)"><use fill="url(#q)" xlink:href="#r"/><path d="m80.512805 8.38227552c22.201057 0 29.574979-5.39074264 43.767798-5.39074264 7.215343 0 8.404686 3.25030071 11.417686 3.48812759 6.977475.8720319 13.082766 4.04305703 18.315872 8.40321643 7.532502 6.2627746 8.246107 14.3488885 5.312396 23.0692075-5.233106 9.4337996-14.272108 12.0498953-24.024715 13.0012028-14.272108 1.4269613-27.592742-1.6647881-40.675508-7.0555308-9.3561597-3.8845057-19.3466353-6.2627745-28.7820845-10.0680046-6.1052906-2.1404419-12.3691602-3.5674032-18.4744509-5.5492939 5.8674222 1.9818907 11.7348444 3.5674032 17.6022666 5.3907426 4.4402113 1.2684101 8.6425542 2.9331983 12.2898707 5.8663965 1.5065003 1.1891344 2.9337111 2.53682 2.4579742 4.6772619-.475737 2.2197176-2.3786847 2.6160957-4.3609219 2.9331982-16.2543452 2.4575445-32.5879799 5.2321914-49.0801936 3.8052301-10.4662125-.8720319-20.21881966-3.171025-25.13476797-14.2696128-2.93371108-9.988729-.55502642-17.5991892 7.69108042-23.4655856 8.16681735-5.7871208 17.44368755-8.40321649 27.27558415-9.27524839 5.9467117-2.85392258 11.8141339-1.26841003 17.2851086-.31710251-1.5857898-1.34768566 21.0117145 4.75653762 27.1170052 4.75653762z" fill="url(#s)" mask="url(#D)"/><path d="m65.2745574 32.972408c14.644225 3.3328142 28.3422072 9.4251659 42.7517006 13.5414441 18.236582 5.2321914 36.156007 6.1042233 51.300299-8.5617677-2.378685 11.1778634-12.765608 18.074843-27.592742 18.8675992-15.144293.7927563-29.892138-.7927562-44.6399825-3.2503007-9.6733176-1.5855125-18.5537403.4756538-27.7513211 1.4269613-12.8448971 1.4269613-25.6897943 3.5674032-38.455402.4756538-10.0697651-2.5368201-17.76084554-7.6897358-19.58450379-18.7883236 7.61179093 9.988729 18.23658239 12.2877222 30.13000579 12.7633759 15.0650029.634205 29.6542688-2.7746469 44.4814032-3.9637813 1.0307634-.0792756 2.1408162 0 2.6165531-1.1891344.634316-1.5855126-.6343159-2.2197176-1.5857897-2.9331982-3.9644745-3.0917495-8.2461069-5.5492939-13.0034762-7.1348065-.001653-.0082635-.0032868-.0164963-.0049013-.0246984-5.9179032-1.7365758-11.7576342-3.55131-17.5973652-5.3660442 6.660317 0 12.8448972 1.6647882 18.9501878 4.1223326-.0049053.0049044-.0097937.0098005-.0146657.0146881z" fill="url(#t)" mask="url(#D)"/><path d="m143.858863 11.9717879c-11.118264 0-19.292902 1.3009785-27.385335 3.7367045-9.295457 2.797822-16.258334 7.4193916-25.2445184 6.8260681-.7136054-.0792757-1.3479213-1.2684101-2.1408162-1.1891344 8.0463691-.48498 15.0635616-5.6751518 23.2051606-7.8707863 14.482666-3.90569984 28.723158-2.4670524 31.565509-1.5028519z" fill="url(#u)" mask="url(#D)"/><path d="m7.01144881 22.8897153c4.59879039-6.8969796 4.59879039-6.8969796 27.51345259-1.5062369-9.5147386.8720319-18.3951614-.7927563-27.51345259 1.5062369z" fill="#e39c4a" mask="url(#D)"/></g><path d="m31.2298305 72.992065c-4.5987903 22.752105 3.3301586 49.30944 47.0186669 69.524725-46.1464825-24.733996-42.5784555-50.181472-39.089718-70.0003787 5.5502642-31.1553214 59.8635641-46.6140687 79.6859366-43.6015949-20.1395305-6.8177039-80.4788315 8.720319-87.6148855 44.0772486z" fill="#fff" opacity=".2"/></g></g><ellipse cx="1095.2116" cy="283.07436" fill="#2b1903" mask="url(#B)" opacity=".098749" rx="54.45" ry="4.949135"/><circle cx="1259.39844" cy="206.50211" fill="url(#v)" mask="url(#B)" opacity=".522647" r="14.5"/><circle cx="928.898438" cy="173.00211" fill="url(#v)" mask="url(#B)" opacity=".522647" r="7"/><circle cx="1304.39844" cy="177.50211" fill="url(#w)" mask="url(#B)" opacity=".662063" r="4.5"/><circle cx="1264.39844" cy="25.50211" fill="url(#x)" mask="url(#B)" opacity=".792899" r="4.5"/><circle cx="970.398438" cy="258.50211" fill="url(#y)" mask="url(#B)" opacity=".855097" r="9.5"/><g mask="url(#B)"><g transform="translate(1259.898438 51.00211)"><path d="m70.9231667 0h-44.8463334c-14.3786333 0-26.0768333 11.5952308-26.0768333 25.8461538v16.1538462c0 14.2509231 11.6982 25.8461538 26.0768333 25.8461538h6.2565v14.5384616c0 .6526154.3944667 1.2438461.9991 1.4926154.1972334.084.4138667.1227692.6175667.1227692.4203333 0 .8342-.1647692 1.1381333-.4716923l15.6946-15.6821539h20.1372c14.3818667 0 26.0800667-11.5952307 26.0800667-25.8461538v-16.1538462c0-14.250923-11.6982-25.8461538-26.0768333-25.8461538z" fill="url(#z)" fill-rule="nonzero"/><g fill="#fff" fill-rule="evenodd" opacity=".484956" transform="translate(19 18)"><rect height="5" rx="2.5" width="27" x="7"/><rect height="5" rx="2.5" width="8" x="39"/><rect height="5" rx="2.5" width="14" x="13" y="12"/><rect height="5" rx="2.5" width="27" x="32" y="12"/><rect height="5" rx="2.5" width="39" y="24"/><rect height="5" rx="2.5" width="7" x="43" y="24"/></g></g></g><g mask="url(#B)"><path d="m85.5465 0h-54.093c-17.3433 0-31.4535 13.9418846-31.4535 31.0769231v19.4230769c0 17.1350385 14.1102 31.0769231 31.4535 31.0769231h7.5465v17.4807692c0 .7846923.4758 1.4955767 1.2051 1.7946927.2379.101.4992.147615.7449.147615.507 0 1.0062-.198115 1.3728-.567154l18.9306-18.8559229h24.2892c17.3472 0 31.4574-13.9418846 31.4574-31.0769231v-19.4230769c0-17.1350385-14.1102-31.0769231-31.4535-31.0769231z" fill="url(#A)" fill-rule="nonzero" transform="matrix(-1 0 0 1 945.898438 34.00211)"/><g fill="#fff" fill-rule="evenodd" opacity=".559524" transform="matrix(-1 0 0 -1 928.898438 85.00211)"><rect height="6.514286" rx="3.257143" width="19.370079" x="18.07874"/><rect height="6.514286" rx="3.257143" width="37.448819" x="44.040169"/><rect height="6.514286" rx="3.257143" width="53.590551" y="17.142857"/><rect height="6.514286" rx="3.257143" width="10.007874" x="58.890563" y="17.142857"/></g></g></g></svg>
