<svg xmlns="http://www.w3.org/2000/svg" width="155" height="70" viewBox="0 0 155 70">
  <g fill="none">
    <path fill="#2B1903" d="M31.9322946,19.1429683 C32.5020546,17.9025467 33.4084772,17.2823452 34.6515898,17.2823452 C35.4285352,17.2823452 36.1277755,17.5407625 36.7493318,18.0576049 C37.3708881,18.5744472 37.6816615,19.2204904 37.6816615,19.9957539 C37.6816615,20.460912 37.5780704,20.8743797 37.370885,21.2361693 L15.5388295,68.2169029 C15.2798477,68.7854294 14.9043298,69.2247388 14.4122644,69.5348442 C13.920199,69.8449496 13.4151921,70 12.8972285,70 C12.1202831,70 11.4339917,69.7545036 10.8383336,69.2635034 C10.2426755,68.7725031 9.94485088,68.1393808 9.94485088,67.3641173 C9.94485088,66.9506455 10.048442,66.5371757 10.2556275,66.1237019 L15.6942178,54.4172815 L0.31077659,21.2361693 C0.103591161,20.8743797 -7.10542736e-14,20.4867538 -7.10542736e-14,20.0732799 C-7.10542736e-14,19.2980164 0.349620168,18.6261314 1.04887099,18.0576049 C1.74812182,17.4890783 2.51210663,17.2048193 3.34084834,17.2048193 C3.85881192,17.2048193 4.36381882,17.3598697 4.85588422,17.6699751 C5.34794961,17.9800805 5.72346757,18.4193899 5.98244936,18.9879164 L18.957372,48.0601525 L31.9322946,19.1429683 Z M133.980113,17.3582493 C134.960139,17.3582493 135.733832,17.6395349 136.301216,18.2021146 C136.868599,18.7646942 137.152287,19.5062654 137.152287,20.4268503 L137.152287,52.9540202 C137.152287,58.5286731 135.70806,62.7351714 132.819562,65.5736415 C129.931064,68.4121116 125.649962,69.8313253 119.976127,69.8313253 C114.457033,69.8313253 109.866454,68.7573257 106.204251,66.6092943 C104.34736,65.5864222 103.418928,64.410137 103.418928,63.0804032 C103.418928,62.3643928 103.612352,61.7762501 103.999204,61.3159577 C104.386056,60.8556653 104.888957,60.6255225 105.507921,60.6255225 C106.023724,60.6255225 106.952156,60.9835224 108.293244,61.6995328 C110.098555,62.6201177 111.878049,63.3616889 113.63178,63.9242685 C115.385511,64.4868482 117.474482,64.7681338 119.898757,64.7681338 C123.56096,64.7681338 126.320465,63.8092056 128.177356,61.8913204 C130.034248,59.9734352 130.96268,57.1733649 130.96268,53.4910253 L130.96268,46.8935333 C129.879493,49.2972827 128.216053,51.1384249 125.972309,52.417015 C123.728565,53.6956051 121.085114,54.3348906 118.041875,54.3348906 C114.740735,54.3348906 111.813596,53.567748 109.26037,52.0334399 C106.707144,50.4991317 104.721332,48.3255612 103.302873,45.5126629 C101.884414,42.6997646 101.175196,39.4521945 101.175196,35.7698549 C101.175196,32.0875154 101.884414,28.8399452 103.302873,26.027047 C104.721332,23.2141487 106.707144,21.0405781 109.26037,19.50627 C111.813596,17.9719618 114.740735,17.2048193 118.041875,17.2048193 C121.033533,17.2048193 123.6383,17.8441047 125.856254,19.1226949 C128.074207,20.401285 129.750543,22.2168557 130.88531,24.5694615 L130.88531,20.4268503 C130.88531,19.5062654 131.156102,18.7646942 131.697696,18.2021146 C132.239289,17.6395349 133.000087,17.3582493 133.980113,17.3582493 Z M119.279796,49.194984 C122.890419,49.194984 125.727293,48.005913 127.790506,45.6277354 C129.853719,43.2495578 130.88531,39.9636305 130.88531,35.7698549 C130.88531,31.627223 129.866614,28.3668671 127.829191,25.9886895 C125.791769,23.6105118 122.941999,22.4214409 119.279796,22.4214409 C115.617594,22.4214409 112.742034,23.6105118 110.653031,25.9886895 C108.564029,28.3668671 107.519543,31.627223 107.519543,35.7698549 C107.519543,39.9636305 108.564029,43.2495578 110.653031,45.6277354 C112.742034,48.005913 115.617594,49.194984 119.279796,49.194984 Z M150.600932,8.09638554 C149.27243,8.09638554 148.207127,7.7300786 147.405028,6.99732872 C146.602913,6.24024757 146.201864,5.26330922 146.201864,4.06651052 C146.201864,2.86980977 146.602913,1.89287141 147.405028,1.13569231 C148.232196,0.378616903 149.310028,0 150.63853,0 C151.941947,0 152.994716,0.378616903 153.796836,1.13569231 C154.598935,1.86844793 155,2.84538628 155,4.06651052 C155,5.26330922 154.598935,6.24024757 153.796836,6.99732872 C152.994716,7.7300786 151.929413,8.09638554 150.600932,8.09638554 Z M150.544847,54.313253 C149.622525,54.313253 148.837307,54.027039 148.189205,53.4546111 C147.541087,52.8572922 147.217034,52.0110905 147.217034,50.9160059 L147.217034,20.564738 C147.217034,19.519465 147.553547,18.6981526 148.226595,18.1007976 C148.924557,17.5035159 149.734694,17.2048193 150.657017,17.2048193 C151.554393,17.2048193 152.327145,17.5035159 152.975269,18.1007976 C153.648296,18.6981526 153.98483,19.519465 153.98483,20.564738 L153.98483,50.9160059 C153.98483,51.9613139 153.635831,52.7950702 152.937879,53.4172747 C152.264826,54.0145936 151.467148,54.313253 150.544847,54.313253 Z"/>
    <path fill="#DB7D11" d="M52.0022156,53.9833052 C47.7428678,53.618912 44.4881487,52.3439601 42.1208659,50.1125072 C39.7123523,47.8421139 38.6788927,44.8821366 39.0867481,41.4222108 C39.5560861,37.4406321 41.4627633,34.6289283 44.8056641,32.9886097 C47.3821118,31.7243665 49.9523865,31.2434638 54.1381787,31.2424778 C57.1121596,31.2412297 59.6041786,31.4828979 63.4049721,32.1390953 C64.3447952,32.3013598 65.1584696,32.4341944 65.2131405,32.4343067 C65.2926426,32.4343067 65.3556936,32.1374852 65.5281379,30.950761 C65.8401432,28.8036168 65.8960642,28.0627239 65.8110621,27.2026256 C65.7121218,26.2014429 65.5829961,25.7245715 65.2007732,24.9486696 C64.214603,22.9468284 61.8735978,21.7220248 58.1143558,21.2411222 C57.0392454,21.1035948 54.5579573,21.0843492 53.4809591,21.2051272 C51.6765614,21.4075678 50.6696437,21.6655112 48.4240257,22.5004729 C47.1102229,22.988989 47.1042185,22.9904991 46.5801568,22.9599708 C45.6792402,22.9075883 45.0642148,22.5028193 44.6697404,21.7027168 C44.5072825,21.3732328 44.478717,21.2372156 44.4787107,20.7932565 C44.4787107,20.1267873 44.6536214,19.772978 45.2626689,19.2076168 C46.6284447,17.9397666 48.926745,16.8600663 51.2464141,16.3964872 C52.7317192,16.0996657 53.462868,16.0372611 55.4197561,16.040244 C57.4446344,16.045486 58.7393927,16.1567909 60.5388387,16.4888336 C63.5318565,17.0410523 65.8044955,18.0144275 67.5181973,19.4780286 C68.0266808,19.9122901 68.7934244,20.7670091 69.1219701,21.2657595 C69.2223882,21.4182141 69.3258349,21.542961 69.3518446,21.542961 C69.3778708,21.542961 69.5439837,21.3597784 69.7210123,21.1359454 C72.3159297,17.8546716 76.6863762,15.997397 81.8067015,16.0000027 C85.428298,16.0000027 88.7946012,16.9110384 91.3039279,18.5651859 C93.2942413,19.8772187 94.9111234,21.8983804 95.5642982,23.8908235 C95.9393394,25.034813 95.9963522,25.457542 95.9999101,27.1191531 C96.0018233,28.1530484 95.9731974,28.8504203 95.9150905,29.1735391 C95.3278331,32.4393115 93.9290281,34.7017671 91.501089,36.3127805 C89.5478407,37.6088002 87.0947344,38.3671539 83.8863763,38.6666962 C82.271318,38.8174783 79.3173664,38.8032376 77.4037415,38.6353816 C75.7796653,38.4929617 73.7854038,38.2423571 72.9346529,38.0738396 C72.2225411,37.9327552 69.7839741,37.52871 69.7638958,37.5484923 C69.755054,37.5573538 69.6390225,38.281023 69.5060808,39.1570345 C69.2938195,40.5557348 69.263751,40.904739 69.2592974,42.0215451 C69.2545684,43.1570226 69.2708056,43.3562307 69.4088599,43.8802675 C69.8527981,45.5653552 70.8311189,46.6925454 72.6060418,47.5639639 C74.3520848,48.421204 76.1824935,48.7921622 78.9482113,48.8493498 C80.172664,48.8749108 80.7997284,48.857088 81.5657715,48.7766234 C83.4228163,48.581222 84.2690394,48.3668371 86.7362574,47.4667749 C87.3507571,47.2425674 87.9778844,47.0385667 88.1298805,47.0134176 C88.4556064,46.9595249 89.063088,47.0708174 89.4171378,47.2493072 C90.0561883,47.5713775 90.5930989,48.4303401 90.5897534,49.1252033 C90.586106,49.9369879 90.3101358,50.4286866 89.5002358,51.0681346 C87.5637404,52.5970734 85.0912023,53.5347032 82.1396718,53.8594445 C81.0871942,53.9752675 78.6842209,53.9923289 77.5235261,53.8923068 C74.254816,53.6105748 71.985417,53.055785 69.9114434,52.0315375 C68.2931753,51.2323337 67.0584859,50.2408486 66.1363226,48.9999822 C65.9097344,48.695073 65.7172647,48.4380033 65.708609,48.4286052 C65.6999307,48.4192445 65.5493369,48.5953629 65.3738954,48.8199198 C64.598403,49.812603 63.4125122,50.8795852 62.2536071,51.6273426 C60.5805537,52.7068431 58.1787111,53.5303723 55.7483672,53.8578719 C55.02358,53.9554977 52.6188509,54.0360496 52.0022156,53.9833052 L52.0022156,53.9833052 Z M56.1755588,49.3363931 C58.1597886,48.9000099 59.9280292,47.9164128 61.2116894,46.535086 C62.3826171,45.2751112 63.3430203,43.3875329 63.8715758,41.3074237 C64.1695173,40.1348404 64.6647669,36.871352 64.5549851,36.8040548 C64.5116602,36.7774455 64.2499287,36.7354471 63.9734303,36.7106101 C63.6969243,36.6855609 62.9087716,36.5934266 62.2219778,36.5052988 C58.1425112,35.9817238 55.6398091,35.7782971 54.236763,35.8563529 C51.5693453,36.0046263 50.4819319,36.2357107 48.8804255,36.994701 C48.0599732,37.3835069 47.4936972,37.8054497 47.0456424,38.3617372 C46.4028288,39.1599051 46.0148329,39.9530682 45.7443842,41.0218226 C45.5475752,41.7995343 45.5274918,43.8359103 45.7101564,44.4920202 C46.0178615,45.5972315 46.3831378,46.2227632 47.2045146,47.0510351 C48.3292385,48.1851647 49.8119099,48.9417461 51.6510195,49.3200681 C52.5914274,49.513535 52.5635965,49.5116503 54.1381787,49.4881238 C55.2806994,49.4709126 55.7081665,49.4390737 56.1755588,49.3363931 L56.1755588,49.3363931 Z M82.1685744,34.0345615 C83.8280556,33.8892585 84.848436,33.6335992 86.1021372,33.0491297 C87.1448296,32.5629726 87.7508649,32.0661068 88.3243627,31.2271886 C89.1686867,29.9920509 89.4974688,28.8231869 89.4891875,27.0865405 C89.4829923,25.8487443 89.3772805,25.3338311 88.9466729,24.4451889 C87.9845503,22.4597227 85.7243918,21.0375457 82.7600828,20.5523621 C82.0203891,20.431322 80.035021,20.4528142 79.2768198,20.5899421 C77.8181974,20.8540386 76.5852324,21.3354156 75.4978076,22.0652754 C73.4887616,23.4137399 72.1022446,25.4464215 71.3301531,28.1751646 C71.0268814,29.2469893 70.9460373,29.6583982 70.6756477,31.5059502 L70.4262293,33.2102461 L70.7603341,33.2467653 C71.7694176,33.3577956 74.0448739,33.6312029 75.366364,33.8002446 C76.1977459,33.9065821 77.2180823,34.0200587 77.6337746,34.0524592 C78.8355014,34.1460662 80.9900726,34.1373545 82.1685744,34.0341996 L82.1685744,34.0341996 L82.1685744,34.0345615 Z"/>
  </g>
</svg>
